%TF.GenerationSoftware,KiCad,Pcbnew,9.0.8+dfsg-1*%
%TF.CreationDate,2026-09-23T11:03:17+02:00*%
%TF.ProjectId,ir-ring,69722d72-696e-4672-9e6b-696361645f70,rev?*%
%TF.SameCoordinates,Original*%
%TF.FileFunction,Legend,Bot*%
%TF.FilePolarity,Positive*%
%FSLAX46Y46*%
G04 Gerber Fmt 4.6, Leading zero omitted, Abs format (unit mm)*
G04 Created by KiCad (PCBNEW 9.0.8+dfsg-1) date 2026-09-23 11:03:17*
%MOMM*%
%LPD*%
G01*
G04 APERTURE LIST*
G04 Aperture macros list*
%AMRoundRect*
0 Rectangle with rounded corners*
0 $1 Rounding radius*
0 $2 $3 $4 $5 $6 $7 $8 $9 X,Y pos of 4 corners*
0 Add a 4 corners polygon primitive as box body*
4,1,4,$2,$3,$4,$5,$6,$7,$8,$9,$2,$3,0*
0 Add four circle primitives for the rounded corners*
1,1,$1+$1,$2,$3*
1,1,$1+$1,$4,$5*
1,1,$1+$1,$6,$7*
1,1,$1+$1,$8,$9*
0 Add four rect primitives between the rounded corners*
20,1,$1+$1,$2,$3,$4,$5,0*
20,1,$1+$1,$4,$5,$6,$7,0*
20,1,$1+$1,$6,$7,$8,$9,0*
20,1,$1+$1,$8,$9,$2,$3,0*%
%AMHorizOval*
0 Thick line with rounded ends*
0 $1 width*
0 $2 $3 position (X,Y) of the first rounded end (center of the circle)*
0 $4 $5 position (X,Y) of the second rounded end (center of the circle)*
0 Add line between two ends*
20,1,$1,$2,$3,$4,$5,0*
0 Add two circle primitives to create the rounded ends*
1,1,$1,$2,$3*
1,1,$1,$4,$5*%
%AMRotRect*
0 Rectangle, with rotation*
0 The origin of the aperture is its center*
0 $1 length*
0 $2 width*
0 $3 Rotation angle, in degrees counterclockwise*
0 Add horizontal line*
21,1,$1,$2,0,0,$3*%
G04 Aperture macros list end*
%ADD10C,0.120000*%
%ADD11RoundRect,0.262500X0.330854X0.331056X-0.184730X0.430043X-0.330854X-0.331056X0.184730X-0.430043X0*%
%ADD12HorizOval,1.050000X0.023568X0.122758X-0.023568X-0.122758X0*%
%ADD13RoundRect,0.250000X0.424372X-0.328685X0.511196X0.163719X-0.424372X0.328685X-0.511196X-0.163719X0*%
%ADD14RoundRect,0.225000X-0.286700X-0.330232X0.156464X-0.408374X0.286700X0.330232X-0.156464X0.408374X0*%
%ADD15RoundRect,0.250000X0.497516X-0.154544X0.379417X0.357000X-0.497516X0.154544X-0.379417X-0.357000X0*%
%ADD16C,1.500000*%
%ADD17RoundRect,0.250000X0.397581X-0.336654X0.488746X0.180370X-0.397581X0.336654X-0.488746X-0.180370X0*%
%ADD18RoundRect,0.150000X0.058726X-0.530761X0.236716X0.478667X-0.058726X0.530761X-0.236716X-0.478667X0*%
%ADD19RoundRect,0.250000X0.328685X0.424372X-0.163719X0.511196X-0.328685X-0.424372X0.163719X-0.511196X0*%
%ADD20RoundRect,0.250000X0.583689X-0.432934X0.696561X0.207191X-0.583689X0.432934X-0.696561X-0.207191X0*%
%ADD21RotRect,1.100000X3.700000X170.000000*%
%ADD22RoundRect,0.150000X-0.595561X-0.113854X0.577247X-0.185586X0.595561X0.113854X-0.577247X0.185586X0*%
%ADD23RoundRect,0.250000X0.336564X-0.397656X0.511813X0.097230X-0.336564X0.397656X-0.511813X-0.097230X0*%
G04 APERTURE END LIST*
D10*
X142922361Y-118832873D02*
X142994190Y-118458753D01*
X142994190Y-118458753D02*
X143375492Y-118493170D01*
X143375492Y-118493170D02*
X143330898Y-118523399D01*
X143330898Y-118523399D02*
X143279120Y-118591040D01*
X143279120Y-118591040D02*
X143243205Y-118778100D01*
X143243205Y-118778100D02*
X143266252Y-118860107D01*
X143266252Y-118860107D02*
X143296481Y-118904702D01*
X143296481Y-118904702D02*
X143364122Y-118956479D01*
X143364122Y-118956479D02*
X143551181Y-118992394D01*
X143551181Y-118992394D02*
X143633188Y-118969348D01*
X143633188Y-118969348D02*
X143677783Y-118939119D01*
X143677783Y-118939119D02*
X143729561Y-118871478D01*
X143729561Y-118871478D02*
X143765475Y-118684418D01*
X143765475Y-118684418D02*
X143742429Y-118602411D01*
X143742429Y-118602411D02*
X143712200Y-118557816D01*
X142872081Y-119094757D02*
X143607451Y-119507481D01*
X143607451Y-119507481D02*
X142771520Y-119618524D01*
X144273547Y-118626801D02*
X144250501Y-118544795D01*
X144250501Y-118544795D02*
X144272049Y-118432559D01*
X144272049Y-118432559D02*
X144331010Y-118327506D01*
X144331010Y-118327506D02*
X144420200Y-118267048D01*
X144420200Y-118267048D02*
X144502206Y-118244002D01*
X144502206Y-118244002D02*
X144659037Y-118235321D01*
X144659037Y-118235321D02*
X144771273Y-118256870D01*
X144771273Y-118256870D02*
X144913738Y-118323014D01*
X144913738Y-118323014D02*
X144981379Y-118374791D01*
X144981379Y-118374791D02*
X145041837Y-118463981D01*
X145041837Y-118463981D02*
X145057700Y-118583400D01*
X145057700Y-118583400D02*
X145043334Y-118658223D01*
X145043334Y-118658223D02*
X144984374Y-118763276D01*
X144984374Y-118763276D02*
X144939779Y-118793505D01*
X144939779Y-118793505D02*
X144677895Y-118743225D01*
X144677895Y-118743225D02*
X144706627Y-118593577D01*
X144949957Y-119144579D02*
X144164306Y-118993738D01*
X144164306Y-118993738D02*
X144863762Y-119593522D01*
X144863762Y-119593522D02*
X144078111Y-119442681D01*
X144791933Y-119967641D02*
X144006282Y-119816800D01*
X144006282Y-119816800D02*
X143970368Y-120003860D01*
X143970368Y-120003860D02*
X143986231Y-120123279D01*
X143986231Y-120123279D02*
X144046689Y-120212468D01*
X144046689Y-120212468D02*
X144114330Y-120264246D01*
X144114330Y-120264246D02*
X144256795Y-120330390D01*
X144256795Y-120330390D02*
X144369031Y-120351938D01*
X144369031Y-120351938D02*
X144525862Y-120343258D01*
X144525862Y-120343258D02*
X144607868Y-120320212D01*
X144607868Y-120320212D02*
X144697058Y-120259754D01*
X144697058Y-120259754D02*
X144756019Y-120154701D01*
X144756019Y-120154701D02*
X144791933Y-119967641D01*
X146238590Y-119062266D02*
X146310419Y-118688147D01*
X146310419Y-118688147D02*
X145524768Y-118537306D01*
X146188310Y-119324150D02*
X145402659Y-119173309D01*
X145402659Y-119173309D02*
X145366745Y-119360369D01*
X145366745Y-119360369D02*
X145382608Y-119479787D01*
X145382608Y-119479787D02*
X145443066Y-119568977D01*
X145443066Y-119568977D02*
X145510707Y-119620755D01*
X145510707Y-119620755D02*
X145653172Y-119686898D01*
X145653172Y-119686898D02*
X145765408Y-119708447D01*
X145765408Y-119708447D02*
X145922239Y-119699767D01*
X145922239Y-119699767D02*
X146004245Y-119676720D01*
X146004245Y-119676720D02*
X146093435Y-119616262D01*
X146093435Y-119616262D02*
X146152396Y-119511209D01*
X146152396Y-119511209D02*
X146188310Y-119324150D01*
X145951275Y-120558744D02*
X145627435Y-120225031D01*
X146037469Y-120109800D02*
X145251819Y-119958960D01*
X145251819Y-119958960D02*
X145194355Y-120258255D01*
X145194355Y-120258255D02*
X145217402Y-120340262D01*
X145217402Y-120340262D02*
X145247631Y-120384857D01*
X145247631Y-120384857D02*
X145315272Y-120436634D01*
X145315272Y-120436634D02*
X145427507Y-120458183D01*
X145427507Y-120458183D02*
X145509514Y-120435137D01*
X145509514Y-120435137D02*
X145554109Y-120404908D01*
X145554109Y-120404908D02*
X145605887Y-120337267D01*
X145605887Y-120337267D02*
X145663350Y-120037971D01*
X147423073Y-119522426D02*
X146637422Y-119371585D01*
X147279415Y-120270664D02*
X147351244Y-119896545D01*
X147351244Y-119896545D02*
X146565593Y-119745704D01*
X147929647Y-119270566D02*
X148679384Y-119608467D01*
X148679384Y-119608467D02*
X148089473Y-119650371D01*
X148089473Y-119650371D02*
X148621920Y-119907762D01*
X148621920Y-119907762D02*
X147800355Y-119943981D01*
X148456714Y-120768237D02*
X148528543Y-120394118D01*
X148528543Y-120394118D02*
X147742892Y-120243277D01*
%TO.C,J1*%
X140522782Y-125105317D02*
X144559065Y-125880245D01*
X141601270Y-119487910D02*
X140522782Y-125105317D01*
X142595514Y-119984274D02*
X142652079Y-119689655D01*
X142652079Y-119689655D02*
X141601270Y-119487910D01*
X145580990Y-120557457D02*
X142595514Y-119984274D01*
X145580990Y-120557457D02*
X148566465Y-121130640D01*
X148336345Y-120791163D02*
X148392909Y-120496544D01*
X148392909Y-120496544D02*
X148883941Y-120590817D01*
X148566465Y-121130640D02*
X148623029Y-120836021D01*
X148595349Y-126655173D02*
X144559065Y-125880245D01*
X148623029Y-120836021D02*
X149673838Y-121037766D01*
X149673838Y-121037766D02*
X148595349Y-126655173D01*
%TO.C,C3*%
X151493700Y-87820152D02*
X151584432Y-87305586D01*
X152941368Y-88075414D02*
X153032100Y-87560848D01*
%TO.C,D1*%
X148509206Y-95964298D02*
X148856502Y-93994683D01*
X148509206Y-95964298D02*
X152458285Y-96660627D01*
X148856502Y-93994683D02*
X152805581Y-94691012D01*
%TO.C,R3*%
X130978316Y-109278283D02*
X130876160Y-108835795D01*
X132410640Y-108947605D02*
X132308484Y-108505117D01*
%TO.C,TP2*%
X137494200Y-90751600D02*
G75*
G02*
X135594200Y-90751600I-950000J0D01*
G01*
X135594200Y-90751600D02*
G75*
G02*
X137494200Y-90751600I950000J0D01*
G01*
%TO.C,R1b*%
X143227537Y-88054083D02*
X143306396Y-87606854D01*
X144675204Y-88309346D02*
X144754063Y-87862117D01*
%TO.C,U1*%
X149149980Y-92330384D02*
X149199220Y-92339066D01*
X149466020Y-90538034D02*
X149149980Y-92330384D01*
X149515260Y-90546716D02*
X149466020Y-90538034D01*
X152173340Y-92863484D02*
X152222580Y-92872166D01*
X152222580Y-92872166D02*
X152538620Y-91079816D01*
X152538620Y-91079816D02*
X152489380Y-91071134D01*
X152362881Y-93688938D02*
X152079570Y-93395280D01*
X152446232Y-93216230D01*
X152362881Y-93688938D01*
G36*
X152362881Y-93688938D02*
G01*
X152079570Y-93395280D01*
X152446232Y-93216230D01*
X152362881Y-93688938D01*
G37*
%TO.C,TP1*%
X159624300Y-94642000D02*
G75*
G02*
X157724300Y-94642000I-950000J0D01*
G01*
X157724300Y-94642000D02*
G75*
G02*
X159624300Y-94642000I950000J0D01*
G01*
%TO.C,C1*%
X155787052Y-87636600D02*
X155272486Y-87545868D01*
X156042314Y-86188932D02*
X155527748Y-86098200D01*
%TO.C,R2*%
X148939137Y-87334983D02*
X149017996Y-86887754D01*
X150386804Y-87590246D02*
X150465663Y-87143017D01*
%TO.C,C2*%
X145845117Y-94084427D02*
X146092133Y-92683534D01*
X147637467Y-94400466D02*
X147884483Y-92999573D01*
%TO.C,L1*%
X157390335Y-93163957D02*
X153254143Y-92434635D01*
X158119657Y-89027765D02*
X153983465Y-88298443D01*
%TO.C,Q1*%
X132075282Y-105558293D02*
X133592447Y-105651087D01*
X132078334Y-105508387D02*
X132075282Y-105558293D01*
X132194326Y-103611931D02*
X132146709Y-104390476D01*
X132265753Y-102444113D02*
X132262701Y-102494020D01*
X133592447Y-105651087D02*
X133653495Y-104652952D01*
X133721870Y-103535041D02*
X133782918Y-102536907D01*
X133782918Y-102536907D02*
X132265753Y-102444113D01*
X131868025Y-104032795D02*
X131608326Y-104347528D01*
X131388920Y-104003492D01*
X131868025Y-104032795D01*
G36*
X131868025Y-104032795D02*
G01*
X131608326Y-104347528D01*
X131388920Y-104003492D01*
X131868025Y-104032795D01*
G37*
%TO.C,R4*%
X131423663Y-99193792D02*
X131575254Y-98765712D01*
X132809346Y-99684488D02*
X132960937Y-99256408D01*
%TO.C,TP3*%
X141326000Y-87726900D02*
G75*
G02*
X139426000Y-87726900I-950000J0D01*
G01*
X139426000Y-87726900D02*
G75*
G02*
X141326000Y-87726900I950000J0D01*
G01*
%TO.C,R1a*%
X145985037Y-88540283D02*
X146063896Y-88093054D01*
X147432704Y-88795546D02*
X147511563Y-88348317D01*
%TD*%
%LPC*%
D11*
%TO.C,J1*%
X147874000Y-121873400D03*
D12*
X146646420Y-121637716D03*
X145418839Y-121402035D03*
X144191259Y-121166349D03*
X142963679Y-120930665D03*
%TD*%
D13*
%TO.C,C3*%
X152097934Y-88626067D03*
X152427866Y-86754933D03*
%TD*%
D14*
%TO.C,D1*%
X149382067Y-95102781D03*
X152631933Y-95675819D03*
%TD*%
D15*
%TO.C,R3*%
X131848668Y-109780813D03*
X131438132Y-108002587D03*
%TD*%
D16*
%TO.C,TP2*%
X136544200Y-90751600D03*
%TD*%
D17*
%TO.C,R1b*%
X143832346Y-88856737D03*
X144149254Y-87059463D03*
%TD*%
D18*
%TO.C,U1*%
X151582344Y-92990285D03*
X150646775Y-92825319D03*
X149711208Y-92660353D03*
X150106256Y-90419915D03*
X151041825Y-90584881D03*
X151977392Y-90749847D03*
%TD*%
D16*
%TO.C,TP1*%
X158674300Y-94642000D03*
%TD*%
D19*
%TO.C,C1*%
X156592967Y-87032366D03*
X154721833Y-86702434D03*
%TD*%
D17*
%TO.C,R2*%
X149543946Y-88137637D03*
X149860854Y-86340363D03*
%TD*%
D20*
%TO.C,C2*%
X146608669Y-94994591D03*
X147120931Y-92089409D03*
%TD*%
D21*
%TO.C,L1*%
X157164112Y-90991672D03*
X154209688Y-90470728D03*
%TD*%
D22*
%TO.C,Q1*%
X131935353Y-104938595D03*
X132051345Y-103042139D03*
X133864851Y-104104833D03*
%TD*%
D23*
%TO.C,R4*%
X131887701Y-100085260D03*
X132496899Y-98364940D03*
%TD*%
D16*
%TO.C,TP3*%
X140376000Y-87726900D03*
%TD*%
D17*
%TO.C,R1a*%
X146589846Y-89342937D03*
X146906754Y-87545663D03*
%TD*%
%LPD*%
M02*
