M48
; DRILL file {KiCad 9.0.8+dfsg-1} date 2026-09-24T00:04:40+0200
; FORMAT={-:-/ absolute / metric / decimal}
; #@! TF.CreationDate,2026-09-24T00:04:40+02:00
; #@! TF.GenerationSoftware,Kicad,Pcbnew,9.0.8+dfsg-1
; #@! TF.FileFunction,MixedPlating,1,2
FMAT,2
METRIC
; #@! TA.AperFunction,Plated,PTH,ViaDrill
T1C0.300
; #@! TA.AperFunction,Plated,PTH,ComponentDrill
T2C0.300
; #@! TA.AperFunction,Plated,PTH,ComponentDrill
T3C0.500
%
G90
G05
T1
X130.369Y-106.586
X133.147Y-103.042
X133.391Y-96.966
X133.609Y-98.365
X135.647Y-112.421
X138.061Y-119.909
X138.588Y-89.736
X139.985Y-111.802
X140.856Y-90.543
X142.405Y-113.697
X142.667Y-89.999
X147.995Y-87.546
X148.207Y-88.345
X148.418Y-92.089
X149.496Y-91.406
X150.95Y-86.34
X151.224Y-94.158
X151.66Y-122.924
X153.539Y-86.755
X155.277Y-87.665
X156.293Y-95.628
X156.46Y-88.367
X162.962Y-113.349
X163.409Y-94.561
X166.171Y-106.546
X166.424Y-101.84
T2
X135.29Y-100.722
X135.565Y-100.078
X135.775Y-109.318
X135.973Y-109.99
X136.301Y-100.392
X136.543Y-109.092
X140.554Y-93.462
X141.164Y-93.118
X141.557Y-93.815
X142.129Y-116.572
X142.544Y-115.888
X142.728Y-116.934
X151.213Y-117.395
X151.35Y-118.183
X152.039Y-118.063
X157.876Y-96.247
X158.029Y-95.195
X158.484Y-95.727
X158.528Y-112.298
X159.153Y-112.797
X159.59Y-112.25
X161.182Y-104.083
X161.962Y-103.36
X161.982Y-104.06
T3
X142.964Y-120.931
X144.191Y-121.166
X145.419Y-121.402
X146.646Y-121.638
X147.874Y-121.873
M30
