M48
; DRILL file {KiCad 9.0.8+dfsg-1} date 2026-09-23T09:57:34+0200
; FORMAT={-:-/ absolute / metric / decimal}
; #@! TF.CreationDate,2026-09-23T09:57:34+02:00
; #@! TF.GenerationSoftware,Kicad,Pcbnew,9.0.8+dfsg-1
; #@! TF.FileFunction,MixedPlating,1,2
FMAT,2
METRIC
; #@! TA.AperFunction,Plated,PTH,ViaDrill
T1C0.300
; #@! TA.AperFunction,Plated,PTH,ComponentDrill
T2C0.300
; #@! TA.AperFunction,Plated,PTH,ComponentDrill
T3C0.500
%
G90
G05
T1
X130.369Y-106.586
X133.147Y-103.042
X133.391Y-96.966
X133.609Y-98.365
X135.647Y-112.421
X138.061Y-119.909
X138.588Y-89.736
X139.985Y-111.802
X140.856Y-90.543
X142.405Y-113.697
X142.667Y-89.999
X147.995Y-87.546
X148.207Y-88.345
X148.418Y-92.089
X149.496Y-91.406
X150.95Y-86.34
X151.224Y-94.158
X151.66Y-122.924
X153.539Y-86.755
X155.277Y-87.665
X156.293Y-95.628
X156.46Y-88.367
X162.962Y-113.349
X163.409Y-94.561
X166.171Y-106.546
X166.424Y-101.84
T2
X135.044Y-108.96
X135.229Y-99.337
X136.004Y-108.678
X136.149Y-99.729
X136.963Y-108.395
X137.068Y-100.122
X141.348Y-92.325
X141.348Y-116.8
X141.839Y-93.196
X141.866Y-115.944
X142.331Y-94.067
X142.385Y-115.089
X150.568Y-116.898
X150.739Y-117.883
X150.911Y-118.869
X157.716Y-112.354
X157.778Y-97.055
X158.498Y-112.978
X158.538Y-96.404
X159.279Y-113.601
X159.297Y-95.754
X160.599Y-104.65
X161.598Y-104.621
X162.598Y-104.592
T3
X142.964Y-120.931
X144.191Y-121.166
X145.419Y-121.402
X146.646Y-121.638
X147.874Y-121.873
M30
