%TF.GenerationSoftware,KiCad,Pcbnew,9.0.8+dfsg-1*%
%TF.CreationDate,2026-09-23T10:16:29+02:00*%
%TF.ProjectId,ir-ring,69722d72-696e-4672-9e6b-696361645f70,rev?*%
%TF.SameCoordinates,Original*%
%TF.FileFunction,Paste,Top*%
%TF.FilePolarity,Positive*%
%FSLAX46Y46*%
G04 Gerber Fmt 4.6, Leading zero omitted, Abs format (unit mm)*
G04 Created by KiCad (PCBNEW 9.0.8+dfsg-1) date 2026-09-23 10:16:29*
%MOMM*%
%LPD*%
G01*
G04 APERTURE LIST*
G04 Aperture macros list*
%AMRoundRect*
0 Rectangle with rounded corners*
0 $1 Rounding radius*
0 $2 $3 $4 $5 $6 $7 $8 $9 X,Y pos of 4 corners*
0 Add a 4 corners polygon primitive as box body*
4,1,4,$2,$3,$4,$5,$6,$7,$8,$9,$2,$3,0*
0 Add four circle primitives for the rounded corners*
1,1,$1+$1,$2,$3*
1,1,$1+$1,$4,$5*
1,1,$1+$1,$6,$7*
1,1,$1+$1,$8,$9*
0 Add four rect primitives between the rounded corners*
20,1,$1+$1,$2,$3,$4,$5,0*
20,1,$1+$1,$4,$5,$6,$7,0*
20,1,$1+$1,$6,$7,$8,$9,0*
20,1,$1+$1,$8,$9,$2,$3,0*%
%AMRotRect*
0 Rectangle, with rotation*
0 The origin of the aperture is its center*
0 $1 length*
0 $2 width*
0 $3 Rotation angle, in degrees counterclockwise*
0 Add horizontal line*
21,1,$1,$2,0,0,$3*%
G04 Aperture macros list end*
%ADD10RoundRect,0.250000X0.338039X0.396403X-0.178663X0.489373X-0.338039X-0.396403X0.178663X-0.489373X0*%
%ADD11RotRect,0.600000X3.300000X189.860000*%
%ADD12RotRect,0.300000X0.600000X189.860000*%
%ADD13RotRect,1.000000X3.300000X189.860000*%
%ADD14RotRect,0.600000X3.300000X148.780000*%
%ADD15RotRect,0.300000X0.600000X148.780000*%
%ADD16RotRect,1.000000X3.300000X148.780000*%
%ADD17RotRect,0.600000X3.300000X231.410000*%
%ADD18RotRect,0.300000X0.600000X231.410000*%
%ADD19RotRect,1.000000X3.300000X231.410000*%
%ADD20RotRect,0.600000X3.300000X106.400000*%
%ADD21RotRect,0.300000X0.600000X106.400000*%
%ADD22RotRect,1.000000X3.300000X106.400000*%
%ADD23RotRect,0.600000X3.300000X271.660000*%
%ADD24RotRect,0.300000X0.600000X271.660000*%
%ADD25RotRect,1.000000X3.300000X271.660000*%
%ADD26RotRect,0.600000X3.300000X29.430000*%
%ADD27RotRect,0.300000X0.600000X29.430000*%
%ADD28RotRect,1.000000X3.300000X29.430000*%
%ADD29RotRect,0.600000X3.300000X66.890000*%
%ADD30RotRect,0.300000X0.600000X66.890000*%
%ADD31RotRect,1.000000X3.300000X66.890000*%
%ADD32RotRect,0.600000X3.300000X310.570000*%
%ADD33RotRect,0.300000X0.600000X310.570000*%
%ADD34RotRect,1.000000X3.300000X310.570000*%
%ADD35RotRect,1.000000X1.450000X349.800000*%
G04 APERTURE END LIST*
D10*
%TO.C,R6*%
X148205478Y-90008490D03*
X146409322Y-89685310D03*
%TD*%
D11*
%TO.C,D5*%
X149458502Y-118105914D03*
D12*
X149015149Y-118182972D03*
X152463451Y-117583628D03*
D11*
X152020098Y-117660686D03*
D13*
X150739300Y-117883300D03*
%TD*%
D14*
%TO.C,D6*%
X140754662Y-115270677D03*
D15*
X140369829Y-115037430D03*
X143362971Y-116851570D03*
D14*
X142978138Y-116618323D03*
D16*
X141866400Y-115944500D03*
%TD*%
D17*
%TO.C,D4*%
X157686834Y-113993818D03*
D18*
X157406149Y-114345551D03*
X159589251Y-111609849D03*
D17*
X159308566Y-111961582D03*
D19*
X158497700Y-112977700D03*
%TD*%
D10*
%TO.C,R7*%
X155821878Y-91385690D03*
X154025722Y-91062510D03*
%TD*%
D20*
%TO.C,D7*%
X135636756Y-107430692D03*
D21*
X135509701Y-106999001D03*
X136497899Y-110356599D03*
D20*
X136370844Y-109924908D03*
D22*
X136003800Y-108677800D03*
%TD*%
D23*
%TO.C,D3*%
X161635859Y-105920354D03*
D24*
X161648895Y-106370166D03*
X161547505Y-102871634D03*
D23*
X161560541Y-103321446D03*
D25*
X161598200Y-104620900D03*
%TD*%
D26*
%TO.C,D9*%
X142971544Y-92557232D03*
D27*
X143363474Y-92336120D03*
X140315126Y-94055880D03*
D26*
X140707056Y-93834768D03*
D28*
X141839300Y-93196000D03*
%TD*%
D29*
%TO.C,D8*%
X136658947Y-98533521D03*
D30*
X136835571Y-98119632D03*
X135461829Y-101338768D03*
D29*
X135638453Y-100924879D03*
D31*
X136148700Y-99729200D03*
%TD*%
D32*
%TO.C,D2*%
X159383290Y-97391996D03*
D33*
X159675959Y-97733821D03*
X157399641Y-95075179D03*
D32*
X157692310Y-95417004D03*
D34*
X158537800Y-96404500D03*
%TD*%
D35*
%TO.C,U2*%
X151957356Y-90361668D03*
X150382644Y-90078332D03*
%TD*%
M02*
