%TF.GenerationSoftware,KiCad,Pcbnew,9.0.8+dfsg-1*%
%TF.CreationDate,2026-09-23T09:57:34+02:00*%
%TF.ProjectId,ir-ring,69722d72-696e-4672-9e6b-696361645f70,rev?*%
%TF.SameCoordinates,Original*%
%TF.FileFunction,Legend,Top*%
%TF.FilePolarity,Positive*%
%FSLAX46Y46*%
G04 Gerber Fmt 4.6, Leading zero omitted, Abs format (unit mm)*
G04 Created by KiCad (PCBNEW 9.0.8+dfsg-1) date 2026-09-23 09:57:34*
%MOMM*%
%LPD*%
G01*
G04 APERTURE LIST*
G04 Aperture macros list*
%AMRoundRect*
0 Rectangle with rounded corners*
0 $1 Rounding radius*
0 $2 $3 $4 $5 $6 $7 $8 $9 X,Y pos of 4 corners*
0 Add a 4 corners polygon primitive as box body*
4,1,4,$2,$3,$4,$5,$6,$7,$8,$9,$2,$3,0*
0 Add four circle primitives for the rounded corners*
1,1,$1+$1,$2,$3*
1,1,$1+$1,$4,$5*
1,1,$1+$1,$6,$7*
1,1,$1+$1,$8,$9*
0 Add four rect primitives between the rounded corners*
20,1,$1+$1,$2,$3,$4,$5,0*
20,1,$1+$1,$4,$5,$6,$7,0*
20,1,$1+$1,$6,$7,$8,$9,0*
20,1,$1+$1,$8,$9,$2,$3,0*%
%AMHorizOval*
0 Thick line with rounded ends*
0 $1 width*
0 $2 $3 position (X,Y) of the first rounded end (center of the circle)*
0 $4 $5 position (X,Y) of the second rounded end (center of the circle)*
0 Add line between two ends*
20,1,$1,$2,$3,$4,$5,0*
0 Add two circle primitives to create the rounded ends*
1,1,$1,$2,$3*
1,1,$1,$4,$5*%
%AMRotRect*
0 Rectangle, with rotation*
0 The origin of the aperture is its center*
0 $1 length*
0 $2 width*
0 $3 Rotation angle, in degrees counterclockwise*
0 Add horizontal line*
21,1,$1,$2,0,0,$3*%
G04 Aperture macros list end*
%ADD10C,0.120000*%
%ADD11C,0.210000*%
%ADD12C,0.210001*%
%ADD13C,0.209999*%
%ADD14RotRect,0.600000X3.300000X66.890000*%
%ADD15RotRect,0.300000X0.600000X66.890000*%
%ADD16RotRect,1.000000X3.300000X66.890000*%
%ADD17RoundRect,0.250000X0.338039X0.396403X-0.178663X0.489373X-0.338039X-0.396403X0.178663X-0.489373X0*%
%ADD18RotRect,0.600000X3.300000X310.570000*%
%ADD19RotRect,0.300000X0.600000X310.570000*%
%ADD20RotRect,1.000000X3.300000X310.570000*%
%ADD21RotRect,0.600000X3.300000X189.860000*%
%ADD22RotRect,0.300000X0.600000X189.860000*%
%ADD23RotRect,1.000000X3.300000X189.860000*%
%ADD24RotRect,0.600000X3.300000X271.660000*%
%ADD25RotRect,0.300000X0.600000X271.660000*%
%ADD26RotRect,1.000000X3.300000X271.660000*%
%ADD27RotRect,0.600000X3.300000X148.780000*%
%ADD28RotRect,0.300000X0.600000X148.780000*%
%ADD29RotRect,1.000000X3.300000X148.780000*%
%ADD30RotRect,0.600000X3.300000X231.410000*%
%ADD31RotRect,0.300000X0.600000X231.410000*%
%ADD32RotRect,1.000000X3.300000X231.410000*%
%ADD33RotRect,0.600000X3.300000X106.400000*%
%ADD34RotRect,0.300000X0.600000X106.400000*%
%ADD35RotRect,1.000000X3.300000X106.400000*%
%ADD36RotRect,1.000000X1.450000X349.800000*%
%ADD37RotRect,0.600000X3.300000X29.430000*%
%ADD38RotRect,0.300000X0.600000X29.430000*%
%ADD39RotRect,1.000000X3.300000X29.430000*%
%ADD40RoundRect,0.262500X0.330854X0.331056X-0.184730X0.430043X-0.330854X-0.331056X0.184730X-0.430043X0*%
%ADD41HorizOval,1.050000X0.023568X0.122758X-0.023568X-0.122758X0*%
G04 APERTURE END LIST*
D10*
X153429575Y-90918845D02*
X153385336Y-90949593D01*
X153385336Y-90949593D02*
X153266110Y-90966847D01*
X153266110Y-90966847D02*
X153191124Y-90953355D01*
X153191124Y-90953355D02*
X153085390Y-90895624D01*
X153085390Y-90895624D02*
X153023896Y-90807145D01*
X153023896Y-90807145D02*
X152999895Y-90725413D01*
X152999895Y-90725413D02*
X152989386Y-90568694D01*
X152989386Y-90568694D02*
X153009625Y-90456215D01*
X153009625Y-90456215D02*
X153074102Y-90312988D01*
X153074102Y-90312988D02*
X153125088Y-90244748D01*
X153125088Y-90244748D02*
X153213566Y-90183254D01*
X153213566Y-90183254D02*
X153332792Y-90165999D01*
X153332792Y-90165999D02*
X153407778Y-90179491D01*
X153407778Y-90179491D02*
X153513511Y-90237222D01*
X153513511Y-90237222D02*
X153544258Y-90281462D01*
%TO.C,D8*%
X133609436Y-100711360D02*
X135100927Y-97216299D01*
X137196473Y-102242101D02*
X138687964Y-98747040D01*
D11*
X135323676Y-96940373D02*
G75*
G02*
X135113676Y-96940373I-105000J0D01*
G01*
X135113676Y-96940373D02*
G75*
G02*
X135323676Y-96940373I105000J0D01*
G01*
D10*
%TO.C,R6*%
X147400718Y-90610493D02*
X146953767Y-90530074D01*
X147661033Y-89163726D02*
X147214082Y-89083307D01*
%TO.C,D2*%
X155820841Y-96229472D02*
X158292272Y-99115997D01*
X158783328Y-93693003D02*
X161254759Y-96579528D01*
D11*
X161554872Y-96807412D02*
G75*
G02*
X161344872Y-96807412I-105000J0D01*
G01*
X161344872Y-96807412D02*
G75*
G02*
X161554872Y-96807412I105000J0D01*
G01*
D10*
%TO.C,D5*%
X152277315Y-115636745D02*
X148533444Y-116287462D01*
X152945156Y-119479138D02*
X149201285Y-120129855D01*
D12*
X149010717Y-120181228D02*
G75*
G02*
X148800717Y-120181228I-105000J0D01*
G01*
X148800717Y-120181228D02*
G75*
G02*
X149010717Y-120181228I105000J0D01*
G01*
D10*
%TO.C,D3*%
X159593978Y-102778186D02*
X159704058Y-106576591D01*
X163492342Y-102665209D02*
X163602422Y-106463614D01*
D11*
X163716112Y-106763488D02*
G75*
G02*
X163506112Y-106763488I-105000J0D01*
G01*
X163506112Y-106763488D02*
G75*
G02*
X163716112Y-106763488I105000J0D01*
G01*
D10*
%TO.C,D6*%
X142480514Y-118596926D02*
X139230817Y-116627289D01*
X144501983Y-115261711D02*
X141252286Y-113292074D01*
D11*
X139079262Y-116471791D02*
G75*
G02*
X138869262Y-116471791I-105000J0D01*
G01*
X138869262Y-116471791D02*
G75*
G02*
X139079262Y-116471791I105000J0D01*
G01*
D10*
%TO.C,D4*%
X158158635Y-110276305D02*
X155788411Y-113246497D01*
X161206989Y-112708903D02*
X158836765Y-115679095D01*
D13*
X158754641Y-115913584D02*
G75*
G02*
X158544643Y-115913584I-104999J0D01*
G01*
X158544643Y-115913584D02*
G75*
G02*
X158754641Y-115913584I104999J0D01*
G01*
D10*
%TO.C,D7*%
X134669587Y-111051062D02*
X133596689Y-107405669D01*
X138410911Y-109949931D02*
X137338013Y-106304538D01*
D11*
X133616987Y-107117875D02*
G75*
G02*
X133406987Y-107117875I-105000J0D01*
G01*
X133406987Y-107117875D02*
G75*
G02*
X133616987Y-107117875I105000J0D01*
G01*
D10*
%TO.C,R7*%
X155017118Y-91987693D02*
X154570167Y-91907274D01*
X155277433Y-90540926D02*
X154830482Y-90460507D01*
%TO.C,U2*%
X150755721Y-91110715D02*
X151247818Y-91199257D01*
X151092182Y-89240743D02*
X151584279Y-89329285D01*
%TO.C,D9*%
X139226331Y-92431218D02*
X142535966Y-90564051D01*
X141142634Y-95827949D02*
X144452269Y-93960782D01*
D11*
X142902253Y-90416643D02*
G75*
G02*
X142692253Y-90416643I-105000J0D01*
G01*
X142692253Y-90416643D02*
G75*
G02*
X142902253Y-90416643I105000J0D01*
G01*
%TD*%
%LPC*%
D14*
%TO.C,D8*%
X136658947Y-98533521D03*
D15*
X136835571Y-98119632D03*
X135461829Y-101338768D03*
D14*
X135638453Y-100924879D03*
D16*
X136148700Y-99729200D03*
%TD*%
D17*
%TO.C,R6*%
X148205478Y-90008490D03*
X146409322Y-89685310D03*
%TD*%
D18*
%TO.C,D2*%
X159383290Y-97391996D03*
D19*
X159675959Y-97733821D03*
X157399641Y-95075179D03*
D18*
X157692310Y-95417004D03*
D20*
X158537800Y-96404500D03*
%TD*%
D21*
%TO.C,D5*%
X149458502Y-118105914D03*
D22*
X149015149Y-118182972D03*
X152463451Y-117583628D03*
D21*
X152020098Y-117660686D03*
D23*
X150739300Y-117883300D03*
%TD*%
D24*
%TO.C,D3*%
X161635859Y-105920354D03*
D25*
X161648895Y-106370166D03*
X161547505Y-102871634D03*
D24*
X161560541Y-103321446D03*
D26*
X161598200Y-104620900D03*
%TD*%
D27*
%TO.C,D6*%
X140754662Y-115270677D03*
D28*
X140369829Y-115037430D03*
X143362971Y-116851570D03*
D27*
X142978138Y-116618323D03*
D29*
X141866400Y-115944500D03*
%TD*%
D30*
%TO.C,D4*%
X157686834Y-113993818D03*
D31*
X157406149Y-114345551D03*
X159589251Y-111609849D03*
D30*
X159308566Y-111961582D03*
D32*
X158497700Y-112977700D03*
%TD*%
D33*
%TO.C,D7*%
X135636756Y-107430692D03*
D34*
X135509701Y-106999001D03*
X136497899Y-110356599D03*
D33*
X136370844Y-109924908D03*
D35*
X136003800Y-108677800D03*
%TD*%
D17*
%TO.C,R7*%
X155821878Y-91385690D03*
X154025722Y-91062510D03*
%TD*%
D36*
%TO.C,U2*%
X151957356Y-90361668D03*
X150382644Y-90078332D03*
%TD*%
D37*
%TO.C,D9*%
X142971544Y-92557232D03*
D38*
X143363474Y-92336120D03*
X140315126Y-94055880D03*
D37*
X140707056Y-93834768D03*
D39*
X141839300Y-93196000D03*
%TD*%
D40*
%TO.C,J1*%
X147874000Y-121873400D03*
D41*
X146646420Y-121637716D03*
X145418839Y-121402035D03*
X144191259Y-121166349D03*
X142963679Y-120930665D03*
%TD*%
%LPD*%
M02*
