%TF.GenerationSoftware,KiCad,Pcbnew,9.0.8+dfsg-1*%
%TF.CreationDate,2026-09-24T00:04:39+02:00*%
%TF.ProjectId,ir-ring,69722d72-696e-4672-9e6b-696361645f70,rev?*%
%TF.SameCoordinates,Original*%
%TF.FileFunction,Legend,Top*%
%TF.FilePolarity,Positive*%
%FSLAX46Y46*%
G04 Gerber Fmt 4.6, Leading zero omitted, Abs format (unit mm)*
G04 Created by KiCad (PCBNEW 9.0.8+dfsg-1) date 2026-09-24 00:04:39*
%MOMM*%
%LPD*%
G01*
G04 APERTURE LIST*
G04 Aperture macros list*
%AMRoundRect*
0 Rectangle with rounded corners*
0 $1 Rounding radius*
0 $2 $3 $4 $5 $6 $7 $8 $9 X,Y pos of 4 corners*
0 Add a 4 corners polygon primitive as box body*
4,1,4,$2,$3,$4,$5,$6,$7,$8,$9,$2,$3,0*
0 Add four circle primitives for the rounded corners*
1,1,$1+$1,$2,$3*
1,1,$1+$1,$4,$5*
1,1,$1+$1,$6,$7*
1,1,$1+$1,$8,$9*
0 Add four rect primitives between the rounded corners*
20,1,$1+$1,$2,$3,$4,$5,0*
20,1,$1+$1,$4,$5,$6,$7,0*
20,1,$1+$1,$6,$7,$8,$9,0*
20,1,$1+$1,$8,$9,$2,$3,0*%
%AMHorizOval*
0 Thick line with rounded ends*
0 $1 width*
0 $2 $3 position (X,Y) of the first rounded end (center of the circle)*
0 $4 $5 position (X,Y) of the second rounded end (center of the circle)*
0 Add line between two ends*
20,1,$1,$2,$3,$4,$5,0*
0 Add two circle primitives to create the rounded ends*
1,1,$1,$2,$3*
1,1,$1,$4,$5*%
%AMRotRect*
0 Rectangle, with rotation*
0 The origin of the aperture is its center*
0 $1 length*
0 $2 width*
0 $3 Rotation angle, in degrees counterclockwise*
0 Add horizontal line*
21,1,$1,$2,0,0,$3*%
G04 Aperture macros list end*
%ADD10C,0.120000*%
%ADD11C,0.210000*%
%ADD12RotRect,1.000000X1.450000X349.800000*%
%ADD13RotRect,1.000000X2.000000X209.430000*%
%ADD14RotRect,1.800000X2.000000X209.430000*%
%ADD15RoundRect,0.250000X0.338039X0.396403X-0.178663X0.489373X-0.338039X-0.396403X0.178663X-0.489373X0*%
%ADD16RotRect,1.000000X2.000000X9.860000*%
%ADD17RotRect,1.800000X2.000000X9.860000*%
%ADD18RotRect,1.000000X2.000000X246.890000*%
%ADD19RotRect,1.800000X2.000000X246.890000*%
%ADD20RotRect,1.000000X2.000000X286.400000*%
%ADD21RotRect,1.800000X2.000000X286.400000*%
%ADD22RotRect,1.000000X2.000000X91.660000*%
%ADD23RotRect,1.800000X2.000000X91.660000*%
%ADD24RotRect,1.000000X2.000000X328.780000*%
%ADD25RotRect,1.800000X2.000000X328.780000*%
%ADD26RotRect,1.000000X2.000000X51.410000*%
%ADD27RotRect,1.800000X2.000000X51.410000*%
%ADD28RotRect,1.000000X2.000000X130.570000*%
%ADD29RotRect,1.800000X2.000000X130.570000*%
%ADD30RoundRect,0.262500X0.330854X0.331056X-0.184730X0.430043X-0.330854X-0.331056X0.184730X-0.430043X0*%
%ADD31HorizOval,1.050000X0.023568X0.122758X-0.023568X-0.122758X0*%
G04 APERTURE END LIST*
D10*
X153429575Y-90918845D02*
X153385336Y-90949593D01*
X153385336Y-90949593D02*
X153266110Y-90966847D01*
X153266110Y-90966847D02*
X153191124Y-90953355D01*
X153191124Y-90953355D02*
X153085390Y-90895624D01*
X153085390Y-90895624D02*
X153023896Y-90807145D01*
X153023896Y-90807145D02*
X152999895Y-90725413D01*
X152999895Y-90725413D02*
X152989386Y-90568694D01*
X152989386Y-90568694D02*
X153009625Y-90456215D01*
X153009625Y-90456215D02*
X153074102Y-90312988D01*
X153074102Y-90312988D02*
X153125088Y-90244748D01*
X153125088Y-90244748D02*
X153213566Y-90183254D01*
X153213566Y-90183254D02*
X153332792Y-90165999D01*
X153332792Y-90165999D02*
X153407778Y-90179491D01*
X153407778Y-90179491D02*
X153513511Y-90237222D01*
X153513511Y-90237222D02*
X153544258Y-90281462D01*
%TO.C,U2*%
X150755721Y-91110715D02*
X151247818Y-91199257D01*
X151092182Y-89240743D02*
X151584279Y-89329285D01*
%TO.C,D9*%
X142732510Y-90912433D02*
X139422875Y-92779601D01*
X144255725Y-93612399D02*
X140946090Y-95479567D01*
D11*
X144622012Y-93464991D02*
G75*
G02*
X144412012Y-93464991I-105000J0D01*
G01*
X144412012Y-93464991D02*
G75*
G02*
X144622012Y-93464991I105000J0D01*
G01*
D10*
%TO.C,R7*%
X155017118Y-91987693D02*
X154570167Y-91907274D01*
X155277433Y-90540926D02*
X154830482Y-90460507D01*
%TO.C,R6*%
X147400718Y-90610493D02*
X146953767Y-90530074D01*
X147661033Y-89163726D02*
X147214082Y-89083307D01*
%TO.C,D5*%
X148601941Y-116681553D02*
X152345811Y-116030836D01*
X149132789Y-119735764D02*
X152876659Y-119085047D01*
D11*
X148411372Y-116732926D02*
G75*
G02*
X148201372Y-116732926I-105000J0D01*
G01*
X148201372Y-116732926D02*
G75*
G02*
X148411372Y-116732926I105000J0D01*
G01*
D10*
%TO.C,D8*%
X135468828Y-97373298D02*
X133977337Y-100868359D01*
X138320063Y-98590041D02*
X136828572Y-102085102D01*
D11*
X138542812Y-98314115D02*
G75*
G02*
X138332812Y-98314115I-105000J0D01*
G01*
X138332812Y-98314115D02*
G75*
G02*
X138542812Y-98314115I105000J0D01*
G01*
D10*
%TO.C,D7*%
X133980415Y-107292733D02*
X135053312Y-110938126D01*
X136954288Y-106417474D02*
X138027185Y-110062867D01*
D11*
X136974585Y-106129680D02*
G75*
G02*
X136764585Y-106129680I-105000J0D01*
G01*
X136764585Y-106129680D02*
G75*
G02*
X136974585Y-106129680I105000J0D01*
G01*
D10*
%TO.C,D3*%
X160103890Y-106565004D02*
X159993813Y-102766598D01*
X163202587Y-106475202D02*
X163092510Y-102676796D01*
D11*
X160217581Y-106864878D02*
G75*
G02*
X160007581Y-106864878I-105000J0D01*
G01*
X160007581Y-106864878D02*
G75*
G02*
X160217581Y-106864878I105000J0D01*
G01*
D10*
%TO.C,D6*%
X139438147Y-116285216D02*
X142687844Y-118254853D01*
X141044956Y-113634147D02*
X144294653Y-115603784D01*
D11*
X140893401Y-113478650D02*
G75*
G02*
X140683401Y-113478650I-105000J0D01*
G01*
X140683401Y-113478650D02*
G75*
G02*
X140893401Y-113478650I105000J0D01*
G01*
D10*
%TO.C,D4*%
X156101062Y-113495994D02*
X158471287Y-110525802D01*
X158524113Y-115429598D02*
X160894338Y-112459406D01*
D11*
X156018940Y-113730483D02*
G75*
G02*
X155808940Y-113730483I-105000J0D01*
G01*
X155808940Y-113730483D02*
G75*
G02*
X156018940Y-113730483I105000J0D01*
G01*
D10*
%TO.C,D2*%
X158596117Y-98855846D02*
X156124686Y-95969321D01*
X160950914Y-96839679D02*
X158479483Y-93953154D01*
D11*
X158896230Y-99083730D02*
G75*
G02*
X158686230Y-99083730I-105000J0D01*
G01*
X158686230Y-99083730D02*
G75*
G02*
X158896230Y-99083730I105000J0D01*
G01*
%TD*%
%LPC*%
D12*
%TO.C,U2*%
X151957356Y-90361668D03*
X150382644Y-90078332D03*
%TD*%
D13*
%TO.C,D9*%
X142971544Y-92557232D03*
D14*
X141055439Y-93638224D03*
%TD*%
D15*
%TO.C,R7*%
X155821878Y-91385690D03*
X154025722Y-91062510D03*
%TD*%
%TO.C,R6*%
X148205478Y-90008490D03*
X146409322Y-89685310D03*
%TD*%
D16*
%TO.C,D5*%
X149458502Y-118105914D03*
D17*
X151626006Y-117729183D03*
%TD*%
D18*
%TO.C,D8*%
X136658947Y-98533521D03*
D19*
X135795452Y-100556978D03*
%TD*%
D20*
%TO.C,D7*%
X135636756Y-107430692D03*
D21*
X136257907Y-109541183D03*
%TD*%
D22*
%TO.C,D3*%
X161635859Y-105920354D03*
D23*
X161572128Y-103721278D03*
%TD*%
D24*
%TO.C,D6*%
X140754662Y-115270677D03*
D25*
X142636065Y-116410993D03*
%TD*%
D26*
%TO.C,D4*%
X157686834Y-113993818D03*
D27*
X159059069Y-112274234D03*
%TD*%
D28*
%TO.C,D2*%
X159383290Y-97391996D03*
D29*
X157952461Y-95720849D03*
%TD*%
D30*
%TO.C,J1*%
X147874000Y-121873400D03*
D31*
X146646420Y-121637716D03*
X145418839Y-121402035D03*
X144191259Y-121166349D03*
X142963679Y-120930665D03*
%TD*%
%LPD*%
M02*
