%TF.GenerationSoftware,KiCad,Pcbnew,9.0.8+dfsg-1*%
%TF.CreationDate,2026-09-23T09:57:33+02:00*%
%TF.ProjectId,ir-ring,69722d72-696e-4672-9e6b-696361645f70,rev?*%
%TF.SameCoordinates,Original*%
%TF.FileFunction,Copper,L1,Top*%
%TF.FilePolarity,Positive*%
%FSLAX46Y46*%
G04 Gerber Fmt 4.6, Leading zero omitted, Abs format (unit mm)*
G04 Created by KiCad (PCBNEW 9.0.8+dfsg-1) date 2026-09-23 09:57:33*
%MOMM*%
%LPD*%
G01*
G04 APERTURE LIST*
G04 Aperture macros list*
%AMRoundRect*
0 Rectangle with rounded corners*
0 $1 Rounding radius*
0 $2 $3 $4 $5 $6 $7 $8 $9 X,Y pos of 4 corners*
0 Add a 4 corners polygon primitive as box body*
4,1,4,$2,$3,$4,$5,$6,$7,$8,$9,$2,$3,0*
0 Add four circle primitives for the rounded corners*
1,1,$1+$1,$2,$3*
1,1,$1+$1,$4,$5*
1,1,$1+$1,$6,$7*
1,1,$1+$1,$8,$9*
0 Add four rect primitives between the rounded corners*
20,1,$1+$1,$2,$3,$4,$5,0*
20,1,$1+$1,$4,$5,$6,$7,0*
20,1,$1+$1,$6,$7,$8,$9,0*
20,1,$1+$1,$8,$9,$2,$3,0*%
%AMHorizOval*
0 Thick line with rounded ends*
0 $1 width*
0 $2 $3 position (X,Y) of the first rounded end (center of the circle)*
0 $4 $5 position (X,Y) of the second rounded end (center of the circle)*
0 Add line between two ends*
20,1,$1,$2,$3,$4,$5,0*
0 Add two circle primitives to create the rounded ends*
1,1,$1,$2,$3*
1,1,$1,$4,$5*%
%AMRotRect*
0 Rectangle, with rotation*
0 The origin of the aperture is its center*
0 $1 length*
0 $2 width*
0 $3 Rotation angle, in degrees counterclockwise*
0 Add horizontal line*
21,1,$1,$2,0,0,$3*%
G04 Aperture macros list end*
%TA.AperFunction,SMDPad,CuDef*%
%ADD10RotRect,0.600000X3.300000X66.890000*%
%TD*%
%TA.AperFunction,SMDPad,CuDef*%
%ADD11RotRect,0.300000X0.600000X66.890000*%
%TD*%
%TA.AperFunction,ComponentPad*%
%ADD12C,0.600000*%
%TD*%
%TA.AperFunction,SMDPad,CuDef*%
%ADD13RotRect,1.000000X3.300000X66.890000*%
%TD*%
%TA.AperFunction,SMDPad,CuDef*%
%ADD14RoundRect,0.250000X0.338039X0.396403X-0.178663X0.489373X-0.338039X-0.396403X0.178663X-0.489373X0*%
%TD*%
%TA.AperFunction,SMDPad,CuDef*%
%ADD15RotRect,0.600000X3.300000X310.570000*%
%TD*%
%TA.AperFunction,SMDPad,CuDef*%
%ADD16RotRect,0.300000X0.600000X310.570000*%
%TD*%
%TA.AperFunction,SMDPad,CuDef*%
%ADD17RotRect,1.000000X3.300000X310.570000*%
%TD*%
%TA.AperFunction,SMDPad,CuDef*%
%ADD18RotRect,0.600000X3.300000X189.860000*%
%TD*%
%TA.AperFunction,SMDPad,CuDef*%
%ADD19RotRect,0.300000X0.600000X189.860000*%
%TD*%
%TA.AperFunction,SMDPad,CuDef*%
%ADD20RotRect,1.000000X3.300000X189.860000*%
%TD*%
%TA.AperFunction,SMDPad,CuDef*%
%ADD21RotRect,0.600000X3.300000X271.660000*%
%TD*%
%TA.AperFunction,SMDPad,CuDef*%
%ADD22RotRect,0.300000X0.600000X271.660000*%
%TD*%
%TA.AperFunction,SMDPad,CuDef*%
%ADD23RotRect,1.000000X3.300000X271.660000*%
%TD*%
%TA.AperFunction,SMDPad,CuDef*%
%ADD24RotRect,0.600000X3.300000X148.780000*%
%TD*%
%TA.AperFunction,SMDPad,CuDef*%
%ADD25RotRect,0.300000X0.600000X148.780000*%
%TD*%
%TA.AperFunction,SMDPad,CuDef*%
%ADD26RotRect,1.000000X3.300000X148.780000*%
%TD*%
%TA.AperFunction,SMDPad,CuDef*%
%ADD27RotRect,0.600000X3.300000X231.410000*%
%TD*%
%TA.AperFunction,SMDPad,CuDef*%
%ADD28RotRect,0.300000X0.600000X231.410000*%
%TD*%
%TA.AperFunction,SMDPad,CuDef*%
%ADD29RotRect,1.000000X3.300000X231.410000*%
%TD*%
%TA.AperFunction,SMDPad,CuDef*%
%ADD30RotRect,0.600000X3.300000X106.400000*%
%TD*%
%TA.AperFunction,SMDPad,CuDef*%
%ADD31RotRect,0.300000X0.600000X106.400000*%
%TD*%
%TA.AperFunction,SMDPad,CuDef*%
%ADD32RotRect,1.000000X3.300000X106.400000*%
%TD*%
%TA.AperFunction,SMDPad,CuDef*%
%ADD33RotRect,1.000000X1.450000X349.800000*%
%TD*%
%TA.AperFunction,SMDPad,CuDef*%
%ADD34RotRect,0.600000X3.300000X29.430000*%
%TD*%
%TA.AperFunction,SMDPad,CuDef*%
%ADD35RotRect,0.300000X0.600000X29.430000*%
%TD*%
%TA.AperFunction,SMDPad,CuDef*%
%ADD36RotRect,1.000000X3.300000X29.430000*%
%TD*%
%TA.AperFunction,ComponentPad*%
%ADD37RoundRect,0.262500X0.330854X0.331056X-0.184730X0.430043X-0.330854X-0.331056X0.184730X-0.430043X0*%
%TD*%
%TA.AperFunction,ComponentPad*%
%ADD38HorizOval,1.050000X0.023568X0.122758X-0.023568X-0.122758X0*%
%TD*%
%TA.AperFunction,ViaPad*%
%ADD39C,0.600000*%
%TD*%
%TA.AperFunction,Conductor*%
%ADD40C,0.500000*%
%TD*%
%TA.AperFunction,Conductor*%
%ADD41C,0.200000*%
%TD*%
%TA.AperFunction,Conductor*%
%ADD42C,0.300000*%
%TD*%
%TA.AperFunction,Conductor*%
%ADD43C,0.225000*%
%TD*%
G04 APERTURE END LIST*
D10*
%TO.P,D8,1*%
%TO.N,/STR7*%
X136658947Y-98533521D03*
D11*
X136835571Y-98119632D03*
%TO.P,D8,2*%
%TO.N,/STR6*%
X135461829Y-101338768D03*
D10*
X135638453Y-100924879D03*
D12*
X135228947Y-99336702D03*
X136148700Y-99729200D03*
D13*
X136148700Y-99729200D03*
D12*
X137068453Y-100121698D03*
%TD*%
D14*
%TO.P,R6,1*%
%TO.N,/LDR*%
X148205478Y-90008490D03*
%TO.P,R6,2*%
%TO.N,GND*%
X146409322Y-89685310D03*
%TD*%
D15*
%TO.P,D2,1*%
%TO.N,/STR1*%
X159383290Y-97391996D03*
D16*
X159675959Y-97733821D03*
%TO.P,D2,2*%
%TO.N,/VOUT*%
X157399641Y-95075179D03*
D15*
X157692310Y-95417004D03*
D12*
X159297412Y-95754123D03*
X158537800Y-96404500D03*
D17*
X158537800Y-96404500D03*
D12*
X157778188Y-97054877D03*
%TD*%
D18*
%TO.P,D5,1*%
%TO.N,/STR4*%
X149458502Y-118105914D03*
D19*
X149015149Y-118182972D03*
%TO.P,D5,2*%
%TO.N,/STR3*%
X152463451Y-117583628D03*
D18*
X152020098Y-117660686D03*
D12*
X150910541Y-118868529D03*
X150739300Y-117883300D03*
D20*
X150739300Y-117883300D03*
D12*
X150568059Y-116898071D03*
%TD*%
D21*
%TO.P,D3,1*%
%TO.N,/STR2*%
X161635859Y-105920354D03*
D22*
X161648895Y-106370166D03*
%TO.P,D3,2*%
%TO.N,/STR1*%
X161547505Y-102871634D03*
D21*
X161560541Y-103321446D03*
D12*
X162597780Y-104591932D03*
X161598200Y-104620900D03*
D23*
X161598200Y-104620900D03*
D12*
X160598620Y-104649868D03*
%TD*%
D24*
%TO.P,D6,1*%
%TO.N,/STR5*%
X140754662Y-115270677D03*
D25*
X140369829Y-115037430D03*
%TO.P,D6,2*%
%TO.N,/STR4*%
X143362971Y-116851570D03*
D24*
X142978138Y-116618323D03*
D12*
X142384726Y-115089317D03*
X141866400Y-115944500D03*
D26*
X141866400Y-115944500D03*
D12*
X141348074Y-116799683D03*
%TD*%
D27*
%TO.P,D4,1*%
%TO.N,/STR3*%
X157686834Y-113993818D03*
D28*
X157406149Y-114345551D03*
%TO.P,D4,2*%
%TO.N,/STR2*%
X159589251Y-111609849D03*
D27*
X159308566Y-111961582D03*
D12*
X159279329Y-113601443D03*
X158497700Y-112977700D03*
D29*
X158497700Y-112977700D03*
D12*
X157716071Y-112353957D03*
%TD*%
D30*
%TO.P,D7,1*%
%TO.N,/STR6*%
X135636756Y-107430692D03*
D31*
X135509701Y-106999001D03*
%TO.P,D7,2*%
%TO.N,/STR5*%
X136497899Y-110356599D03*
D30*
X136370844Y-109924908D03*
D12*
X135044486Y-108960141D03*
X136003800Y-108677800D03*
D32*
X136003800Y-108677800D03*
D12*
X136963114Y-108395459D03*
%TD*%
D14*
%TO.P,R7,1*%
%TO.N,+5V*%
X155821878Y-91385690D03*
%TO.P,R7,2*%
%TO.N,/U2_C*%
X154025722Y-91062510D03*
%TD*%
D33*
%TO.P,U2,1*%
%TO.N,/U2_C*%
X151957356Y-90361668D03*
%TO.P,U2,2*%
%TO.N,/LDR*%
X150382644Y-90078332D03*
%TD*%
D34*
%TO.P,D9,1*%
%TO.N,/FB*%
X142971544Y-92557232D03*
D35*
X143363474Y-92336120D03*
%TO.P,D9,2*%
%TO.N,/STR7*%
X140315126Y-94055880D03*
D34*
X140707056Y-93834768D03*
D12*
X141347940Y-92325043D03*
X141839300Y-93196000D03*
D36*
X141839300Y-93196000D03*
D12*
X142330660Y-94066957D03*
%TD*%
D37*
%TO.P,J1,1*%
%TO.N,/WL_EN*%
X147874000Y-121873400D03*
D38*
%TO.P,J1,2*%
%TO.N,/IL_EN*%
X146646420Y-121637716D03*
%TO.P,J1,3*%
%TO.N,/LDR*%
X145418839Y-121402035D03*
%TO.P,J1,4*%
%TO.N,GND*%
X144191259Y-121166349D03*
%TO.P,J1,5*%
%TO.N,+5V*%
X142963679Y-120930665D03*
%TD*%
D39*
%TO.N,+5V*%
X156460000Y-88366700D03*
X148206600Y-88345000D03*
%TO.N,GND*%
X162962000Y-113349000D03*
X147995000Y-87545700D03*
X166424000Y-101840000D03*
X133391000Y-96966500D03*
X133147000Y-103042000D03*
X130369000Y-106586000D03*
X155277000Y-87664800D03*
X138061000Y-119909000D03*
X151660000Y-122924000D03*
X166171000Y-106546000D03*
X163409000Y-94560900D03*
X148418000Y-92089400D03*
X153539000Y-86754900D03*
X133609000Y-98365000D03*
X135647000Y-112421000D03*
X150950000Y-86340300D03*
X138588000Y-89736200D03*
%TO.N,/LDR*%
X142405000Y-113697500D03*
%TO.N,/WL_EN*%
X139984600Y-111801600D03*
%TO.N,/VOUT*%
X149496000Y-91406400D03*
X156293000Y-95627700D03*
X151224000Y-94158300D03*
%TO.N,/FB*%
X140855800Y-90543100D03*
X142666800Y-89998900D03*
%TD*%
D40*
%TO.N,+5V*%
X148328200Y-88466600D02*
X155821900Y-88466600D01*
X155821900Y-88466600D02*
X156360100Y-88466600D01*
X148206600Y-88345000D02*
X148328200Y-88466600D01*
X155821900Y-88466600D02*
X155821900Y-91385700D01*
X156360100Y-88466600D02*
X156460000Y-88366700D01*
D41*
%TO.N,/LDR*%
X150382600Y-90078300D02*
X149446600Y-89909900D01*
X149348000Y-90008500D02*
X148205500Y-90008500D01*
X139409000Y-108769700D02*
X139409000Y-99400000D01*
X139409000Y-99400000D02*
X148205500Y-90603500D01*
X148205500Y-90603500D02*
X148205500Y-90008500D01*
X149446600Y-89909900D02*
X149348000Y-90008500D01*
X142405000Y-113697500D02*
X142405000Y-111765700D01*
X142405000Y-111765700D02*
X139409000Y-108769700D01*
%TO.N,/WL_EN*%
X142209200Y-119511300D02*
X139299500Y-116601600D01*
X147874000Y-121512600D02*
X145872700Y-119511300D01*
X147874000Y-121873400D02*
X147874000Y-121512600D01*
X139299500Y-112486700D02*
X139984600Y-111801600D01*
X145872700Y-119511300D02*
X142209200Y-119511300D01*
X139299500Y-116601600D02*
X139299500Y-112486700D01*
D40*
%TO.N,/VOUT*%
X156293000Y-95627700D02*
X157400000Y-95075200D01*
D42*
X157692000Y-95417000D02*
X158538000Y-96404500D01*
X149496000Y-91406400D02*
X151224000Y-94158300D01*
D40*
X151224000Y-94158300D02*
X156293000Y-95627700D01*
D42*
%TO.N,/FB*%
X141917600Y-90611700D02*
X140924400Y-90611700D01*
X142971500Y-92557200D02*
X143142400Y-92557200D01*
X140924400Y-90611700D02*
X140855800Y-90543100D01*
X143142400Y-92557200D02*
X143363500Y-92336100D01*
X141917600Y-90611700D02*
X141917600Y-90689100D01*
X142054000Y-90611700D02*
X142666800Y-89998900D01*
X142971500Y-92557200D02*
X141917600Y-90689100D01*
X141917600Y-90611700D02*
X142054000Y-90611700D01*
D41*
%TO.N,/U2_C*%
X153493300Y-90530100D02*
X154025700Y-91062500D01*
X152893400Y-90530100D02*
X153493300Y-90530100D01*
X151957400Y-90361700D02*
X152893400Y-90530100D01*
D42*
%TO.N,/STR1*%
X160912400Y-102236500D02*
X159676000Y-101000100D01*
X159383300Y-97392000D02*
X159676000Y-97684700D01*
X160912400Y-102890000D02*
X160912400Y-102236500D01*
X160912400Y-104336100D02*
X160912400Y-102890000D01*
X159676000Y-98662100D02*
X159175900Y-98162000D01*
X160598600Y-104649900D02*
X160912400Y-104336100D01*
X159676000Y-101000100D02*
X159676000Y-98662100D01*
X159676000Y-97684700D02*
X159676000Y-97733800D01*
X161547500Y-102871600D02*
X160912400Y-102890000D01*
X161561000Y-103321000D02*
X161598000Y-104621000D01*
X159676000Y-97733800D02*
X159175900Y-98162000D01*
%TO.N,/STR2*%
X161635900Y-105920400D02*
X161648900Y-105933400D01*
X160369300Y-111778000D02*
X160369300Y-111004200D01*
X159308600Y-111890500D02*
X159308600Y-111961600D01*
X159308600Y-111961600D02*
X159309000Y-111962000D01*
X160116700Y-112030600D02*
X160369300Y-111778000D01*
X161648900Y-105933400D02*
X161648900Y-106370200D01*
X161648900Y-106370200D02*
X161013800Y-106388600D01*
X159309000Y-111962000D02*
X158498000Y-112978000D01*
X161013800Y-110359700D02*
X161013800Y-106388600D01*
X159589300Y-111609800D02*
X159308600Y-111890500D01*
X159589300Y-111609800D02*
X160116700Y-112030600D01*
X160369300Y-111004200D02*
X161013800Y-110359700D01*
X158497700Y-112977700D02*
X158498000Y-112978000D01*
%TO.N,/STR3*%
X152774300Y-118277000D02*
X156626000Y-114425300D01*
X152584000Y-118277000D02*
X152774300Y-118277000D01*
X152020000Y-117661000D02*
X150739000Y-117883000D01*
X156626000Y-114177500D02*
X156878700Y-113924800D01*
X157406100Y-114345600D02*
X156878700Y-113924800D01*
X152463500Y-117583600D02*
X152584000Y-118277000D01*
X157406100Y-114274500D02*
X157406100Y-114345600D01*
X152020100Y-117660700D02*
X152386400Y-117660700D01*
X152386400Y-117660700D02*
X152463500Y-117583600D01*
X156626000Y-114425300D02*
X156626000Y-114177500D01*
X157686800Y-113993800D02*
X157406100Y-114274500D01*
%TO.N,/STR4*%
X142978100Y-116618300D02*
X143129700Y-116618300D01*
X147683700Y-116851600D02*
X148321700Y-117489600D01*
X148321700Y-117489600D02*
X148894600Y-117489600D01*
X149458500Y-118105900D02*
X149092200Y-118105900D01*
X149015100Y-118183000D02*
X148894600Y-117489600D01*
X144375700Y-116851600D02*
X147683700Y-116851600D01*
X149092200Y-118105900D02*
X149015100Y-118183000D01*
X143363000Y-116851600D02*
X143745100Y-116221000D01*
X143745100Y-116221000D02*
X144375700Y-116851600D01*
X143129700Y-116618300D02*
X143363000Y-116851600D01*
X142978000Y-116618000D02*
X141866000Y-115944000D01*
%TO.N,/STR5*%
X137041200Y-108395500D02*
X136963100Y-108395500D01*
X138418400Y-109772700D02*
X137041200Y-108395500D01*
X140607900Y-111542500D02*
X138838100Y-109772700D01*
X140369800Y-115037400D02*
X140752100Y-114406700D01*
X140754700Y-115270700D02*
X140603100Y-115270700D01*
X140607900Y-114262500D02*
X140607900Y-111542500D01*
X136371000Y-109925000D02*
X136004000Y-108678000D01*
X138838100Y-109772700D02*
X138418400Y-109772700D01*
X140752100Y-114406700D02*
X140607900Y-114262500D01*
X140603100Y-115270700D02*
X140369800Y-115037400D01*
%TO.N,/STR6*%
X135461800Y-101338800D02*
X136208100Y-101657200D01*
X135509700Y-106999000D02*
X136239200Y-106784300D01*
X136208000Y-101657300D02*
X136208100Y-101657200D01*
X137681800Y-101796800D02*
X137295700Y-102182900D01*
D43*
X135636800Y-107412100D02*
X135509700Y-107285000D01*
X135636800Y-107430700D02*
X135636800Y-107412100D01*
D42*
X137295700Y-102182900D02*
X136239200Y-102182900D01*
X136239200Y-102182900D02*
X136239200Y-106784300D01*
X136208000Y-102151700D02*
X136208000Y-101657300D01*
X135638000Y-100925000D02*
X136149000Y-99729200D01*
X135638500Y-100924900D02*
X137681800Y-101796800D01*
X135509700Y-107285000D02*
X135509700Y-106999000D01*
X136239200Y-102182900D02*
X136208000Y-102151700D01*
%TO.N,/STR7*%
X138370000Y-95919600D02*
X139316000Y-94963500D01*
X139316000Y-94963500D02*
X140315000Y-94055900D01*
X137522000Y-96964600D02*
X138370000Y-95919600D01*
X140707000Y-93834800D02*
X141839000Y-93196000D01*
X136836000Y-98119600D02*
X137522000Y-96964600D01*
%TD*%
%TA.AperFunction,Conductor*%
%TO.N,GND*%
G36*
X149583713Y-90298382D02*
G01*
X149614308Y-90351368D01*
X149614908Y-90389488D01*
X149561331Y-90687252D01*
X149561330Y-90687270D01*
X149562423Y-90746875D01*
X149562424Y-90746881D01*
X149571343Y-90767344D01*
X149577261Y-90828243D01*
X149546253Y-90880989D01*
X149490164Y-90905436D01*
X149480589Y-90905900D01*
X149430108Y-90905900D01*
X149358706Y-90925032D01*
X149302809Y-90940009D01*
X149188690Y-91005896D01*
X149095496Y-91099090D01*
X149029611Y-91213207D01*
X149029609Y-91213208D01*
X149008437Y-91292227D01*
X148995500Y-91340508D01*
X148995500Y-91472292D01*
X149010473Y-91528171D01*
X149029609Y-91599590D01*
X149095496Y-91713709D01*
X149095498Y-91713711D01*
X149095500Y-91713714D01*
X149188686Y-91806900D01*
X149302814Y-91872792D01*
X149352044Y-91885982D01*
X149403357Y-91919306D01*
X149410261Y-91928963D01*
X150714074Y-94005331D01*
X150729007Y-94064666D01*
X150725861Y-94083595D01*
X150723500Y-94092406D01*
X150723500Y-94092408D01*
X150723500Y-94224192D01*
X150729951Y-94248267D01*
X150757609Y-94351490D01*
X150823496Y-94465609D01*
X150823498Y-94465611D01*
X150823500Y-94465614D01*
X150916686Y-94558800D01*
X150916688Y-94558801D01*
X150916690Y-94558803D01*
X151030810Y-94624690D01*
X151030808Y-94624690D01*
X151030812Y-94624691D01*
X151030814Y-94624692D01*
X151158108Y-94658800D01*
X151158110Y-94658800D01*
X151289894Y-94658800D01*
X151296328Y-94657953D01*
X151296614Y-94660129D01*
X151338553Y-94660552D01*
X152019340Y-94857899D01*
X155932319Y-95992192D01*
X155962043Y-96006536D01*
X155968855Y-96011369D01*
X155985686Y-96028200D01*
X156022681Y-96049559D01*
X156026454Y-96052236D01*
X156042085Y-96073249D01*
X156059608Y-96092711D01*
X156060109Y-96097480D01*
X156062972Y-96101329D01*
X156063266Y-96127517D01*
X156066004Y-96153561D01*
X156063689Y-96160120D01*
X156064212Y-96160267D01*
X156063657Y-96162244D01*
X156063660Y-96162510D01*
X156063531Y-96162690D01*
X156040021Y-96246449D01*
X156040021Y-96246451D01*
X156040021Y-96246452D01*
X156046646Y-96301855D01*
X156049492Y-96325651D01*
X156078691Y-96377641D01*
X156078695Y-96377646D01*
X156494600Y-96863405D01*
X156494602Y-96863407D01*
X156494605Y-96863410D01*
X156541477Y-96900269D01*
X156618273Y-96921826D01*
X156659617Y-96916881D01*
X156719639Y-96928745D01*
X156761227Y-96973624D01*
X156768492Y-97034377D01*
X156766688Y-97041935D01*
X156756237Y-97079168D01*
X156755435Y-97082025D01*
X156764907Y-97161225D01*
X156784009Y-97195237D01*
X156794106Y-97213215D01*
X156794110Y-97213220D01*
X156933806Y-97376379D01*
X157470170Y-98002829D01*
X157517043Y-98039687D01*
X157593838Y-98061244D01*
X157635184Y-98056299D01*
X157695206Y-98068163D01*
X157736793Y-98113043D01*
X157744058Y-98173795D01*
X157742254Y-98181352D01*
X157731001Y-98221443D01*
X157731001Y-98221444D01*
X157735321Y-98257572D01*
X157740472Y-98300643D01*
X157769671Y-98352633D01*
X157769675Y-98352638D01*
X158185580Y-98838397D01*
X158185582Y-98838399D01*
X158185585Y-98838402D01*
X158232457Y-98875261D01*
X158309253Y-98896818D01*
X158388453Y-98887346D01*
X158440443Y-98858147D01*
X158465064Y-98837067D01*
X158552494Y-98762209D01*
X158875056Y-98486031D01*
X158931555Y-98462548D01*
X158991067Y-98476758D01*
X159009447Y-98491229D01*
X159296504Y-98778286D01*
X159324281Y-98832803D01*
X159325500Y-98848290D01*
X159325500Y-101046243D01*
X159341286Y-101105161D01*
X159349384Y-101135384D01*
X159349385Y-101135386D01*
X159349386Y-101135388D01*
X159395530Y-101215312D01*
X160532905Y-102352687D01*
X160560681Y-102407202D01*
X160561900Y-102422689D01*
X160561900Y-102753504D01*
X160542993Y-102811695D01*
X160493493Y-102847659D01*
X160465768Y-102852462D01*
X159877001Y-102869524D01*
X159818874Y-102882848D01*
X159753863Y-102929066D01*
X159711488Y-102996644D01*
X159701554Y-103055435D01*
X159720078Y-103694659D01*
X159720080Y-103694666D01*
X159733402Y-103752787D01*
X159779620Y-103817797D01*
X159814895Y-103839917D01*
X159854150Y-103886847D01*
X159858323Y-103947890D01*
X159825818Y-103999728D01*
X159819665Y-104004477D01*
X159785728Y-104028603D01*
X159743353Y-104096182D01*
X159733419Y-104154973D01*
X159763531Y-105194029D01*
X159763533Y-105194036D01*
X159776855Y-105252157D01*
X159799149Y-105283515D01*
X159813494Y-105303694D01*
X159823073Y-105317167D01*
X159858348Y-105339287D01*
X159897603Y-105386217D01*
X159901776Y-105447260D01*
X159869271Y-105499098D01*
X159863118Y-105503847D01*
X159829181Y-105527973D01*
X159786806Y-105595552D01*
X159776872Y-105654343D01*
X159795396Y-106293567D01*
X159795398Y-106293574D01*
X159808720Y-106351695D01*
X159854938Y-106416705D01*
X159922515Y-106459080D01*
X159981310Y-106469014D01*
X160561432Y-106452201D01*
X160620146Y-106469414D01*
X160657529Y-106517852D01*
X160663300Y-106551159D01*
X160663300Y-110173510D01*
X160644393Y-110231701D01*
X160634304Y-110243514D01*
X160088829Y-110788989D01*
X160059091Y-110840495D01*
X160059092Y-110840496D01*
X160042686Y-110868910D01*
X160026762Y-110928341D01*
X160022282Y-110945063D01*
X160018800Y-110958057D01*
X160018800Y-111298453D01*
X160013284Y-111315428D01*
X160012480Y-111333259D01*
X160004063Y-111343808D01*
X159999893Y-111356644D01*
X159985452Y-111367135D01*
X159974321Y-111381088D01*
X159961311Y-111384675D01*
X159950393Y-111392608D01*
X159932542Y-111392608D01*
X159915337Y-111397352D01*
X159902705Y-111392608D01*
X159889207Y-111392608D01*
X159858059Y-111375842D01*
X159827577Y-111351521D01*
X159819345Y-111344163D01*
X159804512Y-111329330D01*
X159804509Y-111329328D01*
X159804508Y-111329327D01*
X159793763Y-111323123D01*
X159781782Y-111314981D01*
X159781554Y-111314801D01*
X159771831Y-111307043D01*
X159771682Y-111306978D01*
X159766603Y-111302953D01*
X159766571Y-111302905D01*
X159766337Y-111302742D01*
X159557950Y-111136447D01*
X159557947Y-111136446D01*
X159504984Y-111109063D01*
X159504981Y-111109062D01*
X159425501Y-111102331D01*
X159349497Y-111126528D01*
X159303926Y-111164984D01*
X159303921Y-111164989D01*
X159291292Y-111180815D01*
X159240216Y-111214503D01*
X159179093Y-111211735D01*
X159152164Y-111196442D01*
X158315626Y-110528883D01*
X158315624Y-110528882D01*
X158262658Y-110501497D01*
X158262659Y-110501497D01*
X158183178Y-110494767D01*
X158107174Y-110518964D01*
X158107173Y-110518965D01*
X158061600Y-110557422D01*
X157662721Y-111057268D01*
X157662719Y-111057271D01*
X157635336Y-111110234D01*
X157635335Y-111110237D01*
X157628604Y-111189716D01*
X157641236Y-111229392D01*
X157640872Y-111290577D01*
X157604615Y-111339862D01*
X157546313Y-111358423D01*
X157538550Y-111358072D01*
X157497060Y-111354559D01*
X157421056Y-111378756D01*
X157421055Y-111378757D01*
X157375482Y-111417214D01*
X156727104Y-112229716D01*
X156699720Y-112282679D01*
X156692990Y-112362160D01*
X156700924Y-112387080D01*
X156705433Y-112401244D01*
X156705622Y-112401836D01*
X156705258Y-112463021D01*
X156669001Y-112512306D01*
X156610699Y-112530867D01*
X156602936Y-112530516D01*
X156561446Y-112527003D01*
X156485442Y-112551200D01*
X156485441Y-112551201D01*
X156439868Y-112589658D01*
X156040989Y-113089504D01*
X156040987Y-113089507D01*
X156013604Y-113142470D01*
X156013603Y-113142473D01*
X156006872Y-113221952D01*
X156029512Y-113293065D01*
X156031070Y-113297958D01*
X156069526Y-113343530D01*
X156480607Y-113671573D01*
X156514297Y-113722646D01*
X156511532Y-113783769D01*
X156488860Y-113818956D01*
X156345529Y-113962288D01*
X156306013Y-114030733D01*
X156306013Y-114030734D01*
X156304717Y-114032979D01*
X156299386Y-114042211D01*
X156275500Y-114131357D01*
X156275500Y-114239109D01*
X156256593Y-114297300D01*
X156246504Y-114309113D01*
X152978393Y-117577223D01*
X152968967Y-117582025D01*
X152962311Y-117590246D01*
X152942318Y-117595603D01*
X152923876Y-117605000D01*
X152913427Y-117603345D01*
X152903211Y-117606083D01*
X152883890Y-117598667D01*
X152863444Y-117595429D01*
X152855962Y-117587947D01*
X152846089Y-117584158D01*
X152834816Y-117566801D01*
X152820179Y-117552164D01*
X152812763Y-117532845D01*
X152810687Y-117525097D01*
X152807279Y-117512379D01*
X152805373Y-117503732D01*
X152800924Y-117478126D01*
X152800921Y-117478121D01*
X152799874Y-117472091D01*
X152799680Y-117471294D01*
X152754020Y-117208583D01*
X152732544Y-117152956D01*
X152677527Y-117095203D01*
X152604597Y-117062899D01*
X152544983Y-117061452D01*
X152525035Y-117064920D01*
X152464466Y-117056256D01*
X152420558Y-117013645D01*
X152410545Y-116984335D01*
X152407841Y-116968775D01*
X152227275Y-115929895D01*
X152205799Y-115874268D01*
X152150782Y-115816515D01*
X152077852Y-115784212D01*
X152018241Y-115782765D01*
X152018240Y-115782765D01*
X151388190Y-115892274D01*
X151332565Y-115913748D01*
X151274810Y-115968767D01*
X151257946Y-116006839D01*
X151217091Y-116052386D01*
X151157266Y-116065220D01*
X151101324Y-116040439D01*
X151095758Y-116035038D01*
X151067030Y-116004881D01*
X150994100Y-115972578D01*
X150934489Y-115971131D01*
X150934488Y-115971131D01*
X149910346Y-116149136D01*
X149854719Y-116170612D01*
X149796967Y-116225628D01*
X149796965Y-116225631D01*
X149780103Y-116263701D01*
X149739249Y-116309248D01*
X149679425Y-116322083D01*
X149623482Y-116297303D01*
X149617915Y-116291900D01*
X149589186Y-116261743D01*
X149516256Y-116229440D01*
X149456645Y-116227993D01*
X149456644Y-116227993D01*
X148826594Y-116337502D01*
X148770969Y-116358976D01*
X148713215Y-116413994D01*
X148684161Y-116479588D01*
X148680911Y-116486925D01*
X148679465Y-116546536D01*
X148731488Y-116845849D01*
X148762304Y-117023147D01*
X148758921Y-117046797D01*
X148758921Y-117070693D01*
X148754664Y-117076550D01*
X148753640Y-117083716D01*
X148737003Y-117100859D01*
X148722957Y-117120193D01*
X148716070Y-117122430D01*
X148711030Y-117127625D01*
X148664766Y-117139100D01*
X148507889Y-117139100D01*
X148449698Y-117120193D01*
X148437885Y-117110104D01*
X148186724Y-116858943D01*
X147898912Y-116571130D01*
X147818988Y-116524986D01*
X147813860Y-116523612D01*
X147813854Y-116523610D01*
X147778346Y-116514096D01*
X147729844Y-116501100D01*
X147729842Y-116501100D01*
X144561890Y-116501100D01*
X144503699Y-116482193D01*
X144491886Y-116472104D01*
X144023869Y-116004087D01*
X143996092Y-115949570D01*
X144005663Y-115889138D01*
X144009210Y-115882769D01*
X144271630Y-115449804D01*
X144291995Y-115393761D01*
X144288474Y-115314075D01*
X144271467Y-115277652D01*
X144254729Y-115241804D01*
X144254727Y-115241803D01*
X144254727Y-115241801D01*
X144210743Y-115201540D01*
X143681805Y-114880952D01*
X143663861Y-114870076D01*
X143663860Y-114870075D01*
X143663856Y-114870073D01*
X143659175Y-114868372D01*
X143607811Y-114849707D01*
X143528128Y-114853228D01*
X143490396Y-114870846D01*
X143429671Y-114878332D01*
X143376142Y-114848695D01*
X143350257Y-114793255D01*
X143349611Y-114785546D01*
X143347772Y-114743917D01*
X143314025Y-114671643D01*
X143270041Y-114631382D01*
X142690350Y-114280031D01*
X142650387Y-114233701D01*
X142645289Y-114172729D01*
X142677003Y-114120404D01*
X142692160Y-114109635D01*
X142712314Y-114098000D01*
X142805500Y-114004814D01*
X142814398Y-113989402D01*
X142871390Y-113890690D01*
X142871390Y-113890688D01*
X142871392Y-113890686D01*
X142905500Y-113763392D01*
X142905500Y-113631608D01*
X142871392Y-113504314D01*
X142871390Y-113504311D01*
X142871390Y-113504309D01*
X142805503Y-113390190D01*
X142805501Y-113390188D01*
X142805500Y-113390186D01*
X142734494Y-113319180D01*
X142706719Y-113264666D01*
X142705500Y-113249179D01*
X142705500Y-111820398D01*
X142724407Y-111762207D01*
X142773907Y-111726243D01*
X142835093Y-111726243D01*
X142869775Y-111745966D01*
X143141064Y-111983881D01*
X143141070Y-111983885D01*
X143141074Y-111983889D01*
X143141080Y-111983893D01*
X143141084Y-111983896D01*
X144098493Y-112623616D01*
X144098499Y-112623620D01*
X145131231Y-113132908D01*
X145131233Y-113132908D01*
X145131238Y-113132911D01*
X145811427Y-113363804D01*
X146221609Y-113503043D01*
X146221611Y-113503043D01*
X146221616Y-113503045D01*
X147350978Y-113727689D01*
X148500000Y-113803000D01*
X149649022Y-113727689D01*
X150778384Y-113503045D01*
X151868762Y-113132911D01*
X152901500Y-112623621D01*
X153858926Y-111983889D01*
X154724660Y-111224660D01*
X155483889Y-110358926D01*
X156123621Y-109401499D01*
X156632911Y-108368762D01*
X157003045Y-107278384D01*
X157227689Y-106149022D01*
X157303000Y-105000000D01*
X157298384Y-104929581D01*
X157248859Y-104173966D01*
X157227689Y-103850978D01*
X157003045Y-102721616D01*
X157000539Y-102714234D01*
X156825247Y-102197842D01*
X156632911Y-101631238D01*
X156632660Y-101630730D01*
X156123620Y-100598498D01*
X156123616Y-100598492D01*
X155483896Y-99641084D01*
X155483893Y-99641080D01*
X155483889Y-99641074D01*
X155483885Y-99641070D01*
X155483881Y-99641064D01*
X154724668Y-98775349D01*
X154724667Y-98775348D01*
X154724660Y-98775340D01*
X154710379Y-98762816D01*
X153858935Y-98016118D01*
X153858915Y-98016103D01*
X152901507Y-97376383D01*
X152901501Y-97376379D01*
X151868768Y-96867091D01*
X150778390Y-96496956D01*
X149649019Y-96272310D01*
X148500000Y-96197000D01*
X147350980Y-96272310D01*
X146221609Y-96496956D01*
X145131231Y-96867091D01*
X144098498Y-97376379D01*
X144098492Y-97376383D01*
X143141084Y-98016103D01*
X143141064Y-98016118D01*
X142275349Y-98775331D01*
X142275331Y-98775349D01*
X141516118Y-99641064D01*
X141516103Y-99641084D01*
X140876383Y-100598493D01*
X140876379Y-100598499D01*
X140367091Y-101631231D01*
X139996956Y-102721609D01*
X139953815Y-102938491D01*
X139909440Y-103161587D01*
X139905598Y-103180901D01*
X139875701Y-103234285D01*
X139820136Y-103259901D01*
X139760126Y-103247964D01*
X139718594Y-103203034D01*
X139709500Y-103161587D01*
X139709500Y-99565478D01*
X139728407Y-99507287D01*
X139738490Y-99495480D01*
X148257906Y-90976063D01*
X148312421Y-90948288D01*
X148345440Y-90948634D01*
X148349099Y-90949292D01*
X148357773Y-90950853D01*
X148388230Y-90953433D01*
X148522330Y-90931988D01*
X148644152Y-90871969D01*
X148742870Y-90778709D01*
X148809714Y-90660494D01*
X148817912Y-90631048D01*
X148847736Y-90465290D01*
X148861199Y-90390469D01*
X148890112Y-90336546D01*
X148945198Y-90309916D01*
X148958634Y-90309000D01*
X149387563Y-90309000D01*
X149387563Y-90308999D01*
X149463989Y-90288521D01*
X149467970Y-90286222D01*
X149527816Y-90273499D01*
X149583713Y-90298382D01*
G37*
%TD.AperFunction*%
%TA.AperFunction,Conductor*%
G36*
X147088091Y-83490594D02*
G01*
X147102419Y-83492155D01*
X148046725Y-83665308D01*
X148057279Y-83667848D01*
X148070045Y-83671672D01*
X148074171Y-83672908D01*
X148090833Y-83673395D01*
X148107227Y-83676402D01*
X148130208Y-83674548D01*
X148273210Y-83678736D01*
X148287624Y-83680220D01*
X148499490Y-83717867D01*
X148510836Y-83720582D01*
X148526102Y-83725204D01*
X148536907Y-83725551D01*
X148551038Y-83727026D01*
X148561686Y-83728919D01*
X148577570Y-83727549D01*
X148589249Y-83727235D01*
X148861539Y-83735996D01*
X148903414Y-83746794D01*
X148909798Y-83750057D01*
X148911257Y-83751181D01*
X148915243Y-83752841D01*
X148918681Y-83754598D01*
X148919781Y-83755701D01*
X148928678Y-83760471D01*
X148929054Y-83760723D01*
X148934872Y-83763597D01*
X148934561Y-83764225D01*
X148959555Y-83778394D01*
X148966107Y-83783954D01*
X148967964Y-83786186D01*
X148972578Y-83789445D01*
X148975923Y-83792284D01*
X148976705Y-83793551D01*
X148983312Y-83799237D01*
X148984184Y-83800146D01*
X149005954Y-83813327D01*
X149011791Y-83817149D01*
X149032586Y-83831840D01*
X149033766Y-83832275D01*
X149033768Y-83832276D01*
X149042674Y-83835560D01*
X149051867Y-83841126D01*
X149079654Y-83849195D01*
X149106823Y-83859214D01*
X149117531Y-83860196D01*
X149127851Y-83863193D01*
X149156782Y-83863796D01*
X149338297Y-83880443D01*
X149386316Y-83898129D01*
X149403705Y-83910394D01*
X149403706Y-83910394D01*
X149403707Y-83910395D01*
X149406264Y-83911737D01*
X149406299Y-83911755D01*
X149407436Y-83912352D01*
X149442158Y-83924551D01*
X149443524Y-83925042D01*
X149477959Y-83937710D01*
X149480784Y-83938346D01*
X149480797Y-83938349D01*
X149482066Y-83938635D01*
X149482291Y-83938652D01*
X149482294Y-83938653D01*
X149518835Y-83941437D01*
X149520251Y-83941556D01*
X149523167Y-83941821D01*
X149556760Y-83944877D01*
X149556762Y-83944876D01*
X149557602Y-83944953D01*
X149567196Y-83945123D01*
X149998194Y-83977975D01*
X150036525Y-83988949D01*
X150044104Y-83992910D01*
X150056950Y-84000931D01*
X150063380Y-84005666D01*
X150064150Y-84006233D01*
X150064153Y-84006234D01*
X150080734Y-84012721D01*
X150080735Y-84012721D01*
X150085755Y-84014685D01*
X150106311Y-84025432D01*
X150122439Y-84029037D01*
X150137834Y-84035060D01*
X150155540Y-84037035D01*
X150166137Y-84038804D01*
X150414096Y-84094232D01*
X150428237Y-84099905D01*
X150452553Y-84102828D01*
X150457399Y-84103912D01*
X150457403Y-84103912D01*
X150476451Y-84108171D01*
X150483664Y-84107868D01*
X150499613Y-84108488D01*
X151745255Y-84258290D01*
X151769424Y-84264355D01*
X151886163Y-84309914D01*
X151892461Y-84312628D01*
X151915680Y-84323605D01*
X151926086Y-84325496D01*
X151935938Y-84329341D01*
X151964870Y-84332544D01*
X151968240Y-84333157D01*
X151968259Y-84333160D01*
X152418256Y-84414937D01*
X152459820Y-84433042D01*
X152469015Y-84439914D01*
X152474359Y-84443908D01*
X152476296Y-84444681D01*
X152492757Y-84453116D01*
X152494527Y-84454243D01*
X152518013Y-84461643D01*
X152524974Y-84464126D01*
X152547835Y-84473258D01*
X152549913Y-84473505D01*
X152567991Y-84477390D01*
X152650114Y-84503265D01*
X152662718Y-84509729D01*
X152687696Y-84515106D01*
X152712069Y-84522786D01*
X152712068Y-84522786D01*
X152714183Y-84522877D01*
X152717856Y-84523037D01*
X152734402Y-84525161D01*
X153079596Y-84599481D01*
X153097698Y-84606028D01*
X153118102Y-84607771D01*
X153138125Y-84612082D01*
X153150667Y-84611457D01*
X153164013Y-84611692D01*
X153345527Y-84627200D01*
X153369322Y-84631709D01*
X153384784Y-84630554D01*
X153400233Y-84631874D01*
X153424075Y-84627619D01*
X153448225Y-84625816D01*
X153462861Y-84620698D01*
X153478126Y-84617975D01*
X153478128Y-84617973D01*
X153478777Y-84617858D01*
X153517786Y-84618708D01*
X153939266Y-84713048D01*
X153943670Y-84714142D01*
X153972938Y-84722132D01*
X153979995Y-84722165D01*
X153986876Y-84723705D01*
X154019435Y-84722349D01*
X154124663Y-84722841D01*
X154145192Y-84725092D01*
X154463941Y-84794279D01*
X154466436Y-84794856D01*
X154499636Y-84803019D01*
X154499642Y-84803018D01*
X154503761Y-84803474D01*
X154507876Y-84803816D01*
X154507880Y-84803817D01*
X154507883Y-84803816D01*
X154507886Y-84803817D01*
X154541938Y-84802178D01*
X154544590Y-84802085D01*
X154560281Y-84801760D01*
X154588145Y-84805165D01*
X155062370Y-84933297D01*
X155075139Y-84936747D01*
X155092011Y-84943000D01*
X155094536Y-84944207D01*
X155094817Y-84944341D01*
X155121912Y-84949385D01*
X155148524Y-84956576D01*
X155160667Y-84956601D01*
X155908818Y-85095894D01*
X155918432Y-85098186D01*
X155924066Y-85099830D01*
X155924073Y-85099833D01*
X155958556Y-85105155D01*
X155992898Y-85111549D01*
X155997605Y-85111182D01*
X156008587Y-85112877D01*
X156008601Y-85112879D01*
X156037793Y-85117384D01*
X156146091Y-85134099D01*
X156151067Y-85135185D01*
X156154381Y-85135671D01*
X156154384Y-85135672D01*
X156192432Y-85141251D01*
X156230391Y-85147110D01*
X156231529Y-85146985D01*
X156232665Y-85147152D01*
X156232667Y-85147151D01*
X156232670Y-85147152D01*
X156266073Y-85143252D01*
X156309867Y-85148007D01*
X156400912Y-85179452D01*
X156436814Y-85192243D01*
X156438280Y-85192360D01*
X156439681Y-85192844D01*
X156439686Y-85192844D01*
X156439691Y-85192846D01*
X156477445Y-85195521D01*
X156478044Y-85195566D01*
X156515681Y-85198601D01*
X156515689Y-85198599D01*
X156517560Y-85198505D01*
X156517657Y-85198500D01*
X156518525Y-85198456D01*
X156518613Y-85198438D01*
X156518616Y-85198439D01*
X156555548Y-85191295D01*
X156598788Y-85192558D01*
X156964626Y-85285780D01*
X156980037Y-85291092D01*
X157187476Y-85382366D01*
X157219311Y-85407400D01*
X157220389Y-85406356D01*
X157220606Y-85406580D01*
X157224201Y-85411245D01*
X157226260Y-85412864D01*
X157228157Y-85415346D01*
X157228176Y-85415401D01*
X157231101Y-85419069D01*
X157254744Y-85441837D01*
X157254743Y-85441837D01*
X157255947Y-85442996D01*
X157279947Y-85467727D01*
X157284377Y-85470374D01*
X157553710Y-85729741D01*
X157563867Y-85741163D01*
X157569075Y-85748020D01*
X157569076Y-85748021D01*
X157569078Y-85748023D01*
X157587614Y-85762391D01*
X157604498Y-85778650D01*
X157618742Y-85786519D01*
X157624805Y-85791219D01*
X157624807Y-85791221D01*
X157771701Y-85905084D01*
X157789751Y-85923270D01*
X157806545Y-85945277D01*
X157812564Y-85954117D01*
X157813746Y-85956072D01*
X157835613Y-85983414D01*
X157835614Y-85983414D01*
X157836323Y-85984300D01*
X157858239Y-86013019D01*
X157860988Y-86015140D01*
X157863160Y-86017855D01*
X157863160Y-86017856D01*
X157863163Y-86017858D01*
X157892267Y-86039274D01*
X157920883Y-86061354D01*
X157924092Y-86062693D01*
X158354672Y-86379539D01*
X158367517Y-86390825D01*
X158491239Y-86520104D01*
X158514908Y-86561363D01*
X158519103Y-86576050D01*
X158521032Y-86587213D01*
X158521234Y-86587174D01*
X158522489Y-86593534D01*
X158529967Y-86615664D01*
X158534955Y-86640747D01*
X158535550Y-86649652D01*
X158534455Y-86659309D01*
X158537599Y-86680289D01*
X158537871Y-86684349D01*
X158537781Y-86684701D01*
X158538025Y-86687316D01*
X158538655Y-86704457D01*
X158538656Y-86704462D01*
X158541476Y-86713628D01*
X158544759Y-86728059D01*
X158546183Y-86737559D01*
X158546184Y-86737561D01*
X158553030Y-86753290D01*
X158556873Y-86763669D01*
X158557893Y-86766982D01*
X158560735Y-86813513D01*
X158559841Y-86818515D01*
X158559620Y-86823354D01*
X158559553Y-86828196D01*
X158563427Y-86861156D01*
X158563746Y-86864297D01*
X158566565Y-86897352D01*
X158567605Y-86902094D01*
X158568791Y-86906778D01*
X158569780Y-86909262D01*
X158570261Y-86912582D01*
X158570383Y-86913064D01*
X158570332Y-86913076D01*
X158576387Y-86954862D01*
X158575610Y-86963369D01*
X158577318Y-86973273D01*
X158578730Y-86987785D01*
X158578963Y-86997829D01*
X158583662Y-87013865D01*
X158583663Y-87013865D01*
X158585255Y-87019299D01*
X158589056Y-87041342D01*
X158596330Y-87057097D01*
X158598387Y-87064116D01*
X158598386Y-87064118D01*
X158601211Y-87073758D01*
X158609901Y-87088034D01*
X158615214Y-87098002D01*
X158621602Y-87111835D01*
X158630367Y-87144953D01*
X158631947Y-87163533D01*
X158632233Y-87168208D01*
X158633361Y-87198277D01*
X158633432Y-87198696D01*
X158635569Y-87206106D01*
X158636102Y-87212371D01*
X158642415Y-87229849D01*
X158643324Y-87232999D01*
X158643051Y-87241143D01*
X158645400Y-87260512D01*
X158646903Y-87260475D01*
X158647007Y-87264640D01*
X158646984Y-87265290D01*
X158647085Y-87268036D01*
X158647120Y-87269162D01*
X158647146Y-87270222D01*
X158653392Y-87307196D01*
X158653488Y-87307767D01*
X158659365Y-87345107D01*
X158660063Y-87346681D01*
X158661365Y-87354382D01*
X158661365Y-87354383D01*
X158676873Y-87446169D01*
X158678215Y-87459765D01*
X158678564Y-87471692D01*
X158682819Y-87485898D01*
X158682932Y-87486278D01*
X158684610Y-87491964D01*
X158688069Y-87512433D01*
X158695342Y-87528326D01*
X158697337Y-87535084D01*
X158697214Y-87539580D01*
X158698977Y-87546058D01*
X158699313Y-87545979D01*
X158699347Y-87546123D01*
X158699624Y-87548435D01*
X158700870Y-87553013D01*
X158701293Y-87557141D01*
X158701967Y-87562097D01*
X158710632Y-87593889D01*
X158711437Y-87597045D01*
X158719063Y-87629159D01*
X158721374Y-87635222D01*
X158720805Y-87635438D01*
X158724443Y-87644559D01*
X158751842Y-87745088D01*
X158753838Y-87752411D01*
X158753859Y-87753873D01*
X158764185Y-87790375D01*
X158764308Y-87790823D01*
X158764347Y-87790964D01*
X158774284Y-87827422D01*
X158774640Y-87828247D01*
X158774639Y-87828247D01*
X158775396Y-87830003D01*
X158781700Y-87840580D01*
X158795443Y-87884729D01*
X158796851Y-87906021D01*
X158797156Y-87907547D01*
X158800701Y-87922827D01*
X158801094Y-87924312D01*
X158811424Y-87949455D01*
X158812590Y-87952294D01*
X158822329Y-87980928D01*
X158827577Y-87988772D01*
X158831161Y-87997496D01*
X158831162Y-87997498D01*
X158847641Y-88019104D01*
X158851206Y-88024092D01*
X158881846Y-88069889D01*
X158895104Y-88098998D01*
X158896442Y-88103926D01*
X158898198Y-88114667D01*
X158901112Y-88121126D01*
X158903175Y-88128723D01*
X158903130Y-88129638D01*
X158904019Y-88132048D01*
X158916811Y-88156361D01*
X158919431Y-88161727D01*
X158930739Y-88186789D01*
X158930750Y-88186802D01*
X158933424Y-88192726D01*
X158934152Y-88199333D01*
X158940976Y-88217994D01*
X158943858Y-88236224D01*
X158943860Y-88236229D01*
X158946505Y-88242174D01*
X158951888Y-88257586D01*
X158953519Y-88263883D01*
X158963487Y-88281484D01*
X158967791Y-88290021D01*
X158976021Y-88308517D01*
X158976023Y-88308520D01*
X158976024Y-88308521D01*
X158985271Y-88319946D01*
X158992512Y-88332731D01*
X159010055Y-88350568D01*
X159013065Y-88354287D01*
X159028407Y-88373242D01*
X159047213Y-88410398D01*
X159052954Y-88432279D01*
X159053931Y-88434671D01*
X159059263Y-88446683D01*
X159060390Y-88449030D01*
X159075422Y-88472030D01*
X159078542Y-88477136D01*
X159092161Y-88501011D01*
X159092186Y-88501043D01*
X159092518Y-88501383D01*
X159099001Y-88508109D01*
X159103678Y-88515266D01*
X159119863Y-88529753D01*
X159122391Y-88532376D01*
X159124176Y-88536044D01*
X159137210Y-88552213D01*
X159138309Y-88554150D01*
X159138310Y-88554152D01*
X159141565Y-88559886D01*
X159146101Y-88567878D01*
X159151285Y-88578425D01*
X159157394Y-88592978D01*
X159164118Y-88601658D01*
X159171946Y-88613406D01*
X159177369Y-88622959D01*
X159177370Y-88622960D01*
X159188439Y-88634192D01*
X159196184Y-88643047D01*
X159205846Y-88655518D01*
X159205854Y-88655526D01*
X159214592Y-88662166D01*
X159225203Y-88671496D01*
X159566387Y-89017694D01*
X159582966Y-89037842D01*
X159594047Y-89045760D01*
X159594966Y-89046693D01*
X159600045Y-89051846D01*
X159600046Y-89051848D01*
X159600047Y-89051849D01*
X159603342Y-89055192D01*
X159603608Y-89055462D01*
X159622297Y-89066434D01*
X159629707Y-89071243D01*
X159812057Y-89201552D01*
X159969737Y-89314232D01*
X159972139Y-89315949D01*
X159995940Y-89335195D01*
X160004220Y-89338874D01*
X160011596Y-89344145D01*
X160011601Y-89344148D01*
X160037505Y-89353858D01*
X160042960Y-89356090D01*
X160463180Y-89542834D01*
X160482238Y-89551303D01*
X160514792Y-89566696D01*
X160518317Y-89567337D01*
X160521596Y-89568794D01*
X160556108Y-89574234D01*
X160558315Y-89574609D01*
X161184869Y-89688541D01*
X161192292Y-89691584D01*
X161223664Y-89695596D01*
X161226204Y-89696058D01*
X161226229Y-89696062D01*
X161254818Y-89701261D01*
X161262817Y-89700604D01*
X161270776Y-89701622D01*
X161302139Y-89697374D01*
X161333675Y-89694785D01*
X161333678Y-89694784D01*
X161340022Y-89693414D01*
X161340038Y-89693488D01*
X161351521Y-89690687D01*
X161549497Y-89663877D01*
X161584326Y-89665355D01*
X161587662Y-89666099D01*
X161598060Y-89669023D01*
X161599788Y-89669612D01*
X161599791Y-89669614D01*
X161599793Y-89669614D01*
X161599795Y-89669615D01*
X161634297Y-89676526D01*
X161636404Y-89676972D01*
X161665610Y-89683486D01*
X161670806Y-89684645D01*
X161670815Y-89684644D01*
X161672612Y-89684804D01*
X161672611Y-89684804D01*
X161675127Y-89685027D01*
X161675128Y-89685027D01*
X161675134Y-89685028D01*
X161675564Y-89685033D01*
X161677363Y-89685153D01*
X161677372Y-89685155D01*
X161713586Y-89682831D01*
X161749858Y-89681294D01*
X161753016Y-89680301D01*
X161756318Y-89680090D01*
X161756318Y-89680089D01*
X161756333Y-89680089D01*
X161789737Y-89668800D01*
X161791709Y-89668156D01*
X161825349Y-89657598D01*
X161825412Y-89657557D01*
X161831648Y-89655597D01*
X161845798Y-89655731D01*
X161870020Y-89651418D01*
X161879893Y-89652287D01*
X161879900Y-89652285D01*
X161882636Y-89652167D01*
X161895430Y-89651227D01*
X161898131Y-89650945D01*
X161898141Y-89650946D01*
X161927798Y-89643862D01*
X161957820Y-89638583D01*
X161966153Y-89634701D01*
X161975099Y-89632565D01*
X161999314Y-89619452D01*
X162004601Y-89616793D01*
X162016639Y-89611186D01*
X162066827Y-89602288D01*
X162151858Y-89609524D01*
X162156320Y-89610007D01*
X162186488Y-89613979D01*
X162186489Y-89613978D01*
X162186492Y-89613979D01*
X162186493Y-89613979D01*
X162193444Y-89613063D01*
X162200423Y-89613658D01*
X162232555Y-89607913D01*
X162380990Y-89588370D01*
X162412736Y-89589329D01*
X162501249Y-89606477D01*
X162508818Y-89608254D01*
X162531805Y-89614617D01*
X162543772Y-89614715D01*
X162555524Y-89616992D01*
X162583190Y-89615039D01*
X162583740Y-89615043D01*
X162610926Y-89615268D01*
X162610927Y-89615267D01*
X162617415Y-89615321D01*
X162617404Y-89616545D01*
X162648276Y-89619190D01*
X162652874Y-89620582D01*
X162658528Y-89622293D01*
X162661910Y-89623383D01*
X162669133Y-89625855D01*
X162692574Y-89633878D01*
X162692577Y-89633879D01*
X162698043Y-89634251D01*
X162703285Y-89635837D01*
X162737433Y-89636931D01*
X162771517Y-89639251D01*
X162771526Y-89639249D01*
X162777995Y-89638842D01*
X162778028Y-89639378D01*
X162788109Y-89638555D01*
X162816954Y-89639479D01*
X162851400Y-89646855D01*
X162894197Y-89664437D01*
X162911697Y-89673774D01*
X163029502Y-89752738D01*
X163166329Y-89844451D01*
X163178494Y-89854067D01*
X163827467Y-90455384D01*
X163834022Y-90462060D01*
X164181446Y-90851096D01*
X164424342Y-91123086D01*
X164435419Y-91135489D01*
X164439585Y-91140475D01*
X165408207Y-92380173D01*
X165413983Y-92387565D01*
X165417205Y-92391930D01*
X166001239Y-93230317D01*
X166004692Y-93235628D01*
X166492834Y-94041807D01*
X166497414Y-94049370D01*
X166498992Y-94052072D01*
X166808950Y-94602627D01*
X167278190Y-95436104D01*
X167286997Y-95457072D01*
X167327263Y-95595779D01*
X167342029Y-95646642D01*
X167344450Y-95657050D01*
X167347571Y-95674752D01*
X167347572Y-95674753D01*
X167351014Y-95682135D01*
X167354506Y-95689622D01*
X167359079Y-95705375D01*
X167371152Y-95725320D01*
X167373417Y-95730177D01*
X167726326Y-96486993D01*
X167732443Y-96504022D01*
X167753836Y-96586664D01*
X167756396Y-96600603D01*
X167757590Y-96611414D01*
X167757591Y-96611420D01*
X167763357Y-96626207D01*
X167766957Y-96637346D01*
X167768274Y-96642431D01*
X167770940Y-96652731D01*
X167776302Y-96662202D01*
X167782383Y-96675007D01*
X167933483Y-97062557D01*
X168320649Y-98055590D01*
X168326716Y-98079833D01*
X168349417Y-98270264D01*
X168351045Y-98283918D01*
X168352727Y-98313994D01*
X168355711Y-98323072D01*
X168356844Y-98332570D01*
X168356845Y-98332574D01*
X168366876Y-98357654D01*
X168369002Y-98363496D01*
X168420826Y-98521122D01*
X168425303Y-98542349D01*
X168429462Y-98584620D01*
X168429866Y-98598079D01*
X168429049Y-98619546D01*
X168422026Y-98652583D01*
X168387026Y-98739987D01*
X168381424Y-98751691D01*
X168374903Y-98763291D01*
X168374902Y-98763294D01*
X168371570Y-98776324D01*
X168367566Y-98788587D01*
X168362562Y-98801083D01*
X168362561Y-98801088D01*
X168362561Y-98801089D01*
X168360207Y-98820765D01*
X168355301Y-98839951D01*
X168355529Y-98859866D01*
X168353162Y-98879652D01*
X168354268Y-98887346D01*
X168355054Y-98892816D01*
X168356053Y-98905761D01*
X168356595Y-98953030D01*
X168354745Y-98973252D01*
X168323139Y-99134110D01*
X168322999Y-99134806D01*
X168315408Y-99172024D01*
X168315305Y-99173485D01*
X168315303Y-99173524D01*
X168315259Y-99174136D01*
X168317858Y-99212416D01*
X168317903Y-99213124D01*
X168330640Y-99423034D01*
X168329112Y-99447352D01*
X168265581Y-99784698D01*
X168258183Y-99807853D01*
X168221680Y-99886965D01*
X168221171Y-99888051D01*
X168205132Y-99921732D01*
X168204801Y-99922797D01*
X168204802Y-99922798D01*
X168204093Y-99925079D01*
X168197788Y-99961700D01*
X168197578Y-99962881D01*
X167890833Y-101623746D01*
X167889542Y-101630735D01*
X167883783Y-101647777D01*
X167882390Y-101669460D01*
X167878443Y-101690837D01*
X167878443Y-101690839D01*
X167878443Y-101690840D01*
X167879304Y-101701697D01*
X167879411Y-101715865D01*
X167871807Y-101834315D01*
X167864381Y-101866082D01*
X167847518Y-101906513D01*
X167845205Y-101911644D01*
X167832887Y-101937013D01*
X167832885Y-101937019D01*
X167831246Y-101945526D01*
X167827914Y-101953518D01*
X167823795Y-101984210D01*
X167823260Y-101986993D01*
X167823259Y-101987003D01*
X167817926Y-102014703D01*
X167817926Y-102014709D01*
X167818545Y-102023353D01*
X167817394Y-102031939D01*
X167821363Y-102062676D01*
X167821565Y-102065483D01*
X167821566Y-102065486D01*
X167824875Y-102111641D01*
X167823856Y-102134540D01*
X167783859Y-102381622D01*
X167780662Y-102395211D01*
X167777299Y-102406019D01*
X167777299Y-102406020D01*
X167776684Y-102421449D01*
X167776446Y-102427422D01*
X167773025Y-102448559D01*
X167774876Y-102466768D01*
X167774597Y-102473770D01*
X167771593Y-102549119D01*
X167755636Y-102596935D01*
X167756063Y-102597154D01*
X167754632Y-102599945D01*
X167754138Y-102601427D01*
X167753109Y-102602915D01*
X167750651Y-102607712D01*
X167748378Y-102612566D01*
X167738564Y-102643506D01*
X167737447Y-102646823D01*
X167727188Y-102675591D01*
X167726527Y-102677445D01*
X167726090Y-102682835D01*
X167724456Y-102687989D01*
X167722904Y-102722163D01*
X167722762Y-102723926D01*
X167712126Y-102855300D01*
X167699716Y-102895881D01*
X167692343Y-102908975D01*
X167692342Y-102908978D01*
X167691009Y-102914175D01*
X167685442Y-102930093D01*
X167683243Y-102934993D01*
X167683240Y-102935004D01*
X167679834Y-102956095D01*
X167679116Y-102960548D01*
X167672688Y-102985615D01*
X167672835Y-102999452D01*
X167671488Y-103007803D01*
X167671488Y-103007808D01*
X167670631Y-103013114D01*
X167672802Y-103034370D01*
X167673308Y-103043361D01*
X167677709Y-103452849D01*
X167669427Y-103493565D01*
X167645363Y-103548617D01*
X167643717Y-103552188D01*
X167629916Y-103580625D01*
X167628001Y-103586383D01*
X167626340Y-103592136D01*
X167621602Y-103623422D01*
X167620935Y-103627299D01*
X167545652Y-104018640D01*
X167534237Y-104049324D01*
X167529987Y-104056707D01*
X167524039Y-104063858D01*
X167516651Y-104079876D01*
X167514422Y-104083750D01*
X167514007Y-104084123D01*
X167512294Y-104087276D01*
X167505244Y-104098423D01*
X167505244Y-104098425D01*
X167501201Y-104111391D01*
X167496594Y-104123370D01*
X167490905Y-104135709D01*
X167490904Y-104135710D01*
X167488670Y-104148701D01*
X167485620Y-104161369D01*
X167481699Y-104173951D01*
X167481696Y-104173966D01*
X167481148Y-104187531D01*
X167479797Y-104200306D01*
X167441225Y-104424636D01*
X167440337Y-104429798D01*
X167433887Y-104452595D01*
X167433663Y-104468616D01*
X167432350Y-104476253D01*
X167432350Y-104476257D01*
X167430947Y-104484414D01*
X167432636Y-104502811D01*
X167433040Y-104513239D01*
X167430565Y-104690594D01*
X167428658Y-104708601D01*
X167388153Y-104911429D01*
X167386681Y-104918796D01*
X167380957Y-104934552D01*
X167378967Y-104957424D01*
X167377895Y-104962796D01*
X167377895Y-104962800D01*
X167374470Y-104979947D01*
X167374470Y-104979949D01*
X167375068Y-104989182D01*
X167374903Y-105004151D01*
X167359351Y-105182976D01*
X167347830Y-105221445D01*
X167342893Y-105230584D01*
X167338675Y-105235551D01*
X167327712Y-105258692D01*
X167326458Y-105261016D01*
X167326281Y-105261184D01*
X167325012Y-105263601D01*
X167313473Y-105283515D01*
X167313471Y-105283522D01*
X167312505Y-105287104D01*
X167306395Y-105303694D01*
X167304805Y-105307050D01*
X167304802Y-105307059D01*
X167300666Y-105329709D01*
X167299929Y-105333741D01*
X167292874Y-105359913D01*
X167292854Y-105372495D01*
X167291257Y-105381242D01*
X167291257Y-105381245D01*
X167183657Y-105970603D01*
X167178781Y-105988065D01*
X167177782Y-105990686D01*
X167177781Y-105990690D01*
X167175339Y-106014476D01*
X167174248Y-106022141D01*
X167169950Y-106045682D01*
X167169950Y-106045687D01*
X167170178Y-106048482D01*
X167169986Y-106066618D01*
X167134027Y-106416858D01*
X167124351Y-106450502D01*
X167121447Y-106456394D01*
X167120710Y-106457286D01*
X167116772Y-106465882D01*
X167116141Y-106467165D01*
X167115659Y-106467659D01*
X167109785Y-106478209D01*
X167105311Y-106484939D01*
X167105306Y-106484950D01*
X167099347Y-106502639D01*
X167095542Y-106512245D01*
X167087766Y-106529227D01*
X167086417Y-106537199D01*
X167085220Y-106544273D01*
X167085117Y-106544884D01*
X167080049Y-106559931D01*
X167078545Y-106583715D01*
X167077681Y-106588825D01*
X167077680Y-106588835D01*
X167071897Y-106623006D01*
X167068942Y-106633399D01*
X167069272Y-106633486D01*
X167067630Y-106639759D01*
X167063760Y-106670554D01*
X167063146Y-106674720D01*
X167057965Y-106705341D01*
X167057728Y-106711819D01*
X167057386Y-106711806D01*
X167057219Y-106722609D01*
X166940573Y-107650871D01*
X166939668Y-107656672D01*
X166808294Y-108361351D01*
X166796901Y-108391267D01*
X166797074Y-108391357D01*
X166796302Y-108392842D01*
X166795711Y-108394394D01*
X166792521Y-108399675D01*
X166791932Y-108400184D01*
X166790387Y-108402396D01*
X166790223Y-108402281D01*
X166789367Y-108403571D01*
X166789535Y-108403677D01*
X166786078Y-108409164D01*
X166773533Y-108436423D01*
X166771457Y-108440665D01*
X166757619Y-108467306D01*
X166757616Y-108467314D01*
X166756046Y-108474425D01*
X166753002Y-108481041D01*
X166747543Y-108512935D01*
X166747031Y-108515255D01*
X166532807Y-109485566D01*
X166530446Y-109494329D01*
X166523990Y-109514552D01*
X166523730Y-109520057D01*
X166523331Y-109528488D01*
X166520325Y-109542107D01*
X166521470Y-109567832D01*
X166521256Y-109572363D01*
X166521256Y-109572382D01*
X166513160Y-109743666D01*
X166512217Y-109753394D01*
X166511287Y-109759715D01*
X166511287Y-109759721D01*
X166510759Y-109794462D01*
X166509119Y-109829169D01*
X166510160Y-109833946D01*
X166510086Y-109838834D01*
X166512830Y-109849736D01*
X166513691Y-109853154D01*
X166514476Y-109898122D01*
X166316788Y-110818064D01*
X166316789Y-110818065D01*
X166316615Y-110818875D01*
X166308233Y-110855144D01*
X166308314Y-110857504D01*
X166307818Y-110859816D01*
X166307818Y-110859818D01*
X166307818Y-110859819D01*
X166309645Y-110896241D01*
X166309644Y-110896241D01*
X166309686Y-110897095D01*
X166310974Y-110934219D01*
X166311664Y-110936479D01*
X166311783Y-110938840D01*
X166311783Y-110938842D01*
X166311784Y-110938844D01*
X166315254Y-110949606D01*
X166318313Y-110998348D01*
X166302645Y-111081358D01*
X166299911Y-111092351D01*
X166146949Y-111585013D01*
X166146948Y-111585012D01*
X166144800Y-111591929D01*
X166137198Y-111607794D01*
X166133126Y-111629533D01*
X166131423Y-111635022D01*
X166126567Y-111650662D01*
X166126564Y-111650677D01*
X166126157Y-111661041D01*
X166124543Y-111675368D01*
X166108444Y-111761349D01*
X166108444Y-111761351D01*
X166108127Y-111763047D01*
X166107573Y-111766004D01*
X166100597Y-111790190D01*
X166100320Y-111804734D01*
X166098803Y-111812836D01*
X166098802Y-111812837D01*
X166097644Y-111819026D01*
X166097643Y-111819042D01*
X166099208Y-111839409D01*
X166099571Y-111844142D01*
X166099094Y-111869298D01*
X166102590Y-111883416D01*
X166103222Y-111891631D01*
X166103705Y-111897927D01*
X166105042Y-111904269D01*
X166104028Y-111904482D01*
X166107435Y-111948064D01*
X166063236Y-112187617D01*
X166057110Y-112208098D01*
X165971476Y-112411316D01*
X165957838Y-112427087D01*
X165947719Y-112445317D01*
X165938272Y-112449715D01*
X165931456Y-112457598D01*
X165892251Y-112471141D01*
X165802335Y-112482126D01*
X165791947Y-112482844D01*
X165773418Y-112483146D01*
X165765497Y-112485408D01*
X165758036Y-112487538D01*
X165742168Y-112489477D01*
X165720160Y-112498352D01*
X165715143Y-112499785D01*
X165715142Y-112499784D01*
X165697338Y-112504869D01*
X165697333Y-112504871D01*
X165691030Y-112508648D01*
X165656751Y-112521323D01*
X165637495Y-112524599D01*
X165627838Y-112525757D01*
X165607978Y-112527153D01*
X165607974Y-112527154D01*
X165601494Y-112529388D01*
X165601493Y-112529387D01*
X165593826Y-112532029D01*
X165579106Y-112534535D01*
X165556610Y-112544860D01*
X165552005Y-112546448D01*
X165551994Y-112546453D01*
X165453166Y-112580522D01*
X165444389Y-112583100D01*
X165423919Y-112588099D01*
X165423915Y-112588100D01*
X165418943Y-112590825D01*
X165411584Y-112594857D01*
X165398289Y-112599441D01*
X165377038Y-112613785D01*
X165373022Y-112615986D01*
X165373016Y-112615990D01*
X165354524Y-112626123D01*
X165354523Y-112626124D01*
X165350430Y-112630038D01*
X165344358Y-112635846D01*
X165332710Y-112643710D01*
X165315893Y-112663069D01*
X165264995Y-112711744D01*
X165263222Y-112713440D01*
X165226561Y-112735657D01*
X165110604Y-112774937D01*
X165100239Y-112777831D01*
X165082850Y-112781680D01*
X165074917Y-112785806D01*
X165061009Y-112791737D01*
X165052539Y-112794606D01*
X165037713Y-112804498D01*
X165037712Y-112804497D01*
X165033223Y-112807491D01*
X165012653Y-112818193D01*
X165000476Y-112829342D01*
X164994163Y-112833555D01*
X164994161Y-112833558D01*
X164986725Y-112838520D01*
X164986716Y-112838528D01*
X164974960Y-112851915D01*
X164967433Y-112859601D01*
X164904787Y-112916967D01*
X164897948Y-112920080D01*
X164893326Y-112926003D01*
X164876523Y-112929835D01*
X164849102Y-112942321D01*
X164834519Y-112942895D01*
X164829019Y-112942705D01*
X164827903Y-112942542D01*
X164827077Y-112942638D01*
X164822655Y-112942486D01*
X164818882Y-112942544D01*
X164785622Y-112947441D01*
X164785623Y-112947442D01*
X164784147Y-112947659D01*
X164749315Y-112951734D01*
X164745090Y-112953412D01*
X164740600Y-112954074D01*
X164740598Y-112954074D01*
X164740596Y-112954075D01*
X164709746Y-112967410D01*
X164707030Y-112968536D01*
X164675780Y-112980954D01*
X164671849Y-112983148D01*
X164667970Y-112985468D01*
X164641619Y-113006336D01*
X164639288Y-113008127D01*
X164612317Y-113028211D01*
X164609098Y-113031336D01*
X164605945Y-113034589D01*
X164585905Y-113061550D01*
X164584113Y-113063888D01*
X164574377Y-113076203D01*
X164537858Y-113101854D01*
X164538988Y-113104175D01*
X164527326Y-113109849D01*
X164527284Y-113109763D01*
X164524875Y-113111013D01*
X164524922Y-113111098D01*
X164519246Y-113114233D01*
X164495729Y-113131579D01*
X164491535Y-113134508D01*
X164467141Y-113150623D01*
X164466765Y-113150949D01*
X164465984Y-113151794D01*
X164460206Y-113157780D01*
X164455573Y-113161199D01*
X164449202Y-113169182D01*
X164445958Y-113172544D01*
X164437756Y-113176908D01*
X164417099Y-113193265D01*
X164410877Y-113196212D01*
X164398351Y-113201132D01*
X164386601Y-113204846D01*
X164386596Y-113204848D01*
X164374429Y-113212612D01*
X164363562Y-113218620D01*
X164358044Y-113221235D01*
X164350515Y-113224801D01*
X164347686Y-113227204D01*
X164335978Y-113237148D01*
X164319897Y-113247410D01*
X164305956Y-113262645D01*
X164301209Y-113266677D01*
X164301210Y-113266677D01*
X164290213Y-113276018D01*
X164290211Y-113276020D01*
X164283198Y-113286163D01*
X164274810Y-113296684D01*
X164193641Y-113385396D01*
X164157840Y-113410296D01*
X164152666Y-113412396D01*
X164134137Y-113417587D01*
X164121632Y-113424995D01*
X164114770Y-113427781D01*
X164114523Y-113427798D01*
X164113615Y-113428242D01*
X164106956Y-113430848D01*
X164091164Y-113442474D01*
X164091165Y-113442475D01*
X164087189Y-113445403D01*
X164066066Y-113457920D01*
X164055463Y-113468763D01*
X164049005Y-113473519D01*
X164049005Y-113473520D01*
X164043247Y-113477761D01*
X164043240Y-113477767D01*
X164031000Y-113493082D01*
X164024459Y-113500477D01*
X164010345Y-113514914D01*
X163979008Y-113536506D01*
X163965445Y-113542399D01*
X163961661Y-113545407D01*
X163947379Y-113554864D01*
X163943135Y-113557172D01*
X163927250Y-113572269D01*
X163920663Y-113577998D01*
X163903509Y-113591635D01*
X163903506Y-113591638D01*
X163900634Y-113595518D01*
X163895516Y-113602430D01*
X163885783Y-113611681D01*
X163872071Y-113634092D01*
X163869467Y-113637610D01*
X163856428Y-113655222D01*
X163856421Y-113655235D01*
X163854652Y-113659721D01*
X163847006Y-113675063D01*
X163739650Y-113850546D01*
X163727315Y-113866708D01*
X163588330Y-114014480D01*
X163588331Y-114014481D01*
X163586312Y-114016626D01*
X163564048Y-114037645D01*
X163559297Y-114045350D01*
X163553097Y-114051943D01*
X163540000Y-114076324D01*
X163537062Y-114081423D01*
X163376818Y-114341384D01*
X163376817Y-114341385D01*
X163373458Y-114346832D01*
X163360764Y-114362492D01*
X163352807Y-114380332D01*
X163349352Y-114385938D01*
X163349349Y-114385945D01*
X163342540Y-114396993D01*
X163342535Y-114397005D01*
X163338582Y-114410220D01*
X163334153Y-114422165D01*
X163229558Y-114656728D01*
X163221647Y-114671123D01*
X163128012Y-114812323D01*
X163123318Y-114818814D01*
X163108866Y-114837186D01*
X163108861Y-114837194D01*
X163107542Y-114840275D01*
X163099055Y-114855991D01*
X163097204Y-114858781D01*
X163097197Y-114858795D01*
X163089762Y-114880952D01*
X163086908Y-114888437D01*
X163082757Y-114898130D01*
X162991142Y-115111978D01*
X162988418Y-115118334D01*
X162978806Y-115134221D01*
X162972913Y-115154527D01*
X162970526Y-115160100D01*
X162964579Y-115173982D01*
X162962917Y-115185531D01*
X162962916Y-115185530D01*
X162961929Y-115192380D01*
X162956757Y-115210210D01*
X162956321Y-115231347D01*
X162955458Y-115237345D01*
X162955458Y-115237355D01*
X162953307Y-115252296D01*
X162953307Y-115252301D01*
X162954690Y-115263881D01*
X162955367Y-115277652D01*
X162952019Y-115440227D01*
X162949953Y-115458407D01*
X162836609Y-116001707D01*
X162836610Y-116001708D01*
X162836499Y-116002237D01*
X162828377Y-116039457D01*
X162828443Y-116040863D01*
X162828155Y-116042244D01*
X162830298Y-116080389D01*
X162832087Y-116118492D01*
X162832514Y-116119833D01*
X162832594Y-116121243D01*
X162839660Y-116142716D01*
X162844402Y-116157124D01*
X162844675Y-116157970D01*
X162850061Y-116174858D01*
X162853563Y-116185837D01*
X162855706Y-116223172D01*
X162857824Y-116223307D01*
X162857177Y-116233501D01*
X162856826Y-116243899D01*
X162856810Y-116247628D01*
X162860315Y-116275175D01*
X162860880Y-116280976D01*
X162862760Y-116308714D01*
X162862792Y-116308873D01*
X162863388Y-116310713D01*
X162865868Y-116318811D01*
X162866798Y-116326116D01*
X162872000Y-116338830D01*
X162873324Y-116343153D01*
X162873159Y-116352887D01*
X162877376Y-116379702D01*
X162864949Y-116542042D01*
X162864066Y-116549671D01*
X162860376Y-116573438D01*
X162860664Y-116576095D01*
X162860950Y-116594285D01*
X162860746Y-116596951D01*
X162860746Y-116596961D01*
X162865178Y-116620597D01*
X162865179Y-116620597D01*
X162865887Y-116624369D01*
X162868888Y-116652102D01*
X162873155Y-116663117D01*
X162874840Y-116672099D01*
X162874840Y-116672100D01*
X162875332Y-116674724D01*
X162875486Y-116675194D01*
X162875610Y-116676207D01*
X162876528Y-116681099D01*
X162876218Y-116681157D01*
X162880142Y-116713102D01*
X162868304Y-116877468D01*
X162867943Y-116882474D01*
X162863754Y-116906454D01*
X162865115Y-116921746D01*
X162864543Y-116929700D01*
X162864012Y-116937073D01*
X162864012Y-116937085D01*
X162867667Y-116956102D01*
X162868426Y-116960612D01*
X162868816Y-116963308D01*
X162870772Y-116985265D01*
X162872789Y-116990783D01*
X162874262Y-117000961D01*
X162872055Y-117013778D01*
X162873683Y-117032856D01*
X162855234Y-117134245D01*
X162853450Y-117142181D01*
X162847455Y-117164518D01*
X162847454Y-117168120D01*
X162845856Y-117185785D01*
X162845212Y-117189325D01*
X162845211Y-117189329D01*
X162846965Y-117210713D01*
X162847435Y-117216440D01*
X162847424Y-117243640D01*
X162850655Y-117255721D01*
X162851384Y-117264606D01*
X162851383Y-117264607D01*
X162851677Y-117268183D01*
X162851677Y-117268185D01*
X162851678Y-117268188D01*
X162857813Y-117285334D01*
X162859255Y-117289366D01*
X162860842Y-117293800D01*
X162867871Y-117320076D01*
X162874118Y-117330908D01*
X162877120Y-117339297D01*
X162877121Y-117339298D01*
X162878333Y-117342685D01*
X162891491Y-117361698D01*
X162895841Y-117368570D01*
X162912785Y-117397945D01*
X162925483Y-117457799D01*
X162924621Y-117464048D01*
X162923823Y-117468729D01*
X162923125Y-117472403D01*
X162916560Y-117503721D01*
X162916125Y-117509446D01*
X162915908Y-117515170D01*
X162918877Y-117547031D01*
X162919153Y-117550758D01*
X162920918Y-117582721D01*
X162920919Y-117582727D01*
X162922716Y-117588208D01*
X162923252Y-117593949D01*
X162935014Y-117625705D01*
X162935599Y-117627487D01*
X162935599Y-117627490D01*
X162935623Y-117627559D01*
X162935781Y-117628042D01*
X162936941Y-117685798D01*
X162920060Y-117745406D01*
X162919553Y-117747135D01*
X162909138Y-117781509D01*
X162909070Y-117781926D01*
X162908545Y-117785107D01*
X162908538Y-117785158D01*
X162908405Y-117785960D01*
X162908355Y-117786524D01*
X162908292Y-117786955D01*
X162907782Y-117822879D01*
X162907768Y-117823818D01*
X162906577Y-117860586D01*
X162907210Y-117863298D01*
X162907171Y-117866079D01*
X162915963Y-117900861D01*
X162916389Y-117902612D01*
X162923494Y-117933041D01*
X162924539Y-117972988D01*
X162877482Y-118235986D01*
X162876025Y-118242755D01*
X162869769Y-118267562D01*
X162869768Y-118267572D01*
X162869785Y-118268694D01*
X162869925Y-118278218D01*
X162868050Y-118288703D01*
X162870506Y-118317627D01*
X162870558Y-118321109D01*
X162870559Y-118321110D01*
X162870937Y-118346680D01*
X162870937Y-118346682D01*
X162871244Y-118347763D01*
X162873910Y-118360103D01*
X162874382Y-118363251D01*
X162874747Y-118367542D01*
X162875224Y-118368865D01*
X162876124Y-118374858D01*
X162875143Y-118380737D01*
X162875606Y-118407350D01*
X162864321Y-118469088D01*
X162863940Y-118471061D01*
X162856847Y-118505855D01*
X162856759Y-118507111D01*
X162856758Y-118507122D01*
X162856560Y-118509921D01*
X162856559Y-118509945D01*
X162856538Y-118510234D01*
X162856541Y-118510722D01*
X162856477Y-118511998D01*
X162859348Y-118547362D01*
X162859491Y-118549363D01*
X162860024Y-118558125D01*
X162861647Y-118584832D01*
X162861647Y-118584834D01*
X162861896Y-118588917D01*
X162857389Y-118625032D01*
X162796642Y-118815325D01*
X162792495Y-118826102D01*
X162785803Y-118840858D01*
X162785800Y-118840868D01*
X162784081Y-118851259D01*
X162780723Y-118865196D01*
X162777512Y-118875253D01*
X162776748Y-118891447D01*
X162775530Y-118902938D01*
X162711623Y-119289150D01*
X162710960Y-119293151D01*
X162704329Y-119319602D01*
X162704528Y-119332022D01*
X162703071Y-119340833D01*
X162703071Y-119340835D01*
X162702500Y-119344284D01*
X162702500Y-119344293D01*
X162704768Y-119367414D01*
X162705228Y-119375479D01*
X162705603Y-119398716D01*
X162705603Y-119398719D01*
X162706560Y-119402071D01*
X162709107Y-119413537D01*
X162709589Y-119416543D01*
X162710227Y-119423036D01*
X162710934Y-119424916D01*
X162712079Y-119432047D01*
X162711029Y-119438767D01*
X162711594Y-119466208D01*
X162664482Y-119714348D01*
X162658877Y-119733295D01*
X162622791Y-119821702D01*
X162618027Y-119831728D01*
X162609821Y-119846758D01*
X162607549Y-119856117D01*
X162607550Y-119856118D01*
X162606729Y-119859501D01*
X162605801Y-119863327D01*
X162599358Y-119879114D01*
X162596514Y-119901607D01*
X162595204Y-119907011D01*
X162591168Y-119923647D01*
X162591168Y-119923655D01*
X162591397Y-119933286D01*
X162591422Y-119934825D01*
X162591476Y-119941467D01*
X162589436Y-119957612D01*
X162591747Y-119974499D01*
X162591800Y-119980834D01*
X162586471Y-119997703D01*
X162582648Y-120023227D01*
X162541383Y-120112391D01*
X162530596Y-120130400D01*
X162242645Y-120512431D01*
X162230095Y-120526175D01*
X161291923Y-121377033D01*
X161284441Y-121383179D01*
X160483332Y-121978135D01*
X160478153Y-121981731D01*
X159107248Y-122870308D01*
X159103494Y-122872624D01*
X158515086Y-123217803D01*
X158511547Y-123219783D01*
X158040717Y-123470653D01*
X158036100Y-123472961D01*
X157385513Y-123777199D01*
X157382162Y-123778691D01*
X155635491Y-124517932D01*
X155631682Y-124519452D01*
X155030282Y-124745094D01*
X155024615Y-124747026D01*
X154205784Y-124998932D01*
X154198653Y-125000838D01*
X152357644Y-125420031D01*
X152352585Y-125421045D01*
X150543835Y-125734794D01*
X150543834Y-125734794D01*
X150535768Y-125736194D01*
X150521052Y-125736294D01*
X150496945Y-125742927D01*
X150492217Y-125743748D01*
X150492214Y-125743747D01*
X150472314Y-125747200D01*
X150472309Y-125747202D01*
X150466372Y-125749950D01*
X150451064Y-125755555D01*
X149977125Y-125885994D01*
X149957856Y-125889295D01*
X148492860Y-125993152D01*
X148485859Y-125993400D01*
X147025119Y-125993400D01*
X147018119Y-125993152D01*
X145520191Y-125886967D01*
X145513225Y-125886225D01*
X144056528Y-125678653D01*
X144051243Y-125677753D01*
X143260320Y-125520961D01*
X143256686Y-125520170D01*
X142507805Y-125342238D01*
X142502539Y-125340832D01*
X141011957Y-124898738D01*
X141005677Y-124896645D01*
X139515323Y-124343804D01*
X139506744Y-124340153D01*
X139021734Y-124106211D01*
X138989350Y-124081204D01*
X138987862Y-124079456D01*
X138986204Y-124077507D01*
X138976561Y-124064034D01*
X138973468Y-124058845D01*
X138967666Y-124053202D01*
X138958638Y-124044421D01*
X138952255Y-124037599D01*
X138938850Y-124021841D01*
X138933873Y-124018406D01*
X138921084Y-124007899D01*
X138916747Y-124003680D01*
X138916744Y-124003677D01*
X138916742Y-124003676D01*
X138898683Y-123993583D01*
X138898680Y-123993582D01*
X138894595Y-123991298D01*
X138873730Y-123976898D01*
X138860214Y-123972081D01*
X138852965Y-123968029D01*
X138852964Y-123968028D01*
X138781835Y-123928272D01*
X138743123Y-123889074D01*
X138738865Y-123881227D01*
X138736429Y-123877873D01*
X138733839Y-123874507D01*
X138709764Y-123850495D01*
X138707852Y-123848535D01*
X138700595Y-123840885D01*
X138684414Y-123823827D01*
X138684411Y-123823825D01*
X138681154Y-123821187D01*
X138677820Y-123818635D01*
X138677819Y-123818634D01*
X138648316Y-123801652D01*
X138645974Y-123800260D01*
X138585237Y-123763024D01*
X138581250Y-123758354D01*
X138575494Y-123756214D01*
X138565922Y-123740400D01*
X138545510Y-123716491D01*
X138541630Y-123705254D01*
X138540506Y-123701230D01*
X138540316Y-123700231D01*
X138540104Y-123699793D01*
X138539685Y-123698291D01*
X138539333Y-123697253D01*
X138538871Y-123695856D01*
X138538749Y-123695614D01*
X138538749Y-123695612D01*
X138522431Y-123663156D01*
X138521756Y-123661786D01*
X138505918Y-123628976D01*
X138505916Y-123628974D01*
X138504156Y-123626292D01*
X138504155Y-123626291D01*
X138504145Y-123626275D01*
X138503387Y-123625120D01*
X138479069Y-123597818D01*
X138478019Y-123596620D01*
X138463803Y-123580133D01*
X138440123Y-123523716D01*
X138439975Y-123521691D01*
X138436845Y-123471871D01*
X138434478Y-123434187D01*
X138436153Y-123408833D01*
X138437285Y-123403093D01*
X138448489Y-123346267D01*
X138448588Y-123345774D01*
X138456260Y-123308766D01*
X138456259Y-123308752D01*
X138456409Y-123306727D01*
X138456409Y-123306726D01*
X138456410Y-123306714D01*
X138456468Y-123305927D01*
X138453938Y-123268304D01*
X138453938Y-123268296D01*
X138453902Y-123267761D01*
X138451718Y-123229773D01*
X138451257Y-123228381D01*
X138451158Y-123226905D01*
X138444305Y-123206827D01*
X138439637Y-123163606D01*
X138475571Y-122849178D01*
X138475817Y-122847028D01*
X138480991Y-122814484D01*
X138480296Y-122807835D01*
X138481056Y-122801187D01*
X138476502Y-122770647D01*
X138476185Y-122768329D01*
X138476070Y-122767404D01*
X138472766Y-122735790D01*
X138471842Y-122733381D01*
X138470789Y-122724899D01*
X138472062Y-122718295D01*
X138471230Y-122697354D01*
X138472223Y-122691022D01*
X138481072Y-122634603D01*
X138481665Y-122631216D01*
X138487845Y-122599378D01*
X138487845Y-122599371D01*
X138488178Y-122593900D01*
X138488313Y-122588442D01*
X138484882Y-122556274D01*
X138484567Y-122552708D01*
X138479840Y-122485383D01*
X138481224Y-122460574D01*
X138481768Y-122457612D01*
X138507209Y-122319027D01*
X138514531Y-122289002D01*
X138514332Y-122280224D01*
X138515917Y-122271593D01*
X138513667Y-122243625D01*
X138513376Y-122237973D01*
X138512741Y-122209898D01*
X138510277Y-122201471D01*
X138509574Y-122192724D01*
X138499212Y-122163620D01*
X138498411Y-122160879D01*
X138490541Y-122133957D01*
X138488570Y-122129489D01*
X138482572Y-122116883D01*
X138481612Y-122114185D01*
X138476694Y-122093639D01*
X138475253Y-122082447D01*
X138474865Y-122078950D01*
X138474129Y-122071018D01*
X138471867Y-122046630D01*
X138471865Y-122046626D01*
X138470671Y-122041372D01*
X138469292Y-122036166D01*
X138469292Y-122036162D01*
X138456286Y-122004512D01*
X138444416Y-121972422D01*
X138441281Y-121967995D01*
X138439220Y-121962978D01*
X138419530Y-121937165D01*
X138418456Y-121935757D01*
X138398694Y-121907847D01*
X138394522Y-121904383D01*
X138391231Y-121900069D01*
X138391230Y-121900068D01*
X138374221Y-121886940D01*
X138339709Y-121836417D01*
X138337940Y-121829454D01*
X138335633Y-121818766D01*
X138293600Y-121623987D01*
X138289384Y-121594985D01*
X138285284Y-121585452D01*
X138283094Y-121575304D01*
X138283091Y-121575298D01*
X138283091Y-121575297D01*
X138271244Y-121552224D01*
X138271243Y-121552223D01*
X138269698Y-121549215D01*
X138258123Y-121522300D01*
X138251697Y-121514154D01*
X138246954Y-121504917D01*
X138229521Y-121485677D01*
X138225182Y-121480545D01*
X138209117Y-121460181D01*
X138208497Y-121459719D01*
X138197465Y-121450142D01*
X138195866Y-121448532D01*
X138193828Y-121446283D01*
X138193282Y-121445930D01*
X138189608Y-121442232D01*
X138185407Y-121433918D01*
X138168932Y-121411651D01*
X138167474Y-121408269D01*
X138167471Y-121408264D01*
X138165311Y-121405531D01*
X138159828Y-121398592D01*
X138154231Y-121391509D01*
X138148974Y-121384196D01*
X138005581Y-121164198D01*
X137992975Y-121136063D01*
X137991109Y-121129187D01*
X137990364Y-121123059D01*
X137987558Y-121116096D01*
X137986027Y-121110449D01*
X137986088Y-121109194D01*
X137984424Y-121103581D01*
X137984108Y-121101969D01*
X137973079Y-121079456D01*
X137970167Y-121072923D01*
X137960799Y-121049666D01*
X137959799Y-121048336D01*
X137950028Y-121032404D01*
X137949299Y-121030915D01*
X137932825Y-121012030D01*
X137928307Y-121006454D01*
X137913534Y-120986809D01*
X142214151Y-120986809D01*
X142215104Y-121129716D01*
X142243919Y-121269692D01*
X142299488Y-121401359D01*
X142379674Y-121519648D01*
X142379675Y-121519649D01*
X142379676Y-121519650D01*
X142481401Y-121620027D01*
X142600754Y-121698630D01*
X142600760Y-121698632D01*
X142600763Y-121698634D01*
X142733141Y-121752436D01*
X142733142Y-121752436D01*
X142733149Y-121752439D01*
X142873496Y-121779383D01*
X143016404Y-121778430D01*
X143156380Y-121749615D01*
X143288045Y-121694046D01*
X143288045Y-121694045D01*
X143288047Y-121694045D01*
X143386526Y-121627288D01*
X143406338Y-121613858D01*
X143506715Y-121512133D01*
X143585318Y-121392780D01*
X143639127Y-121260385D01*
X143713207Y-120874522D01*
X143712254Y-120731614D01*
X143683439Y-120591638D01*
X143631493Y-120468557D01*
X143627869Y-120459970D01*
X143547683Y-120341681D01*
X143445958Y-120241304D01*
X143445957Y-120241303D01*
X143326604Y-120162700D01*
X143326600Y-120162698D01*
X143326598Y-120162697D01*
X143194215Y-120108893D01*
X143194208Y-120108890D01*
X143053867Y-120081947D01*
X143053862Y-120081946D01*
X143053859Y-120081946D01*
X142910953Y-120082900D01*
X142770977Y-120111715D01*
X142639310Y-120167284D01*
X142521021Y-120247470D01*
X142420645Y-120349194D01*
X142420643Y-120349196D01*
X142420643Y-120349197D01*
X142342040Y-120468550D01*
X142342040Y-120468551D01*
X142342037Y-120468557D01*
X142288231Y-120600946D01*
X142214152Y-120986801D01*
X142214151Y-120986809D01*
X137913534Y-120986809D01*
X137913250Y-120986431D01*
X137913245Y-120986425D01*
X137911944Y-120985407D01*
X137911942Y-120985405D01*
X137904544Y-120979612D01*
X137897285Y-120971291D01*
X137873513Y-120955317D01*
X137870672Y-120953093D01*
X137850949Y-120937651D01*
X137850947Y-120937650D01*
X137849419Y-120936999D01*
X137832991Y-120928086D01*
X137785099Y-120895905D01*
X137769797Y-120883218D01*
X137664134Y-120775962D01*
X137661236Y-120773020D01*
X137643933Y-120752251D01*
X137633582Y-120744949D01*
X137624693Y-120735926D01*
X137624692Y-120735925D01*
X137604929Y-120724317D01*
X137598002Y-120719850D01*
X137367342Y-120557137D01*
X137359199Y-120551393D01*
X137352809Y-120544613D01*
X137326977Y-120528662D01*
X137313522Y-120519170D01*
X137302159Y-120511155D01*
X137300322Y-120510191D01*
X137284937Y-120502704D01*
X137060858Y-120364342D01*
X137060858Y-120364341D01*
X137060198Y-120363933D01*
X137028756Y-120343896D01*
X137026689Y-120343243D01*
X137024837Y-120342100D01*
X136989699Y-120331563D01*
X136988355Y-120331150D01*
X136919745Y-120309507D01*
X136889677Y-120293951D01*
X136873040Y-120281323D01*
X136871608Y-120280083D01*
X136836310Y-120253442D01*
X136836095Y-120253280D01*
X136804942Y-120229634D01*
X136804623Y-120229452D01*
X136804237Y-120229232D01*
X136804224Y-120229226D01*
X136804222Y-120229225D01*
X136768129Y-120214610D01*
X136767919Y-120214525D01*
X136726806Y-120197748D01*
X136724986Y-120197143D01*
X136718589Y-120194553D01*
X136638511Y-120162129D01*
X136622009Y-120153562D01*
X136530772Y-120094702D01*
X136520767Y-120087317D01*
X136326337Y-119923999D01*
X136264805Y-119872313D01*
X136257962Y-119861349D01*
X136247610Y-119853612D01*
X136242837Y-119837116D01*
X136232409Y-119820409D01*
X136229490Y-119795172D01*
X136229563Y-119789765D01*
X136229750Y-119788752D01*
X136229601Y-119786893D01*
X136229664Y-119782293D01*
X136230255Y-119780551D01*
X136230274Y-119779853D01*
X136230146Y-119779853D01*
X136230151Y-119773359D01*
X136226331Y-119744198D01*
X136226090Y-119742204D01*
X136225926Y-119740719D01*
X136223472Y-119709878D01*
X136222092Y-119705993D01*
X136220957Y-119695713D01*
X136222291Y-119689270D01*
X136221950Y-119667172D01*
X136255708Y-119481173D01*
X136255916Y-119480069D01*
X136262993Y-119443833D01*
X136262992Y-119443819D01*
X136263162Y-119441095D01*
X136263162Y-119441094D01*
X136263163Y-119441077D01*
X136263231Y-119439974D01*
X136263217Y-119439801D01*
X136260128Y-119402342D01*
X136257543Y-119364897D01*
X136256882Y-119362972D01*
X136256715Y-119360946D01*
X136256713Y-119360943D01*
X136256696Y-119360725D01*
X136256558Y-119360043D01*
X136256381Y-119359406D01*
X136255507Y-119355366D01*
X136254673Y-119317820D01*
X136262979Y-119269027D01*
X136304780Y-119023455D01*
X136304993Y-119022259D01*
X136307966Y-119006112D01*
X136311679Y-118985943D01*
X136311678Y-118985941D01*
X136311683Y-118985919D01*
X136311802Y-118983743D01*
X136312342Y-118982344D01*
X136312855Y-118979558D01*
X136313155Y-118979613D01*
X136313462Y-118978370D01*
X136312913Y-118975683D01*
X136312986Y-118975260D01*
X136314179Y-118975465D01*
X136321374Y-118946339D01*
X136328017Y-118932476D01*
X136328017Y-118932471D01*
X136328029Y-118932438D01*
X136328276Y-118931680D01*
X136329256Y-118926360D01*
X136335341Y-118893327D01*
X136342569Y-118854702D01*
X136342568Y-118854699D01*
X136343541Y-118849504D01*
X136343767Y-118847595D01*
X136475451Y-118132832D01*
X136482848Y-118099929D01*
X136482606Y-118093994D01*
X136483682Y-118088157D01*
X136483682Y-118088152D01*
X136484016Y-118081668D01*
X136485350Y-118081736D01*
X136485753Y-118080992D01*
X136487961Y-118062304D01*
X136487739Y-118062267D01*
X136487748Y-118062214D01*
X136488208Y-118060211D01*
X136488731Y-118055787D01*
X136490671Y-118049830D01*
X136492015Y-118045220D01*
X136492018Y-118045215D01*
X136497086Y-118012275D01*
X136497590Y-118009311D01*
X136588039Y-117523848D01*
X136595474Y-117488933D01*
X136595271Y-117485036D01*
X136595987Y-117481194D01*
X136593217Y-117445584D01*
X136591361Y-117409917D01*
X136590154Y-117406199D01*
X136589852Y-117402309D01*
X136588842Y-117399450D01*
X136588543Y-117396124D01*
X136588509Y-117395960D01*
X136588528Y-117395955D01*
X136584460Y-117350712D01*
X136584467Y-117350670D01*
X136590009Y-117316341D01*
X136592479Y-117305185D01*
X136596955Y-117289366D01*
X136597097Y-117279057D01*
X136598355Y-117264649D01*
X136599249Y-117259111D01*
X136599998Y-117254476D01*
X136597746Y-117232418D01*
X136598054Y-117210251D01*
X136593745Y-117193228D01*
X136591962Y-117175762D01*
X136588288Y-117166106D01*
X136588106Y-117162425D01*
X136586006Y-117159394D01*
X136586611Y-117132183D01*
X136585268Y-117104999D01*
X136587368Y-117098224D01*
X136588425Y-117095204D01*
X136593707Y-117080096D01*
X136594179Y-117078778D01*
X136606777Y-117044465D01*
X136606777Y-117044462D01*
X136606859Y-117044240D01*
X136607131Y-117042939D01*
X136607134Y-117042924D01*
X136607761Y-117039909D01*
X136607765Y-117039901D01*
X136610490Y-117003433D01*
X136610607Y-117002024D01*
X136611144Y-116996069D01*
X136626621Y-116954981D01*
X136625260Y-116954239D01*
X136628366Y-116948544D01*
X136629200Y-116946384D01*
X136637383Y-116929922D01*
X136638607Y-116927945D01*
X136645643Y-116904573D01*
X136648076Y-116897483D01*
X136656859Y-116874733D01*
X136658088Y-116863243D01*
X136661419Y-116852182D01*
X136662282Y-116824044D01*
X136665277Y-116796058D01*
X136664917Y-116793759D01*
X136663774Y-116775414D01*
X136663846Y-116773096D01*
X136658244Y-116749295D01*
X136657832Y-116747463D01*
X136657249Y-116744751D01*
X136653047Y-116717887D01*
X136650003Y-116711016D01*
X136647860Y-116701039D01*
X136648858Y-116691335D01*
X136647096Y-116681651D01*
X136646256Y-116681714D01*
X136645773Y-116675194D01*
X136643535Y-116644972D01*
X136643305Y-116640423D01*
X136643270Y-116639163D01*
X136642279Y-116603358D01*
X136647579Y-116568552D01*
X136653135Y-116552326D01*
X136660407Y-116536048D01*
X136662082Y-116533057D01*
X136668805Y-116506565D01*
X136677657Y-116480714D01*
X136678499Y-116468367D01*
X136681545Y-116456365D01*
X136681182Y-116429027D01*
X136683041Y-116401774D01*
X136680659Y-116389631D01*
X136679937Y-116335222D01*
X136681312Y-116317415D01*
X136681360Y-116317125D01*
X136681874Y-116314089D01*
X136679671Y-116290832D01*
X136679241Y-116282844D01*
X136678932Y-116259485D01*
X136678014Y-116256234D01*
X136674734Y-116238678D01*
X136674416Y-116235318D01*
X136666260Y-116213400D01*
X136665050Y-116209948D01*
X136664367Y-116207880D01*
X136657440Y-116183336D01*
X136654797Y-116178897D01*
X136651401Y-116168609D01*
X136651355Y-116159064D01*
X136646595Y-116143636D01*
X136646223Y-116137576D01*
X136646081Y-116128565D01*
X136646157Y-116126009D01*
X136646716Y-116107229D01*
X136643530Y-116093749D01*
X136642681Y-116079932D01*
X136634467Y-116055406D01*
X136633430Y-116051018D01*
X136633430Y-116051016D01*
X136622338Y-116004087D01*
X136618633Y-115988416D01*
X136617413Y-115948863D01*
X136642655Y-115802159D01*
X136645680Y-115791609D01*
X136645393Y-115791534D01*
X136647041Y-115785260D01*
X136647043Y-115785256D01*
X136650910Y-115754740D01*
X136651539Y-115750528D01*
X136656759Y-115720193D01*
X136656142Y-115713465D01*
X136656992Y-115706761D01*
X136652538Y-115674151D01*
X136649536Y-115641400D01*
X136649534Y-115641394D01*
X136648104Y-115635068D01*
X136648394Y-115635002D01*
X136645735Y-115624347D01*
X136636420Y-115556144D01*
X136625907Y-115479161D01*
X136624390Y-115451744D01*
X136620575Y-115440119D01*
X136618919Y-115427991D01*
X136608284Y-115402663D01*
X136599720Y-115376566D01*
X136593023Y-115366319D01*
X136588286Y-115355038D01*
X136573883Y-115336454D01*
X136569285Y-115330002D01*
X136482404Y-115197070D01*
X136467984Y-115161229D01*
X136466723Y-115154532D01*
X136416215Y-114886326D01*
X136415448Y-114868372D01*
X136408926Y-114847619D01*
X136404899Y-114826235D01*
X136400195Y-114816447D01*
X136394981Y-114803249D01*
X136390947Y-114790414D01*
X136351708Y-114665555D01*
X136342220Y-114631839D01*
X136339868Y-114627881D01*
X136338488Y-114623489D01*
X136324088Y-114600840D01*
X136320508Y-114595209D01*
X136318942Y-114592662D01*
X136252188Y-114480315D01*
X136241357Y-114454163D01*
X136241278Y-114453852D01*
X136195803Y-114275176D01*
X136194654Y-114261007D01*
X136186086Y-114236996D01*
X136179796Y-114212281D01*
X136172841Y-114199878D01*
X136168063Y-114186486D01*
X136153566Y-114165502D01*
X136141099Y-114143267D01*
X136140594Y-114142749D01*
X136137001Y-114139064D01*
X136126427Y-114126218D01*
X135847255Y-113722116D01*
X135819566Y-113682036D01*
X135814978Y-113671682D01*
X135797158Y-113649599D01*
X135781030Y-113626254D01*
X135779478Y-113624935D01*
X135766559Y-113611681D01*
X135750382Y-113591635D01*
X135495690Y-113276020D01*
X135416640Y-113178061D01*
X135416640Y-113178060D01*
X135410621Y-113170602D01*
X135405728Y-113161339D01*
X135385862Y-113139921D01*
X135367517Y-113117188D01*
X135367516Y-113117187D01*
X135367515Y-113117186D01*
X135367514Y-113117185D01*
X135366784Y-113116653D01*
X135352536Y-113103992D01*
X135351920Y-113103328D01*
X135351919Y-113103327D01*
X135330061Y-113089587D01*
X135328208Y-113088393D01*
X135326278Y-113087118D01*
X135303584Y-113070572D01*
X135297874Y-113068368D01*
X135288949Y-113062477D01*
X135284527Y-113056931D01*
X135273024Y-113049394D01*
X135144355Y-112919004D01*
X135132985Y-112905177D01*
X135131140Y-112902466D01*
X135113378Y-112887156D01*
X135107560Y-112881718D01*
X135091089Y-112865026D01*
X135091088Y-112865025D01*
X135091087Y-112865024D01*
X135088259Y-112863366D01*
X135088259Y-112863367D01*
X135080502Y-112858819D01*
X135071207Y-112850808D01*
X135046494Y-112838883D01*
X135043048Y-112836863D01*
X135043047Y-112836861D01*
X135022838Y-112825014D01*
X135022830Y-112825011D01*
X135019661Y-112824139D01*
X135002906Y-112817851D01*
X134954732Y-112794606D01*
X134947764Y-112791243D01*
X134915379Y-112766225D01*
X134912617Y-112762978D01*
X134898030Y-112742495D01*
X134888502Y-112734628D01*
X134882850Y-112727983D01*
X134882819Y-112727909D01*
X134882623Y-112727715D01*
X134880272Y-112724932D01*
X134880270Y-112724929D01*
X134861312Y-112711744D01*
X134861311Y-112711743D01*
X134857956Y-112709410D01*
X134837015Y-112692120D01*
X134825610Y-112686912D01*
X134815313Y-112679750D01*
X134793584Y-112671918D01*
X134793584Y-112671917D01*
X134789737Y-112670530D01*
X134765042Y-112659254D01*
X134752681Y-112657175D01*
X134744302Y-112654156D01*
X134744300Y-112654156D01*
X134678683Y-112630506D01*
X134660416Y-112621716D01*
X134644396Y-112611870D01*
X134561824Y-112561119D01*
X134422196Y-112475300D01*
X134421215Y-112474689D01*
X134389769Y-112454852D01*
X134387601Y-112453853D01*
X134387600Y-112453852D01*
X134386685Y-112453431D01*
X134386546Y-112453389D01*
X134386545Y-112453389D01*
X134350857Y-112442765D01*
X134349827Y-112442452D01*
X134323982Y-112434430D01*
X134286509Y-112412929D01*
X134284746Y-112411316D01*
X134278501Y-112405603D01*
X134269162Y-112400751D01*
X134256942Y-112393230D01*
X134248408Y-112387083D01*
X134248404Y-112387080D01*
X134248399Y-112387078D01*
X134233226Y-112381324D01*
X134222689Y-112376609D01*
X134208286Y-112369126D01*
X134198011Y-112366857D01*
X134190984Y-112365306D01*
X134174422Y-112359026D01*
X134152524Y-112356814D01*
X134146872Y-112355566D01*
X134146871Y-112355565D01*
X134081196Y-112341064D01*
X134043199Y-112323635D01*
X134021475Y-112307366D01*
X134016000Y-112302954D01*
X133996832Y-112286349D01*
X133996830Y-112286347D01*
X133996827Y-112286345D01*
X133987090Y-112281616D01*
X133978429Y-112275130D01*
X133951629Y-112264395D01*
X133925653Y-112251780D01*
X133925651Y-112251779D01*
X133925650Y-112251779D01*
X133924305Y-112251520D01*
X133924305Y-112251519D01*
X133915021Y-112249731D01*
X133904979Y-112245709D01*
X133876314Y-112242276D01*
X133817472Y-112230942D01*
X133805184Y-112228575D01*
X133778410Y-112219287D01*
X133678570Y-112167619D01*
X133672623Y-112164071D01*
X133637112Y-112146158D01*
X133636199Y-112145692D01*
X133618321Y-112136440D01*
X133602876Y-112128447D01*
X133602875Y-112128446D01*
X133602872Y-112128445D01*
X133600990Y-112127765D01*
X133600989Y-112127764D01*
X133600040Y-112127421D01*
X133563221Y-112119751D01*
X133562222Y-112119537D01*
X133523348Y-112111018D01*
X133516493Y-112110015D01*
X133421462Y-112090217D01*
X133398891Y-112082586D01*
X133278265Y-112024816D01*
X133271370Y-112021514D01*
X133270200Y-112020532D01*
X133235698Y-112004430D01*
X133201388Y-111987999D01*
X133201387Y-111987998D01*
X133201281Y-111987948D01*
X133200421Y-111987676D01*
X133200421Y-111987677D01*
X133198500Y-111987071D01*
X133161498Y-111980534D01*
X133160531Y-111980358D01*
X133121225Y-111973010D01*
X133114571Y-111972245D01*
X133105404Y-111970626D01*
X133074858Y-111958351D01*
X133074516Y-111959044D01*
X133067324Y-111955493D01*
X133051373Y-111945637D01*
X133050150Y-111944711D01*
X133050148Y-111944709D01*
X133050143Y-111944706D01*
X133038464Y-111939952D01*
X133026824Y-111935214D01*
X133023521Y-111933869D01*
X132997754Y-111921149D01*
X132987005Y-111919006D01*
X132982698Y-111917253D01*
X132978276Y-111915453D01*
X132978275Y-111915452D01*
X132976856Y-111914875D01*
X132951883Y-111911742D01*
X132944853Y-111910602D01*
X132850612Y-111891816D01*
X132811106Y-111874328D01*
X132809985Y-111873499D01*
X132798878Y-111864792D01*
X132797300Y-111864119D01*
X132795538Y-111862816D01*
X132795344Y-111862702D01*
X132761172Y-111848702D01*
X132759873Y-111848159D01*
X132726092Y-111833754D01*
X132723392Y-111833001D01*
X132723390Y-111832999D01*
X132722156Y-111832655D01*
X132721931Y-111832626D01*
X132685539Y-111827977D01*
X132684150Y-111827789D01*
X132647757Y-111822614D01*
X132645007Y-111822585D01*
X132644892Y-111822585D01*
X132643652Y-111822571D01*
X132643084Y-111822649D01*
X132642460Y-111822592D01*
X132642265Y-111822605D01*
X132636964Y-111822626D01*
X132636961Y-111822098D01*
X132599220Y-111818705D01*
X132595201Y-111817400D01*
X132586298Y-111814028D01*
X132567656Y-111805922D01*
X132567655Y-111805921D01*
X132561319Y-111804974D01*
X132545387Y-111801222D01*
X132477655Y-111779226D01*
X132477653Y-111779226D01*
X132469683Y-111776637D01*
X132457176Y-111770080D01*
X132432218Y-111764470D01*
X132407873Y-111756564D01*
X132406025Y-111756467D01*
X132402119Y-111756263D01*
X132402119Y-111756262D01*
X132393755Y-111755825D01*
X132379979Y-111752729D01*
X132354419Y-111753769D01*
X132349812Y-111753529D01*
X132349811Y-111753528D01*
X132347612Y-111753414D01*
X132310311Y-111743978D01*
X132289067Y-111733890D01*
X132287941Y-111733346D01*
X132254669Y-111717027D01*
X132252367Y-111716251D01*
X132252329Y-111716239D01*
X132251212Y-111715862D01*
X132214612Y-111709142D01*
X132213390Y-111708910D01*
X132175551Y-111701469D01*
X132167250Y-111700448D01*
X132040294Y-111677141D01*
X131962763Y-111662907D01*
X131937672Y-111654724D01*
X131936356Y-111654090D01*
X131930924Y-111651263D01*
X131907284Y-111638014D01*
X131906074Y-111637531D01*
X131890777Y-111631968D01*
X131889531Y-111631558D01*
X131862899Y-111626526D01*
X131861698Y-111626292D01*
X131859281Y-111625804D01*
X131830599Y-111618510D01*
X131823577Y-111618599D01*
X131813257Y-111616517D01*
X131803333Y-111610923D01*
X131798613Y-111609766D01*
X131797760Y-111612028D01*
X131770779Y-111601848D01*
X131762940Y-111598498D01*
X131742802Y-111588846D01*
X131742794Y-111588844D01*
X131738483Y-111588036D01*
X131729916Y-111586432D01*
X131717661Y-111581809D01*
X131691188Y-111579180D01*
X131280423Y-111502258D01*
X131257627Y-111495051D01*
X131180868Y-111460098D01*
X131179310Y-111459372D01*
X131146743Y-111443854D01*
X131146704Y-111443842D01*
X131143432Y-111442780D01*
X131143431Y-111442779D01*
X131142386Y-111442441D01*
X131141791Y-111442295D01*
X131141744Y-111442280D01*
X131106151Y-111436335D01*
X131104463Y-111436038D01*
X130679552Y-111357472D01*
X130651444Y-111346284D01*
X130651026Y-111347125D01*
X130650624Y-111346925D01*
X130645072Y-111343748D01*
X130643732Y-111343215D01*
X130641746Y-111341929D01*
X130641721Y-111341917D01*
X130641719Y-111341915D01*
X130608487Y-111325985D01*
X130607354Y-111325432D01*
X130602705Y-111323123D01*
X130574401Y-111309064D01*
X130574399Y-111309063D01*
X130574394Y-111309061D01*
X130571737Y-111308150D01*
X130570584Y-111307754D01*
X130534235Y-111300944D01*
X130534235Y-111300943D01*
X130533477Y-111300801D01*
X130496842Y-111293405D01*
X130494702Y-111293538D01*
X130491956Y-111293024D01*
X130486650Y-111292030D01*
X130486649Y-111292030D01*
X130486648Y-111292030D01*
X130074264Y-111214775D01*
X130043363Y-111202303D01*
X130043219Y-111202597D01*
X130042949Y-111202464D01*
X130041011Y-111201354D01*
X130038071Y-111200168D01*
X130036638Y-111199225D01*
X130036024Y-111198817D01*
X130035506Y-111198470D01*
X130001163Y-111181831D01*
X130000836Y-111181673D01*
X129966358Y-111164654D01*
X129965256Y-111164434D01*
X129964246Y-111163945D01*
X129964242Y-111163944D01*
X129964240Y-111163943D01*
X129931724Y-111157711D01*
X129926809Y-111156768D01*
X129926163Y-111156642D01*
X129905383Y-111152500D01*
X129796335Y-111130765D01*
X129768713Y-111120821D01*
X129759465Y-111115836D01*
X129756297Y-111113048D01*
X129731576Y-111100803D01*
X129730056Y-111099984D01*
X129729926Y-111099848D01*
X129727131Y-111098343D01*
X129704776Y-111085297D01*
X129704765Y-111085292D01*
X129703983Y-111085079D01*
X129686127Y-111078293D01*
X129685393Y-111077930D01*
X129685391Y-111077929D01*
X129685390Y-111077929D01*
X129659991Y-111072830D01*
X129653407Y-111071272D01*
X129350268Y-110988521D01*
X129326263Y-110978417D01*
X129237829Y-110926563D01*
X129223755Y-110916566D01*
X129220252Y-110913586D01*
X129220251Y-110913585D01*
X129196357Y-110902245D01*
X129173544Y-110888869D01*
X129160752Y-110885349D01*
X129152925Y-110881634D01*
X129152923Y-110881633D01*
X129148774Y-110879663D01*
X129148767Y-110879661D01*
X129140472Y-110878141D01*
X129094517Y-110856459D01*
X129084642Y-110848135D01*
X129081338Y-110845222D01*
X129058837Y-110824458D01*
X129058835Y-110824457D01*
X129058832Y-110824454D01*
X129053536Y-110820718D01*
X129053697Y-110820489D01*
X129053170Y-110820135D01*
X129053020Y-110820371D01*
X129047559Y-110816874D01*
X129019849Y-110803876D01*
X129019849Y-110803875D01*
X129017827Y-110802926D01*
X128988782Y-110787677D01*
X128982111Y-110786173D01*
X128972351Y-110781595D01*
X128972350Y-110781594D01*
X128972349Y-110781594D01*
X128965472Y-110778368D01*
X128931128Y-110751713D01*
X128924749Y-110743975D01*
X128924769Y-110743958D01*
X128922420Y-110741262D01*
X128922401Y-110741281D01*
X128918001Y-110736502D01*
X128910535Y-110730267D01*
X128896004Y-110718131D01*
X128891986Y-110714585D01*
X128885840Y-110708854D01*
X128858667Y-110665340D01*
X128857267Y-110660752D01*
X128750822Y-110311831D01*
X128751927Y-110250656D01*
X128756505Y-110239603D01*
X128759227Y-110234009D01*
X128759235Y-110233998D01*
X128768942Y-110204916D01*
X128770423Y-110200793D01*
X128772183Y-110196216D01*
X128781412Y-110172205D01*
X128781412Y-110172203D01*
X128782929Y-110165898D01*
X128783208Y-110165965D01*
X128783337Y-110165370D01*
X128783055Y-110165316D01*
X128784286Y-110158954D01*
X128784289Y-110158947D01*
X128786271Y-110126164D01*
X128789717Y-110093519D01*
X128788652Y-110086781D01*
X128789065Y-110079968D01*
X128782494Y-110047786D01*
X128777374Y-110015366D01*
X128774602Y-110009133D01*
X128760495Y-109940045D01*
X128760095Y-109902516D01*
X128760895Y-109898122D01*
X128767279Y-109863040D01*
X128780666Y-109832179D01*
X128779145Y-109831334D01*
X128782303Y-109825648D01*
X128782306Y-109825645D01*
X128782529Y-109825241D01*
X128793498Y-109809370D01*
X128793798Y-109809016D01*
X128806391Y-109782298D01*
X128820737Y-109756482D01*
X128823203Y-109746633D01*
X128827534Y-109737446D01*
X128832784Y-109708374D01*
X128839958Y-109679730D01*
X128839791Y-109669578D01*
X128997506Y-108796340D01*
X129017663Y-108752045D01*
X129024602Y-108743383D01*
X129029182Y-108732946D01*
X129035655Y-108720631D01*
X129041657Y-108710937D01*
X129046089Y-108696218D01*
X129050223Y-108685000D01*
X129056399Y-108670930D01*
X129059176Y-108652767D01*
X129064475Y-108635175D01*
X129065131Y-108613827D01*
X129084256Y-108488766D01*
X129084488Y-108487325D01*
X129086187Y-108477240D01*
X129090564Y-108451262D01*
X129090563Y-108451254D01*
X129090670Y-108448280D01*
X129090670Y-108448277D01*
X129090672Y-108448239D01*
X129090720Y-108446908D01*
X129090633Y-108446121D01*
X129090714Y-108445658D01*
X129090830Y-108440176D01*
X129091683Y-108440193D01*
X129099164Y-108397973D01*
X129098133Y-108397620D01*
X129098280Y-108397191D01*
X129100094Y-108392727D01*
X129100188Y-108392196D01*
X129100000Y-108392107D01*
X129100326Y-108391416D01*
X129100361Y-108391223D01*
X129100573Y-108390796D01*
X129100851Y-108390307D01*
X129101123Y-108389733D01*
X129101977Y-108387974D01*
X129102249Y-108387426D01*
X129102454Y-108386923D01*
X129102783Y-108386224D01*
X129102789Y-108386216D01*
X129111077Y-108360447D01*
X129113740Y-108352168D01*
X129113740Y-108352167D01*
X129114027Y-108351272D01*
X129125917Y-108316613D01*
X129126118Y-108313685D01*
X129127016Y-108310894D01*
X129128782Y-108275168D01*
X129128886Y-108273404D01*
X129143230Y-108064701D01*
X129156758Y-108021137D01*
X129158309Y-108018510D01*
X129174486Y-107994641D01*
X129177435Y-107986132D01*
X129181965Y-107978463D01*
X129182120Y-107978203D01*
X129189597Y-107951595D01*
X129191362Y-107945971D01*
X129200406Y-107919889D01*
X129200407Y-107919886D01*
X129200408Y-107919884D01*
X129201063Y-107910798D01*
X129203527Y-107902031D01*
X129203898Y-107871466D01*
X129206098Y-107840967D01*
X129205914Y-107837863D01*
X129204501Y-107821991D01*
X129205151Y-107768587D01*
X129205769Y-107717749D01*
X129211241Y-107686479D01*
X129245777Y-107587041D01*
X133765914Y-107587041D01*
X133771265Y-107646417D01*
X133771266Y-107646424D01*
X133771267Y-107646426D01*
X133800688Y-107746388D01*
X133951822Y-108259900D01*
X133979496Y-108312725D01*
X134015328Y-108342630D01*
X134040733Y-108363833D01*
X134080477Y-108376250D01*
X134130379Y-108411649D01*
X134149946Y-108469622D01*
X134131700Y-108528023D01*
X134126958Y-108534181D01*
X134100277Y-108566148D01*
X134100276Y-108566150D01*
X134076490Y-108642285D01*
X134076490Y-108642286D01*
X134081841Y-108701662D01*
X134081842Y-108701669D01*
X134081843Y-108701671D01*
X134136003Y-108885692D01*
X134375334Y-109698871D01*
X134375336Y-109698874D01*
X134403008Y-109751693D01*
X134464245Y-109802804D01*
X134503988Y-109815221D01*
X134553891Y-109850620D01*
X134573458Y-109908593D01*
X134555212Y-109966994D01*
X134550470Y-109973151D01*
X134523792Y-110005115D01*
X134523790Y-110005119D01*
X134500002Y-110081257D01*
X134505353Y-110140633D01*
X134505354Y-110140640D01*
X134505355Y-110140642D01*
X134544870Y-110274902D01*
X134685910Y-110754116D01*
X134713584Y-110806941D01*
X134749267Y-110836721D01*
X134774821Y-110858049D01*
X134774822Y-110858049D01*
X134774823Y-110858050D01*
X134850955Y-110881836D01*
X134910334Y-110876485D01*
X134910335Y-110876484D01*
X134910343Y-110876484D01*
X135937050Y-110574307D01*
X135998209Y-110576015D01*
X136046685Y-110613347D01*
X136059971Y-110641326D01*
X136065688Y-110660752D01*
X136065689Y-110660753D01*
X136093361Y-110713572D01*
X136154598Y-110764682D01*
X136230733Y-110788469D01*
X136277899Y-110784218D01*
X136290112Y-110783118D01*
X136290113Y-110783117D01*
X136290121Y-110783117D01*
X136903598Y-110602560D01*
X136956417Y-110574889D01*
X137007528Y-110513651D01*
X137011326Y-110501497D01*
X137031315Y-110437518D01*
X137031315Y-110437514D01*
X137025964Y-110378137D01*
X137025962Y-110378126D01*
X137020246Y-110358704D01*
X137021953Y-110297545D01*
X137059283Y-110249067D01*
X137087262Y-110235781D01*
X138034134Y-109957101D01*
X138095294Y-109958809D01*
X138132085Y-109982067D01*
X138203188Y-110053170D01*
X138273075Y-110093519D01*
X138283112Y-110099314D01*
X138372256Y-110123200D01*
X138651910Y-110123200D01*
X138710101Y-110142107D01*
X138721914Y-110152196D01*
X139772147Y-111202429D01*
X139799924Y-111256946D01*
X139790353Y-111317378D01*
X139751643Y-111358169D01*
X139677290Y-111401096D01*
X139584096Y-111494290D01*
X139518209Y-111608409D01*
X139502472Y-111667141D01*
X139489314Y-111716251D01*
X139484100Y-111735709D01*
X139484100Y-111836121D01*
X139465193Y-111894312D01*
X139455109Y-111906118D01*
X139114989Y-112246240D01*
X139114988Y-112246239D01*
X139059039Y-112302189D01*
X139019480Y-112370707D01*
X139019478Y-112370711D01*
X138999000Y-112447135D01*
X138999000Y-116641164D01*
X139019477Y-116717585D01*
X139019478Y-116717587D01*
X139019479Y-116717589D01*
X139050409Y-116771162D01*
X139050410Y-116771163D01*
X139050410Y-116771164D01*
X139059036Y-116786106D01*
X139059037Y-116786107D01*
X139059038Y-116786108D01*
X139059040Y-116786111D01*
X141968740Y-119695811D01*
X141968739Y-119695811D01*
X142024689Y-119751760D01*
X142093207Y-119791319D01*
X142093211Y-119791321D01*
X142169635Y-119811799D01*
X142169637Y-119811800D01*
X142169638Y-119811800D01*
X145707221Y-119811800D01*
X145765412Y-119830707D01*
X145777225Y-119840796D01*
X146573805Y-120637376D01*
X146601582Y-120691893D01*
X146592011Y-120752325D01*
X146548746Y-120795590D01*
X146523763Y-120804347D01*
X146453717Y-120818766D01*
X146322052Y-120874335D01*
X146213753Y-120947748D01*
X146154977Y-120964748D01*
X146097433Y-120943954D01*
X146076258Y-120921351D01*
X146002843Y-120813050D01*
X145962281Y-120773025D01*
X145901117Y-120712672D01*
X145781764Y-120634069D01*
X145781760Y-120634067D01*
X145781758Y-120634066D01*
X145649375Y-120580262D01*
X145649368Y-120580259D01*
X145509027Y-120553316D01*
X145509022Y-120553315D01*
X145509019Y-120553315D01*
X145366113Y-120554269D01*
X145226137Y-120583084D01*
X145094470Y-120638653D01*
X144976181Y-120718839D01*
X144875805Y-120820563D01*
X144875803Y-120820565D01*
X144875803Y-120820566D01*
X144797200Y-120939919D01*
X144797200Y-120939920D01*
X144797197Y-120939926D01*
X144743391Y-121072315D01*
X144669312Y-121458170D01*
X144669311Y-121458178D01*
X144670264Y-121601085D01*
X144699079Y-121741061D01*
X144754648Y-121872728D01*
X144834834Y-121991017D01*
X144834835Y-121991018D01*
X144834836Y-121991019D01*
X144936561Y-122091396D01*
X145055914Y-122169999D01*
X145055920Y-122170001D01*
X145055923Y-122170003D01*
X145188301Y-122223805D01*
X145188302Y-122223805D01*
X145188309Y-122223808D01*
X145328656Y-122250752D01*
X145471564Y-122249799D01*
X145611540Y-122220984D01*
X145743205Y-122165415D01*
X145743205Y-122165414D01*
X145743207Y-122165414D01*
X145851504Y-122092002D01*
X145910280Y-122075001D01*
X145967824Y-122095794D01*
X145989000Y-122118398D01*
X146062415Y-122226699D01*
X146062416Y-122226700D01*
X146062417Y-122226701D01*
X146164142Y-122327078D01*
X146283495Y-122405681D01*
X146283501Y-122405683D01*
X146283504Y-122405685D01*
X146415882Y-122459487D01*
X146415883Y-122459487D01*
X146415890Y-122459490D01*
X146556237Y-122486434D01*
X146699145Y-122485481D01*
X146839121Y-122456666D01*
X146970786Y-122401097D01*
X146970786Y-122401096D01*
X146970788Y-122401096D01*
X146991236Y-122387235D01*
X147050012Y-122370234D01*
X147107555Y-122391027D01*
X147136097Y-122426466D01*
X147155569Y-122467180D01*
X147155570Y-122467182D01*
X147250228Y-122569747D01*
X147250229Y-122569748D01*
X147361947Y-122634650D01*
X147370914Y-122639859D01*
X147401077Y-122648636D01*
X147401089Y-122648638D01*
X147401092Y-122648639D01*
X148026197Y-122768654D01*
X148026204Y-122768655D01*
X148057469Y-122771672D01*
X148057470Y-122771671D01*
X148057473Y-122771672D01*
X148195542Y-122751240D01*
X148321455Y-122691020D01*
X148424022Y-122596361D01*
X148494132Y-122475675D01*
X148502910Y-122445512D01*
X148503840Y-122440673D01*
X148670064Y-121574875D01*
X148670065Y-121574868D01*
X148673082Y-121543603D01*
X148673081Y-121543602D01*
X148673082Y-121543600D01*
X148652650Y-121405531D01*
X148592430Y-121279619D01*
X148592429Y-121279617D01*
X148497771Y-121177052D01*
X148497770Y-121177051D01*
X148377087Y-121106941D01*
X148377083Y-121106940D01*
X148370767Y-121105102D01*
X148346932Y-121098166D01*
X148346907Y-121098160D01*
X147804514Y-120994025D01*
X147753176Y-120966805D01*
X146906140Y-120119769D01*
X146057211Y-119270840D01*
X146057208Y-119270838D01*
X146057206Y-119270836D01*
X146054078Y-119269031D01*
X146054074Y-119269027D01*
X146054074Y-119269029D01*
X145988689Y-119231279D01*
X145988688Y-119231278D01*
X145988687Y-119231278D01*
X145912264Y-119210800D01*
X145912262Y-119210800D01*
X142374679Y-119210800D01*
X142316488Y-119191893D01*
X142304675Y-119181804D01*
X140833228Y-117710357D01*
X140805451Y-117655840D01*
X140815022Y-117595408D01*
X140858287Y-117552143D01*
X140918719Y-117542572D01*
X140954545Y-117555689D01*
X141351718Y-117796416D01*
X141407762Y-117816780D01*
X141407762Y-117816779D01*
X141407763Y-117816780D01*
X141421043Y-117816193D01*
X141487448Y-117813259D01*
X141525175Y-117795642D01*
X141585898Y-117788154D01*
X141639428Y-117817789D01*
X141665316Y-117873228D01*
X141665963Y-117880974D01*
X141667801Y-117922569D01*
X141667801Y-117922571D01*
X141701546Y-117994841D01*
X141701547Y-117994842D01*
X141701549Y-117994845D01*
X141745533Y-118035106D01*
X142292420Y-118366573D01*
X142348463Y-118386938D01*
X142348463Y-118386937D01*
X142348464Y-118386938D01*
X142375025Y-118385764D01*
X142428149Y-118383417D01*
X142464223Y-118366573D01*
X142500419Y-118349672D01*
X142500419Y-118349671D01*
X142500423Y-118349670D01*
X142540684Y-118305686D01*
X143095421Y-117390425D01*
X143141751Y-117350463D01*
X143202723Y-117345365D01*
X143231397Y-117357078D01*
X143237895Y-117361016D01*
X143248715Y-117367574D01*
X143304758Y-117387939D01*
X143304758Y-117387938D01*
X143304759Y-117387939D01*
X143344601Y-117386178D01*
X143384444Y-117384417D01*
X143456718Y-117350670D01*
X143496979Y-117306686D01*
X143635249Y-117078552D01*
X143638704Y-117073246D01*
X143639140Y-117072621D01*
X143639514Y-117072338D01*
X143641800Y-117068987D01*
X143643463Y-117066818D01*
X143643470Y-117066812D01*
X143664228Y-117030856D01*
X143665198Y-117029216D01*
X143747854Y-116892806D01*
X143794179Y-116852838D01*
X143855151Y-116847732D01*
X143902523Y-116874105D01*
X144160488Y-117132070D01*
X144190759Y-117149547D01*
X144223614Y-117168516D01*
X144223617Y-117168517D01*
X144223620Y-117168519D01*
X144240412Y-117178214D01*
X144329556Y-117202100D01*
X147497510Y-117202100D01*
X147555701Y-117221007D01*
X147567513Y-117231096D01*
X148041230Y-117704812D01*
X148106487Y-117770068D01*
X148106489Y-117770070D01*
X148150783Y-117795643D01*
X148186412Y-117816214D01*
X148275556Y-117840100D01*
X148516478Y-117840100D01*
X148574669Y-117859007D01*
X148610633Y-117908507D01*
X148614015Y-117922147D01*
X148664601Y-118213234D01*
X148664601Y-118229144D01*
X148672465Y-118258495D01*
X148673224Y-118262864D01*
X148673227Y-118262877D01*
X148675893Y-118278216D01*
X148678707Y-118294403D01*
X148678898Y-118295193D01*
X148724580Y-118558017D01*
X148746056Y-118613644D01*
X148756904Y-118625032D01*
X148801073Y-118671397D01*
X148874003Y-118703701D01*
X148933615Y-118705147D01*
X148953561Y-118701680D01*
X149014130Y-118710342D01*
X149058040Y-118752952D01*
X149068053Y-118782264D01*
X149244569Y-119797833D01*
X149251325Y-119836705D01*
X149272801Y-119892332D01*
X149327818Y-119950085D01*
X149400748Y-119982388D01*
X149460359Y-119983835D01*
X150090409Y-119874326D01*
X150146036Y-119852851D01*
X150203789Y-119797833D01*
X150220652Y-119759761D01*
X150261506Y-119714214D01*
X150321330Y-119701379D01*
X150377273Y-119726158D01*
X150382840Y-119731561D01*
X150411570Y-119761719D01*
X150484500Y-119794022D01*
X150544111Y-119795469D01*
X151568253Y-119617464D01*
X151623880Y-119595988D01*
X151681633Y-119540971D01*
X151698496Y-119502897D01*
X151739348Y-119457352D01*
X151799171Y-119444516D01*
X151855115Y-119469294D01*
X151860684Y-119474698D01*
X151889414Y-119504857D01*
X151962344Y-119537160D01*
X152021955Y-119538607D01*
X152652005Y-119429098D01*
X152707632Y-119407623D01*
X152765385Y-119352605D01*
X152797689Y-119279675D01*
X152799135Y-119220064D01*
X152765057Y-119023999D01*
X154731599Y-119023999D01*
X154731599Y-119024000D01*
X154746998Y-119258944D01*
X154792934Y-119489879D01*
X154868618Y-119712836D01*
X154972753Y-119923999D01*
X155103562Y-120119769D01*
X155103570Y-120119779D01*
X155245249Y-120281332D01*
X155258807Y-120296792D01*
X155435829Y-120452036D01*
X155588833Y-120554269D01*
X155631600Y-120582845D01*
X155842762Y-120686980D01*
X155842764Y-120686980D01*
X155842769Y-120686983D01*
X156065725Y-120762666D01*
X156296652Y-120808600D01*
X156531599Y-120824000D01*
X156766547Y-120808600D01*
X156997474Y-120762666D01*
X157220430Y-120686983D01*
X157431600Y-120582845D01*
X157627370Y-120452036D01*
X157804392Y-120296792D01*
X157959636Y-120119770D01*
X158090445Y-119924000D01*
X158194583Y-119712830D01*
X158270266Y-119489874D01*
X158316200Y-119258947D01*
X158331600Y-119024000D01*
X158329105Y-118985943D01*
X158316200Y-118789054D01*
X158316200Y-118789052D01*
X158270266Y-118558125D01*
X158194583Y-118335169D01*
X158187649Y-118321109D01*
X158090445Y-118123999D01*
X157959636Y-117928229D01*
X157959628Y-117928219D01*
X157804400Y-117751216D01*
X157804399Y-117751215D01*
X157804392Y-117751207D01*
X157798767Y-117746274D01*
X157627379Y-117595970D01*
X157627369Y-117595962D01*
X157431599Y-117465153D01*
X157220436Y-117361018D01*
X156997479Y-117285334D01*
X156766544Y-117239398D01*
X156531599Y-117223999D01*
X156296654Y-117239398D01*
X156065719Y-117285334D01*
X155842762Y-117361018D01*
X155631599Y-117465153D01*
X155435829Y-117595962D01*
X155435819Y-117595970D01*
X155258816Y-117751198D01*
X155258798Y-117751216D01*
X155103570Y-117928219D01*
X155103562Y-117928229D01*
X154972753Y-118123999D01*
X154868618Y-118335162D01*
X154792934Y-118558119D01*
X154746998Y-118789054D01*
X154731599Y-119023999D01*
X152765057Y-119023999D01*
X152724221Y-118789052D01*
X152716296Y-118743453D01*
X152724960Y-118682884D01*
X152767570Y-118638975D01*
X152787729Y-118631004D01*
X152800547Y-118627500D01*
X152820444Y-118627500D01*
X152909588Y-118603614D01*
X152917995Y-118598760D01*
X152989512Y-118557470D01*
X156906469Y-114640512D01*
X156909083Y-114635985D01*
X156945840Y-114572321D01*
X156962812Y-114557038D01*
X156977058Y-114539185D01*
X156985104Y-114536966D01*
X156991309Y-114531380D01*
X157014026Y-114528992D01*
X157036042Y-114522922D01*
X157043855Y-114525856D01*
X157052159Y-114524984D01*
X157093321Y-114544435D01*
X157167810Y-114603868D01*
X157176067Y-114611249D01*
X157188305Y-114623486D01*
X157190888Y-114626069D01*
X157201634Y-114632273D01*
X157213611Y-114640412D01*
X157223569Y-114648357D01*
X157223719Y-114648422D01*
X157228832Y-114652474D01*
X157228864Y-114652523D01*
X157229096Y-114652684D01*
X157437449Y-114818952D01*
X157437450Y-114818952D01*
X157437451Y-114818953D01*
X157490419Y-114846338D01*
X157563168Y-114852498D01*
X157569898Y-114853068D01*
X157569898Y-114853067D01*
X157569899Y-114853068D01*
X157645904Y-114828871D01*
X157691475Y-114790414D01*
X157704104Y-114774587D01*
X157755175Y-114740898D01*
X157816298Y-114743661D01*
X157843236Y-114758957D01*
X158301358Y-115124539D01*
X158679775Y-115426517D01*
X158679777Y-115426518D01*
X158732741Y-115453902D01*
X158732743Y-115453903D01*
X158804120Y-115459946D01*
X158812221Y-115460632D01*
X158812221Y-115460631D01*
X158812222Y-115460632D01*
X158888227Y-115436435D01*
X158933798Y-115397979D01*
X159332680Y-114898130D01*
X159360065Y-114845162D01*
X159366795Y-114765683D01*
X159366794Y-114765682D01*
X159366795Y-114765681D01*
X159354164Y-114726008D01*
X159354526Y-114664824D01*
X159390783Y-114615538D01*
X159449085Y-114596976D01*
X159456840Y-114597326D01*
X159491443Y-114600256D01*
X159498339Y-114600840D01*
X159498339Y-114600839D01*
X159498340Y-114600840D01*
X159574345Y-114576643D01*
X159619916Y-114538187D01*
X160268294Y-113725686D01*
X160295680Y-113672718D01*
X160302409Y-113593239D01*
X160301899Y-113591638D01*
X160289778Y-113553564D01*
X160290140Y-113492380D01*
X160326397Y-113443094D01*
X160384699Y-113424532D01*
X160392455Y-113424882D01*
X160426402Y-113427756D01*
X160433953Y-113428396D01*
X160433953Y-113428395D01*
X160433954Y-113428396D01*
X160509959Y-113404199D01*
X160555530Y-113365743D01*
X160954412Y-112865894D01*
X160981797Y-112812926D01*
X160988527Y-112733447D01*
X160964330Y-112657442D01*
X160925874Y-112611870D01*
X160925873Y-112611869D01*
X160925872Y-112611868D01*
X160514792Y-112283825D01*
X160481102Y-112232751D01*
X160483867Y-112171628D01*
X160506540Y-112136440D01*
X160552764Y-112090217D01*
X160649769Y-111993212D01*
X160695914Y-111913288D01*
X160698127Y-111905029D01*
X160700404Y-111896533D01*
X160702108Y-111890171D01*
X160719800Y-111824144D01*
X160719800Y-111190389D01*
X160738707Y-111132198D01*
X160748790Y-111120391D01*
X161294270Y-110574912D01*
X161340414Y-110494988D01*
X161342591Y-110486865D01*
X161364300Y-110405844D01*
X161364300Y-106825265D01*
X161368712Y-106811684D01*
X161368299Y-106797412D01*
X161377930Y-106783314D01*
X161383207Y-106767074D01*
X161394759Y-106758680D01*
X161402814Y-106746891D01*
X161418891Y-106741147D01*
X161432707Y-106731110D01*
X161460432Y-106726307D01*
X161652536Y-106720741D01*
X161655403Y-106720700D01*
X161695047Y-106720700D01*
X161701478Y-106719853D01*
X161701499Y-106720016D01*
X161702063Y-106719961D01*
X161704645Y-106719478D01*
X161705177Y-106719425D01*
X161705912Y-106719585D01*
X161712118Y-106718979D01*
X161804501Y-106716302D01*
X161978654Y-106711257D01*
X161978657Y-106711256D01*
X161978662Y-106711256D01*
X162036784Y-106697934D01*
X162101793Y-106651716D01*
X162144168Y-106584140D01*
X162148258Y-106559931D01*
X162154102Y-106525347D01*
X162153586Y-106507545D01*
X162153515Y-106505103D01*
X162170727Y-106446391D01*
X162219164Y-106409007D01*
X162249603Y-106403277D01*
X162432026Y-106397990D01*
X163319398Y-106372275D01*
X163319401Y-106372274D01*
X163319405Y-106372274D01*
X163377526Y-106358952D01*
X163442536Y-106312734D01*
X163484911Y-106245157D01*
X163494845Y-106186362D01*
X163489864Y-106014476D01*
X163476321Y-105547140D01*
X163471928Y-105527974D01*
X163462998Y-105489013D01*
X163416780Y-105424003D01*
X163416779Y-105424002D01*
X163381504Y-105401883D01*
X163342249Y-105354951D01*
X163338076Y-105293908D01*
X163370581Y-105242071D01*
X163376725Y-105237329D01*
X163410671Y-105213196D01*
X163453046Y-105145619D01*
X163461277Y-105096903D01*
X163462980Y-105086826D01*
X163462851Y-105082391D01*
X163458423Y-104929581D01*
X163432868Y-104047770D01*
X163432867Y-104047764D01*
X163419545Y-103989643D01*
X163373327Y-103924633D01*
X163373326Y-103924632D01*
X163338051Y-103902513D01*
X163298796Y-103855581D01*
X163294623Y-103794538D01*
X163327128Y-103742701D01*
X163333272Y-103737959D01*
X163367218Y-103713826D01*
X163409593Y-103646249D01*
X163414560Y-103616851D01*
X163419527Y-103587456D01*
X163401003Y-102948232D01*
X163401002Y-102948226D01*
X163387680Y-102890105D01*
X163341462Y-102825095D01*
X163341461Y-102825094D01*
X163287909Y-102791514D01*
X163273885Y-102782720D01*
X163273884Y-102782719D01*
X163273883Y-102782719D01*
X163215091Y-102772785D01*
X162145291Y-102803789D01*
X162086577Y-102786576D01*
X162049194Y-102738138D01*
X162043464Y-102707697D01*
X162043391Y-102705165D01*
X162042878Y-102687459D01*
X162029555Y-102629337D01*
X161983338Y-102564328D01*
X161983337Y-102564327D01*
X161915761Y-102521952D01*
X161856960Y-102512018D01*
X161590202Y-102519749D01*
X161589676Y-102519730D01*
X161364767Y-102526246D01*
X161306053Y-102509032D01*
X161268671Y-102460594D01*
X161262900Y-102427288D01*
X161262900Y-102190357D01*
X161262549Y-102189047D01*
X161239014Y-102101212D01*
X161219170Y-102066841D01*
X161192870Y-102021288D01*
X160055496Y-100883914D01*
X160027719Y-100829397D01*
X160026500Y-100813910D01*
X160026500Y-99698299D01*
X161924299Y-99698299D01*
X161924299Y-99698300D01*
X161939698Y-99933245D01*
X161985634Y-100164180D01*
X162061318Y-100387137D01*
X162165453Y-100598299D01*
X162296263Y-100794071D01*
X162451507Y-100971093D01*
X162628529Y-101126337D01*
X162813285Y-101249786D01*
X162824300Y-101257146D01*
X163035462Y-101361281D01*
X163035464Y-101361281D01*
X163035469Y-101361284D01*
X163246026Y-101432758D01*
X163253222Y-101435201D01*
X163258425Y-101436967D01*
X163489352Y-101482901D01*
X163636311Y-101492533D01*
X163724299Y-101498300D01*
X163724300Y-101498300D01*
X163724301Y-101498300D01*
X163783036Y-101494450D01*
X163959247Y-101482901D01*
X164190174Y-101436967D01*
X164413130Y-101361284D01*
X164624299Y-101257146D01*
X164820070Y-101126337D01*
X164997092Y-100971093D01*
X165152336Y-100794071D01*
X165283145Y-100598300D01*
X165387283Y-100387131D01*
X165462966Y-100164175D01*
X165508900Y-99933248D01*
X165524300Y-99698300D01*
X165523731Y-99689626D01*
X165508900Y-99463355D01*
X165505002Y-99443757D01*
X165462966Y-99232426D01*
X165387283Y-99009470D01*
X165372188Y-98978861D01*
X165283145Y-98798300D01*
X165152336Y-98602530D01*
X165152328Y-98602520D01*
X164997100Y-98425517D01*
X164997099Y-98425516D01*
X164997092Y-98425508D01*
X164891116Y-98332570D01*
X164820070Y-98270264D01*
X164624298Y-98139454D01*
X164413136Y-98035319D01*
X164190179Y-97959635D01*
X163959244Y-97913699D01*
X163724300Y-97898300D01*
X163489354Y-97913699D01*
X163258419Y-97959635D01*
X163035462Y-98035319D01*
X162824300Y-98139454D01*
X162628528Y-98270264D01*
X162451516Y-98425499D01*
X162451498Y-98425517D01*
X162296270Y-98602520D01*
X162296262Y-98602530D01*
X162165453Y-98798300D01*
X162061318Y-99009463D01*
X161985634Y-99232420D01*
X161939698Y-99463355D01*
X161924299Y-99698299D01*
X160026500Y-99698299D01*
X160026500Y-98615957D01*
X160025942Y-98613875D01*
X160002614Y-98526812D01*
X160002613Y-98526810D01*
X159999503Y-98521423D01*
X159999503Y-98521422D01*
X159956469Y-98446887D01*
X159767155Y-98257572D01*
X159758352Y-98240296D01*
X159745742Y-98225568D01*
X159744791Y-98213681D01*
X159739378Y-98203056D01*
X159742411Y-98183904D01*
X159740866Y-98164577D01*
X159747083Y-98154402D01*
X159748949Y-98142624D01*
X159772770Y-98112369D01*
X159785354Y-98101595D01*
X159872375Y-98027084D01*
X159887266Y-98016547D01*
X159888035Y-98016103D01*
X159891212Y-98014269D01*
X159911541Y-97993938D01*
X159917134Y-97988761D01*
X159917861Y-97988137D01*
X159939013Y-97970028D01*
X159939030Y-97970001D01*
X159943482Y-97966187D01*
X160146800Y-97792108D01*
X160183659Y-97745236D01*
X160205216Y-97668440D01*
X160195744Y-97589240D01*
X160166545Y-97537250D01*
X160166543Y-97537247D01*
X160166536Y-97537238D01*
X160153377Y-97521869D01*
X160129893Y-97465370D01*
X160144103Y-97405858D01*
X160164191Y-97382280D01*
X160977164Y-96686217D01*
X161014023Y-96639344D01*
X161035579Y-96562548D01*
X161026108Y-96483349D01*
X160996909Y-96431359D01*
X160996904Y-96431353D01*
X160580999Y-95945594D01*
X160580996Y-95945591D01*
X160580995Y-95945590D01*
X160534123Y-95908731D01*
X160534121Y-95908730D01*
X160457328Y-95887174D01*
X160457327Y-95887174D01*
X160451257Y-95887899D01*
X160415982Y-95892118D01*
X160355958Y-95880253D01*
X160314371Y-95835373D01*
X160307107Y-95774620D01*
X160308912Y-95767062D01*
X160320165Y-95726975D01*
X160310693Y-95647775D01*
X160281494Y-95595785D01*
X160268142Y-95580191D01*
X159985857Y-95250494D01*
X159605430Y-94806171D01*
X159558557Y-94769313D01*
X159558555Y-94769312D01*
X159481762Y-94747756D01*
X159440415Y-94752700D01*
X159380391Y-94740835D01*
X159338805Y-94695954D01*
X159331541Y-94635202D01*
X159333346Y-94627645D01*
X159334175Y-94624692D01*
X159344599Y-94587556D01*
X159335128Y-94508357D01*
X159305929Y-94456367D01*
X159210304Y-94344681D01*
X158890019Y-93970602D01*
X158890016Y-93970599D01*
X158890015Y-93970598D01*
X158843143Y-93933739D01*
X158843141Y-93933738D01*
X158766348Y-93912182D01*
X158766347Y-93912182D01*
X158726747Y-93916918D01*
X158687146Y-93921654D01*
X158687144Y-93921654D01*
X158635163Y-93950848D01*
X158635155Y-93950853D01*
X157822183Y-94646917D01*
X157765684Y-94670400D01*
X157706172Y-94656189D01*
X157682594Y-94636102D01*
X157681823Y-94635202D01*
X157669427Y-94620723D01*
X157622554Y-94583864D01*
X157622552Y-94583863D01*
X157545758Y-94562308D01*
X157466559Y-94571779D01*
X157414568Y-94600978D01*
X157414563Y-94600981D01*
X157410581Y-94603764D01*
X157409786Y-94602627D01*
X157371835Y-94621174D01*
X157251893Y-94645628D01*
X157251891Y-94645628D01*
X157251889Y-94645629D01*
X157251886Y-94645630D01*
X157251884Y-94645631D01*
X156681236Y-94930440D01*
X156341958Y-95099773D01*
X156307882Y-95116780D01*
X156267380Y-95127131D01*
X156265539Y-95127200D01*
X156227108Y-95127200D01*
X156220857Y-95128874D01*
X156209719Y-95129292D01*
X156196843Y-95125635D01*
X156178448Y-95125447D01*
X155008929Y-94786427D01*
X151584679Y-93793806D01*
X151542241Y-93768726D01*
X151531315Y-93757801D01*
X151531309Y-93757796D01*
X151417189Y-93691909D01*
X151417187Y-93691908D01*
X151367953Y-93678715D01*
X151316639Y-93645390D01*
X151309737Y-93635735D01*
X150963938Y-93085038D01*
X150005924Y-91559368D01*
X149990992Y-91500034D01*
X149994138Y-91481104D01*
X149996500Y-91472292D01*
X149996500Y-91340508D01*
X149962392Y-91213214D01*
X149896500Y-91099086D01*
X149896498Y-91099084D01*
X149894988Y-91096468D01*
X149882266Y-91036619D01*
X149907152Y-90980724D01*
X149960140Y-90950131D01*
X149998255Y-90949532D01*
X150730279Y-91081243D01*
X150730283Y-91081244D01*
X150730285Y-91081243D01*
X150730286Y-91081244D01*
X150789905Y-91080152D01*
X150863025Y-91048282D01*
X150918384Y-90990856D01*
X150926341Y-90970606D01*
X151136042Y-90970606D01*
X151137135Y-91030211D01*
X151137136Y-91030217D01*
X151159376Y-91081244D01*
X151169006Y-91103337D01*
X151169009Y-91103340D01*
X151169010Y-91103341D01*
X151226428Y-91158693D01*
X151226429Y-91158693D01*
X151226432Y-91158696D01*
X151281930Y-91180502D01*
X151281932Y-91180502D01*
X151281934Y-91180503D01*
X152304991Y-91364579D01*
X152304995Y-91364580D01*
X152304997Y-91364579D01*
X152304998Y-91364580D01*
X152364617Y-91363488D01*
X152437737Y-91331618D01*
X152493096Y-91274192D01*
X152514902Y-91218694D01*
X152576038Y-90878911D01*
X152583445Y-90865097D01*
X152586222Y-90849663D01*
X152597541Y-90838808D01*
X152604950Y-90824991D01*
X152619065Y-90818167D01*
X152630383Y-90807314D01*
X152645919Y-90805185D01*
X152660036Y-90798361D01*
X152690996Y-90799008D01*
X152823730Y-90822889D01*
X152831801Y-90824694D01*
X152845042Y-90828243D01*
X152853837Y-90830600D01*
X152853838Y-90830600D01*
X152857745Y-90830600D01*
X152875274Y-90832164D01*
X152876035Y-90832300D01*
X152879127Y-90832857D01*
X152900314Y-90831077D01*
X152901866Y-90830947D01*
X152910152Y-90830600D01*
X153224598Y-90830600D01*
X153282789Y-90849507D01*
X153318753Y-90899007D01*
X153322032Y-90947130D01*
X153314165Y-90990859D01*
X153234694Y-91432534D01*
X153234691Y-91432557D01*
X153232111Y-91462998D01*
X153232111Y-91462999D01*
X153253557Y-91597103D01*
X153296890Y-91685056D01*
X153313576Y-91718924D01*
X153406836Y-91817642D01*
X153525051Y-91884486D01*
X153525053Y-91884486D01*
X153525054Y-91884487D01*
X153554470Y-91892677D01*
X153554482Y-91892679D01*
X153554497Y-91892684D01*
X153554507Y-91892685D01*
X153554508Y-91892686D01*
X153579629Y-91897206D01*
X154178017Y-92004873D01*
X154208474Y-92007453D01*
X154342574Y-91986008D01*
X154464396Y-91925989D01*
X154563114Y-91832729D01*
X154629958Y-91714514D01*
X154638156Y-91685068D01*
X154816751Y-90692475D01*
X154818165Y-90675785D01*
X154819332Y-90662021D01*
X154819332Y-90662020D01*
X154819088Y-90660494D01*
X154797887Y-90527918D01*
X154737868Y-90406096D01*
X154644608Y-90307378D01*
X154644607Y-90307377D01*
X154543169Y-90250020D01*
X154526393Y-90240534D01*
X154526392Y-90240533D01*
X154526389Y-90240532D01*
X154496973Y-90232342D01*
X154496935Y-90232333D01*
X153873435Y-90120148D01*
X153873430Y-90120147D01*
X153873427Y-90120147D01*
X153842970Y-90117567D01*
X153842969Y-90117567D01*
X153842968Y-90117567D01*
X153708868Y-90139012D01*
X153587049Y-90199030D01*
X153587048Y-90199031D01*
X153583306Y-90202565D01*
X153528024Y-90228782D01*
X153515322Y-90229600D01*
X152929053Y-90229600D01*
X152911524Y-90228036D01*
X152862947Y-90219296D01*
X152797432Y-90207509D01*
X152743509Y-90178596D01*
X152716879Y-90123510D01*
X152717528Y-90092541D01*
X152723420Y-90059798D01*
X152778669Y-89752738D01*
X152777576Y-89693119D01*
X152745706Y-89619999D01*
X152745701Y-89619994D01*
X152688283Y-89564642D01*
X152688281Y-89564641D01*
X152688280Y-89564640D01*
X152632782Y-89542834D01*
X152632777Y-89542832D01*
X151609720Y-89358756D01*
X151609716Y-89358755D01*
X151550097Y-89359847D01*
X151550095Y-89359847D01*
X151476978Y-89391716D01*
X151476970Y-89391722D01*
X151421618Y-89449140D01*
X151421616Y-89449144D01*
X151399808Y-89504646D01*
X151399808Y-89504647D01*
X151136043Y-90970588D01*
X151136042Y-90970606D01*
X150926341Y-90970606D01*
X150940190Y-90935358D01*
X150984828Y-90687270D01*
X151203956Y-89469411D01*
X151203956Y-89469406D01*
X151203957Y-89469402D01*
X151202864Y-89409783D01*
X151170994Y-89336663D01*
X151167220Y-89333025D01*
X151113571Y-89281306D01*
X151113569Y-89281305D01*
X151113568Y-89281304D01*
X151058070Y-89259498D01*
X151058065Y-89259496D01*
X150246842Y-89113535D01*
X150192919Y-89084622D01*
X150166289Y-89029536D01*
X150177124Y-88969318D01*
X150221285Y-88926968D01*
X150264373Y-88917100D01*
X155272400Y-88917100D01*
X155330591Y-88936007D01*
X155366555Y-88985507D01*
X155371400Y-89016100D01*
X155371400Y-90490696D01*
X155352493Y-90548887D01*
X155340386Y-90562660D01*
X155284487Y-90615468D01*
X155284486Y-90615470D01*
X155217640Y-90733689D01*
X155209450Y-90763105D01*
X155209441Y-90763143D01*
X155030850Y-91755714D01*
X155030847Y-91755737D01*
X155028267Y-91786178D01*
X155028267Y-91786179D01*
X155049713Y-91920283D01*
X155079136Y-91980003D01*
X155109732Y-92042104D01*
X155202992Y-92140822D01*
X155321207Y-92207666D01*
X155321209Y-92207666D01*
X155321210Y-92207667D01*
X155350626Y-92215857D01*
X155350638Y-92215859D01*
X155350653Y-92215864D01*
X155974173Y-92328053D01*
X156004630Y-92330633D01*
X156138730Y-92309188D01*
X156260552Y-92249169D01*
X156359270Y-92155909D01*
X156426114Y-92037694D01*
X156434312Y-92008248D01*
X156612907Y-91015655D01*
X156615488Y-90985198D01*
X156594043Y-90851098D01*
X156534024Y-90729276D01*
X156440764Y-90630558D01*
X156440763Y-90630557D01*
X156382771Y-90597766D01*
X156322671Y-90563783D01*
X156281324Y-90518683D01*
X156272400Y-90477606D01*
X156272400Y-89016100D01*
X156291307Y-88957909D01*
X156340807Y-88921945D01*
X156354977Y-88918472D01*
X156363133Y-88917100D01*
X156419409Y-88917100D01*
X156509773Y-88892886D01*
X156514331Y-88891664D01*
X156514336Y-88891664D01*
X156522596Y-88889450D01*
X156533987Y-88886399D01*
X156591766Y-88853039D01*
X156615631Y-88843154D01*
X156653186Y-88833092D01*
X156767314Y-88767200D01*
X156860500Y-88674014D01*
X156864865Y-88666453D01*
X156926390Y-88559890D01*
X156926390Y-88559888D01*
X156926392Y-88559886D01*
X156960500Y-88432592D01*
X156960500Y-88300808D01*
X156926392Y-88173514D01*
X156926390Y-88173511D01*
X156926390Y-88173509D01*
X156860503Y-88059390D01*
X156860501Y-88059388D01*
X156860500Y-88059386D01*
X156767314Y-87966200D01*
X156767311Y-87966198D01*
X156767309Y-87966196D01*
X156653189Y-87900309D01*
X156653191Y-87900309D01*
X156595044Y-87884729D01*
X156525892Y-87866200D01*
X156394108Y-87866200D01*
X156324956Y-87884729D01*
X156266809Y-87900309D01*
X156152690Y-87966196D01*
X156152689Y-87966197D01*
X156152686Y-87966199D01*
X156152686Y-87966200D01*
X156131780Y-87987105D01*
X156077266Y-88014881D01*
X156061779Y-88016100D01*
X148626522Y-88016100D01*
X148568331Y-87997193D01*
X148556519Y-87987104D01*
X148513915Y-87944500D01*
X148513909Y-87944496D01*
X148399789Y-87878609D01*
X148399791Y-87878609D01*
X148326674Y-87859018D01*
X148272492Y-87844500D01*
X148140708Y-87844500D01*
X148086526Y-87859018D01*
X148013409Y-87878609D01*
X147899290Y-87944496D01*
X147806096Y-88037690D01*
X147740209Y-88151809D01*
X147729847Y-88190482D01*
X147706100Y-88279108D01*
X147706100Y-88410892D01*
X147712472Y-88434671D01*
X147740209Y-88538190D01*
X147806096Y-88652309D01*
X147806098Y-88652311D01*
X147806100Y-88652314D01*
X147899286Y-88745500D01*
X148013414Y-88811392D01*
X148021615Y-88813589D01*
X148045595Y-88823539D01*
X148051392Y-88826895D01*
X148051586Y-88827089D01*
X148100221Y-88855168D01*
X148138507Y-88877272D01*
X148159935Y-88889645D01*
X148158644Y-88891880D01*
X148196787Y-88924440D01*
X148211087Y-88983931D01*
X148187687Y-89040465D01*
X148135527Y-89072448D01*
X148094860Y-89073625D01*
X148053183Y-89066127D01*
X148022726Y-89063547D01*
X148022725Y-89063547D01*
X148022724Y-89063547D01*
X147888624Y-89084992D01*
X147766803Y-89145011D01*
X147668085Y-89238271D01*
X147601240Y-89356489D01*
X147593050Y-89385905D01*
X147593041Y-89385943D01*
X147414450Y-90378514D01*
X147414447Y-90378537D01*
X147411867Y-90408978D01*
X147411867Y-90408979D01*
X147433313Y-90543083D01*
X147493332Y-90664904D01*
X147536937Y-90711061D01*
X147563154Y-90766345D01*
X147551869Y-90826481D01*
X147534976Y-90849051D01*
X144409584Y-93974443D01*
X144355067Y-94002220D01*
X144294635Y-93992649D01*
X144251370Y-93949384D01*
X144240861Y-93896984D01*
X144246509Y-93822237D01*
X144231759Y-93777321D01*
X144227907Y-93765589D01*
X144227905Y-93765585D01*
X144160096Y-93645390D01*
X143702026Y-92833441D01*
X143689902Y-92773472D01*
X143715343Y-92717826D01*
X143739606Y-92698575D01*
X143757243Y-92688626D01*
X143802463Y-92649758D01*
X143838451Y-92578574D01*
X143844460Y-92499037D01*
X143825856Y-92442385D01*
X143822509Y-92436452D01*
X143694562Y-92209660D01*
X143690605Y-92202647D01*
X143690114Y-92200812D01*
X143666282Y-92159534D01*
X143511633Y-91885412D01*
X143472765Y-91840192D01*
X143472764Y-91840191D01*
X143472763Y-91840190D01*
X143401583Y-91804203D01*
X143348556Y-91800197D01*
X143322044Y-91798194D01*
X143322043Y-91798194D01*
X143265389Y-91816800D01*
X143265381Y-91816803D01*
X143247754Y-91826748D01*
X143187782Y-91838872D01*
X143132138Y-91813429D01*
X143112887Y-91789167D01*
X143111203Y-91786182D01*
X142587011Y-90857028D01*
X142548143Y-90811808D01*
X142538259Y-90806811D01*
X142538142Y-90806695D01*
X142537982Y-90806670D01*
X142516480Y-90785168D01*
X142494859Y-90763683D01*
X142494832Y-90763521D01*
X142494717Y-90763406D01*
X142489944Y-90733273D01*
X142485098Y-90703282D01*
X142485171Y-90703136D01*
X142485146Y-90702974D01*
X142498999Y-90675785D01*
X142512704Y-90648678D01*
X142512924Y-90648457D01*
X142530308Y-90631074D01*
X142632986Y-90528396D01*
X142687502Y-90500619D01*
X142702989Y-90499400D01*
X142732690Y-90499400D01*
X142732692Y-90499400D01*
X142859986Y-90465292D01*
X142859988Y-90465290D01*
X142859990Y-90465290D01*
X142974109Y-90399403D01*
X142974109Y-90399402D01*
X142974114Y-90399400D01*
X143067300Y-90306214D01*
X143079763Y-90284627D01*
X143133190Y-90192090D01*
X143133190Y-90192088D01*
X143133192Y-90192086D01*
X143167300Y-90064792D01*
X143167300Y-89933008D01*
X143133192Y-89805714D01*
X143133190Y-89805711D01*
X143133190Y-89805709D01*
X143067303Y-89691590D01*
X143067301Y-89691588D01*
X143067300Y-89691586D01*
X142974114Y-89598400D01*
X142974111Y-89598398D01*
X142974109Y-89598396D01*
X142859989Y-89532509D01*
X142859991Y-89532509D01*
X142810599Y-89519275D01*
X142732692Y-89498400D01*
X142600908Y-89498400D01*
X142523000Y-89519275D01*
X142473609Y-89532509D01*
X142359490Y-89598396D01*
X142266296Y-89691590D01*
X142200409Y-89805709D01*
X142166300Y-89933009D01*
X142166300Y-89962710D01*
X142147393Y-90020901D01*
X142137304Y-90032714D01*
X141937814Y-90232204D01*
X141883297Y-90259981D01*
X141867810Y-90261200D01*
X141322721Y-90261200D01*
X141264530Y-90242293D01*
X141252723Y-90232209D01*
X141163114Y-90142600D01*
X141163111Y-90142598D01*
X141163109Y-90142596D01*
X141048989Y-90076709D01*
X141048991Y-90076709D01*
X140985876Y-90059798D01*
X140921692Y-90042600D01*
X140789908Y-90042600D01*
X140725724Y-90059798D01*
X140662609Y-90076709D01*
X140548490Y-90142596D01*
X140455296Y-90235790D01*
X140389409Y-90349909D01*
X140375175Y-90403034D01*
X140355300Y-90477208D01*
X140355300Y-90608992D01*
X140373197Y-90675785D01*
X140389409Y-90736290D01*
X140455296Y-90850409D01*
X140455298Y-90850411D01*
X140455300Y-90850414D01*
X140548486Y-90943600D01*
X140548488Y-90943601D01*
X140548490Y-90943603D01*
X140662610Y-91009490D01*
X140662608Y-91009490D01*
X140662612Y-91009491D01*
X140662614Y-91009492D01*
X140789908Y-91043600D01*
X140789910Y-91043600D01*
X140921690Y-91043600D01*
X140921692Y-91043600D01*
X141048986Y-91009492D01*
X141048988Y-91009490D01*
X141048990Y-91009490D01*
X141107925Y-90975464D01*
X141157425Y-90962200D01*
X141611424Y-90962200D01*
X141631557Y-90968741D01*
X141652589Y-90971164D01*
X141660018Y-90977989D01*
X141669615Y-90981107D01*
X141697649Y-91012556D01*
X141727614Y-91065671D01*
X141739739Y-91125643D01*
X141729740Y-91158981D01*
X141702588Y-91212687D01*
X141699451Y-91254210D01*
X141676212Y-91310811D01*
X141624143Y-91342943D01*
X141563132Y-91338333D01*
X141556065Y-91335102D01*
X141518907Y-91316316D01*
X141439369Y-91310307D01*
X141439365Y-91310308D01*
X141382721Y-91328908D01*
X141382717Y-91328910D01*
X140477357Y-91839680D01*
X140433492Y-91877384D01*
X140432140Y-91878546D01*
X140423294Y-91896043D01*
X140396152Y-91949729D01*
X140393015Y-91991250D01*
X140369776Y-92047851D01*
X140317707Y-92079983D01*
X140256696Y-92075373D01*
X140249634Y-92072144D01*
X140212471Y-92053356D01*
X140132933Y-92047347D01*
X140132929Y-92047348D01*
X140076285Y-92065948D01*
X140076281Y-92065950D01*
X139607123Y-92330632D01*
X139519308Y-92380174D01*
X139505631Y-92391930D01*
X139474088Y-92419042D01*
X139438100Y-92490224D01*
X139432091Y-92569762D01*
X139432092Y-92569766D01*
X139450692Y-92626410D01*
X139450694Y-92626414D01*
X139976571Y-93558555D01*
X139988696Y-93618527D01*
X139963255Y-93674173D01*
X139938993Y-93693423D01*
X139921365Y-93703368D01*
X139921360Y-93703372D01*
X139921358Y-93703372D01*
X139921357Y-93703374D01*
X139876137Y-93742242D01*
X139840149Y-93813424D01*
X139834140Y-93892962D01*
X139834141Y-93892966D01*
X139846043Y-93929211D01*
X139846235Y-93990396D01*
X139818556Y-94033373D01*
X139115132Y-94672439D01*
X139107465Y-94679405D01*
X139099302Y-94684177D01*
X139073421Y-94710333D01*
X139071467Y-94712109D01*
X139046157Y-94735104D01*
X139043888Y-94737784D01*
X139033753Y-94750424D01*
X138146736Y-95646911D01*
X138141030Y-95652677D01*
X138126913Y-95662913D01*
X138108719Y-95685332D01*
X138105281Y-95688807D01*
X138105281Y-95688808D01*
X138088393Y-95705878D01*
X138088389Y-95705883D01*
X138083765Y-95713991D01*
X138074645Y-95727322D01*
X137266286Y-96723472D01*
X137262662Y-96727937D01*
X137244210Y-96745940D01*
X137233712Y-96763613D01*
X137229159Y-96769224D01*
X137229155Y-96769226D01*
X137220764Y-96779568D01*
X137220760Y-96779574D01*
X137212594Y-96797865D01*
X137207315Y-96808056D01*
X136728797Y-97613724D01*
X136682825Y-97654100D01*
X136630451Y-97659343D01*
X136630449Y-97659606D01*
X136628080Y-97659580D01*
X136623335Y-97660056D01*
X136620698Y-97659502D01*
X136542304Y-97674231D01*
X136475512Y-97717838D01*
X136441863Y-97767056D01*
X136441857Y-97767067D01*
X136433911Y-97785686D01*
X136393680Y-97831785D01*
X136334036Y-97845432D01*
X136304000Y-97837882D01*
X135319639Y-97417813D01*
X135319637Y-97417812D01*
X135319636Y-97417812D01*
X135282408Y-97409994D01*
X135261281Y-97405558D01*
X135261280Y-97405558D01*
X135182888Y-97420286D01*
X135182886Y-97420286D01*
X135182886Y-97420287D01*
X135182883Y-97420288D01*
X135116100Y-97463888D01*
X135116099Y-97463889D01*
X135082443Y-97513116D01*
X134831444Y-98101290D01*
X134831442Y-98101298D01*
X134819188Y-98159645D01*
X134820115Y-98164577D01*
X134833917Y-98238042D01*
X134833918Y-98238043D01*
X134856679Y-98272907D01*
X134872659Y-98331969D01*
X134850870Y-98389144D01*
X134799637Y-98422592D01*
X134792063Y-98424325D01*
X134751143Y-98432013D01*
X134751136Y-98432016D01*
X134684353Y-98475616D01*
X134684352Y-98475617D01*
X134650696Y-98524844D01*
X134462543Y-98965751D01*
X134243784Y-99478377D01*
X134242696Y-99480926D01*
X134242694Y-99480931D01*
X134230441Y-99539275D01*
X134245170Y-99617672D01*
X134267933Y-99652537D01*
X134283913Y-99711599D01*
X134262125Y-99768773D01*
X134210892Y-99802222D01*
X134203328Y-99803953D01*
X134162394Y-99811644D01*
X134162393Y-99811644D01*
X134162391Y-99811645D01*
X134162389Y-99811646D01*
X134095606Y-99855246D01*
X134095605Y-99855247D01*
X134061949Y-99904474D01*
X133810950Y-100492648D01*
X133810948Y-100492656D01*
X133798694Y-100551003D01*
X133798695Y-100551007D01*
X133813423Y-100629400D01*
X133857028Y-100696189D01*
X133906252Y-100729843D01*
X134890616Y-101149913D01*
X134936715Y-101190142D01*
X134950365Y-101249786D01*
X134942814Y-101279824D01*
X134934869Y-101298441D01*
X134934865Y-101298454D01*
X134922611Y-101356801D01*
X134922612Y-101356805D01*
X134937340Y-101435197D01*
X134937341Y-101435198D01*
X134937342Y-101435201D01*
X134980942Y-101501984D01*
X134980943Y-101501985D01*
X134980944Y-101501985D01*
X134980945Y-101501987D01*
X135010568Y-101522240D01*
X135030164Y-101535638D01*
X135030166Y-101535639D01*
X135030169Y-101535641D01*
X135151500Y-101587418D01*
X135275498Y-101640333D01*
X135276120Y-101640648D01*
X135281814Y-101643077D01*
X135281815Y-101643078D01*
X135797349Y-101863023D01*
X135843453Y-101903249D01*
X135857500Y-101954082D01*
X135857500Y-102197844D01*
X135877453Y-102272311D01*
X135881386Y-102286988D01*
X135882388Y-102288723D01*
X135884572Y-102296047D01*
X135884408Y-102302767D01*
X135888700Y-102324337D01*
X135888700Y-106448029D01*
X135869793Y-106506220D01*
X135820293Y-106542184D01*
X135817651Y-106543001D01*
X135713266Y-106573722D01*
X135713260Y-106573723D01*
X135713261Y-106573724D01*
X135686390Y-106581632D01*
X135668097Y-106587017D01*
X135668096Y-106587017D01*
X135415995Y-106661212D01*
X135414810Y-106661560D01*
X135374412Y-106672386D01*
X135370646Y-106674559D01*
X135367678Y-106675433D01*
X135360456Y-106677559D01*
X135360449Y-106677562D01*
X135104004Y-106753038D01*
X135051182Y-106780711D01*
X135051181Y-106780711D01*
X135000074Y-106841945D01*
X135000069Y-106841953D01*
X134976284Y-106918081D01*
X134976284Y-106918085D01*
X134981635Y-106977462D01*
X134981637Y-106977471D01*
X134987354Y-106996897D01*
X134985644Y-107058058D01*
X134948310Y-107106534D01*
X134920333Y-107119818D01*
X133893635Y-107421992D01*
X133840812Y-107449666D01*
X133789702Y-107510902D01*
X133789702Y-107510903D01*
X133765914Y-107587041D01*
X129245777Y-107587041D01*
X129255038Y-107560375D01*
X129261512Y-107545698D01*
X129264891Y-107539461D01*
X129269463Y-107520333D01*
X129272217Y-107510911D01*
X129278670Y-107492334D01*
X129279183Y-107485261D01*
X129281637Y-107469410D01*
X129282225Y-107466947D01*
X129283287Y-107462507D01*
X129282619Y-107437930D01*
X129284399Y-107413419D01*
X129281550Y-107398550D01*
X129278726Y-107294599D01*
X129280503Y-107273052D01*
X129386619Y-106726527D01*
X129387150Y-106723984D01*
X129394573Y-106690833D01*
X129394573Y-106690827D01*
X129394958Y-106686527D01*
X129395219Y-106682242D01*
X129395221Y-106682233D01*
X129392848Y-106648418D01*
X129392693Y-106645634D01*
X129386119Y-106487568D01*
X129387282Y-106467782D01*
X129404373Y-106361240D01*
X129407255Y-106348628D01*
X129411076Y-106335835D01*
X129411456Y-106322427D01*
X129412666Y-106309552D01*
X129414793Y-106296297D01*
X129414792Y-106296293D01*
X129414793Y-106296292D01*
X129413425Y-106283032D01*
X129412942Y-106270072D01*
X129421736Y-105960324D01*
X129424038Y-105941735D01*
X129474585Y-105713611D01*
X129483042Y-105683198D01*
X129483118Y-105675100D01*
X129484870Y-105667194D01*
X129483603Y-105638268D01*
X129483513Y-105633054D01*
X129487445Y-105214771D01*
X129494362Y-105179338D01*
X129496932Y-105172829D01*
X129497872Y-105171465D01*
X129501436Y-105161425D01*
X129502062Y-105159842D01*
X129502548Y-105159252D01*
X129507000Y-105149226D01*
X129511214Y-105141410D01*
X129515330Y-105124035D01*
X129517569Y-105116081D01*
X129517951Y-105114910D01*
X129524346Y-105096903D01*
X129524508Y-105094863D01*
X129526924Y-105087477D01*
X129530634Y-105082391D01*
X129533992Y-105074456D01*
X129532663Y-105073799D01*
X129542411Y-105054070D01*
X129549504Y-105039716D01*
X129551315Y-105036229D01*
X129566413Y-105008553D01*
X129567862Y-105002566D01*
X129570593Y-104997041D01*
X129577153Y-104964197D01*
X129585034Y-104931653D01*
X129585033Y-104931643D01*
X129585725Y-104925196D01*
X129586129Y-104925239D01*
X129587039Y-104914704D01*
X129601423Y-104842692D01*
X129609772Y-104818186D01*
X129627812Y-104781737D01*
X129632032Y-104774084D01*
X129643429Y-104755414D01*
X129643430Y-104755412D01*
X129647228Y-104742506D01*
X129653196Y-104730449D01*
X129658354Y-104704705D01*
X129665771Y-104679508D01*
X129666099Y-104666053D01*
X129668742Y-104652868D01*
X129667062Y-104626669D01*
X129670450Y-104488008D01*
X129673893Y-104464442D01*
X129676690Y-104454162D01*
X129684605Y-104434055D01*
X129718318Y-104369982D01*
X129739685Y-104329374D01*
X129749908Y-104315420D01*
X129758028Y-104294514D01*
X129768472Y-104274665D01*
X129770671Y-104264944D01*
X129774941Y-104250967D01*
X129778555Y-104241665D01*
X129780987Y-104219361D01*
X129785937Y-104197494D01*
X129785258Y-104180211D01*
X129898315Y-103143800D01*
X129917196Y-103095587D01*
X129926027Y-103083675D01*
X129931459Y-103076980D01*
X129946118Y-103060450D01*
X129952069Y-103048545D01*
X129959992Y-103037859D01*
X129969689Y-103013304D01*
X129981501Y-102989680D01*
X129982434Y-102985116D01*
X129985229Y-102974493D01*
X129986187Y-102971528D01*
X129989056Y-102964267D01*
X129989341Y-102961775D01*
X129991862Y-102953984D01*
X129994541Y-102950285D01*
X129999083Y-102940110D01*
X129997949Y-102939544D01*
X130003177Y-102929066D01*
X130017796Y-102899769D01*
X130018032Y-102899302D01*
X130035303Y-102865440D01*
X130035304Y-102865433D01*
X130035853Y-102863886D01*
X130035853Y-102863884D01*
X130035864Y-102863856D01*
X130036165Y-102863004D01*
X130036180Y-102862929D01*
X130036181Y-102862928D01*
X130043744Y-102825812D01*
X130043864Y-102825238D01*
X130051784Y-102788051D01*
X130051783Y-102788048D01*
X130052385Y-102785226D01*
X130053211Y-102779363D01*
X130054750Y-102771813D01*
X130057346Y-102761789D01*
X130058484Y-102758181D01*
X130058486Y-102758178D01*
X130061856Y-102739087D01*
X130064442Y-102724432D01*
X130064929Y-102721866D01*
X130064980Y-102721616D01*
X130071785Y-102688229D01*
X130071785Y-102688223D01*
X130072052Y-102684431D01*
X130073316Y-102674151D01*
X130082789Y-102620483D01*
X130249903Y-101673686D01*
X130254800Y-101659838D01*
X130256752Y-101634883D01*
X130261103Y-101610234D01*
X130260537Y-101603764D01*
X130260465Y-101587418D01*
X130260921Y-101581590D01*
X130260971Y-101580957D01*
X130257270Y-101561044D01*
X130255981Y-101551578D01*
X130255339Y-101544230D01*
X130257040Y-101515439D01*
X130522074Y-100242399D01*
X130525721Y-100230981D01*
X130525686Y-100230971D01*
X130527491Y-100224739D01*
X130527490Y-100224739D01*
X130527492Y-100224737D01*
X130532216Y-100193685D01*
X130538618Y-100162938D01*
X130538150Y-100154685D01*
X130588882Y-99821265D01*
X130592293Y-99806531D01*
X130594123Y-99800694D01*
X130594974Y-99797982D01*
X130595950Y-99774817D01*
X130599438Y-99751894D01*
X130597608Y-99735453D01*
X130598305Y-99718930D01*
X130593251Y-99696298D01*
X130590688Y-99673256D01*
X130584667Y-99657853D01*
X130581063Y-99641708D01*
X130581061Y-99641705D01*
X130579648Y-99635371D01*
X130580828Y-99635107D01*
X130577501Y-99587844D01*
X130582566Y-99564084D01*
X130587279Y-99548440D01*
X130589657Y-99542407D01*
X130591951Y-99522272D01*
X130593488Y-99512856D01*
X130597714Y-99493038D01*
X130597378Y-99486564D01*
X130597882Y-99470232D01*
X130598617Y-99463793D01*
X130595622Y-99443748D01*
X130594669Y-99434248D01*
X130594620Y-99433302D01*
X130599067Y-99398438D01*
X130767594Y-98863747D01*
X130771365Y-98853717D01*
X130772241Y-98851722D01*
X130773238Y-98848290D01*
X130782023Y-98818048D01*
X130782661Y-98815944D01*
X130793202Y-98782503D01*
X130793202Y-98782501D01*
X130793204Y-98782496D01*
X130793204Y-98782490D01*
X130793582Y-98780346D01*
X130793949Y-98778262D01*
X130793986Y-98777888D01*
X130794311Y-98775752D01*
X130794315Y-98775742D01*
X130795073Y-98739569D01*
X130796646Y-98703448D01*
X130795900Y-98700090D01*
X130795973Y-98696647D01*
X130795972Y-98696644D01*
X130795973Y-98696636D01*
X130787587Y-98662496D01*
X130787100Y-98660410D01*
X130785364Y-98652583D01*
X130779514Y-98626202D01*
X130779510Y-98626194D01*
X130778767Y-98624153D01*
X130775650Y-98613898D01*
X130774578Y-98609533D01*
X130775950Y-98557306D01*
X130853240Y-98301421D01*
X130857635Y-98289640D01*
X130863391Y-98276779D01*
X130866452Y-98257681D01*
X130872045Y-98239166D01*
X130872687Y-98218784D01*
X130946531Y-97758149D01*
X130949953Y-97743779D01*
X130952880Y-97734596D01*
X130953678Y-97717509D01*
X130954818Y-97706460D01*
X130957529Y-97689552D01*
X130956538Y-97679959D01*
X130956115Y-97665373D01*
X130956574Y-97655560D01*
X130956557Y-97655485D01*
X130956847Y-97649025D01*
X130960722Y-97638694D01*
X130964383Y-97615329D01*
X130969891Y-97602129D01*
X130971466Y-97598558D01*
X130979511Y-97581241D01*
X130984799Y-97569860D01*
X130984800Y-97569850D01*
X130986598Y-97564122D01*
X130988160Y-97558350D01*
X130988164Y-97558342D01*
X130992389Y-97526880D01*
X130992968Y-97523133D01*
X131015891Y-97392041D01*
X131019924Y-97376523D01*
X131070168Y-97232398D01*
X131073547Y-97223974D01*
X131118982Y-97124276D01*
X131160317Y-97079168D01*
X131204597Y-97066434D01*
X131215574Y-97065938D01*
X131215576Y-97065937D01*
X131217464Y-97065601D01*
X131231968Y-97062557D01*
X131233812Y-97062110D01*
X131233812Y-97062109D01*
X131233819Y-97062109D01*
X131259282Y-97052273D01*
X131263410Y-97050785D01*
X131264191Y-97050522D01*
X131290997Y-97042025D01*
X131292652Y-97040966D01*
X131300141Y-97038452D01*
X131305064Y-97038403D01*
X131321763Y-97033799D01*
X131343202Y-97031647D01*
X131346653Y-97031363D01*
X131379080Y-97029271D01*
X131384216Y-97027533D01*
X131389610Y-97026992D01*
X131421618Y-97014878D01*
X131454029Y-97003912D01*
X131454040Y-97003904D01*
X131457110Y-97002395D01*
X131457393Y-97002226D01*
X131463059Y-96999194D01*
X131463610Y-96998986D01*
X131464077Y-96998649D01*
X131469867Y-96995552D01*
X131480278Y-96993688D01*
X131501569Y-96984986D01*
X131643972Y-96963155D01*
X131658903Y-96962013D01*
X131668152Y-96962008D01*
X131690332Y-96956049D01*
X131713035Y-96952569D01*
X131728379Y-96945828D01*
X131814295Y-96922746D01*
X131832063Y-96919675D01*
X131835060Y-96919436D01*
X131857399Y-96911489D01*
X131864886Y-96909155D01*
X131887799Y-96903001D01*
X131890398Y-96901497D01*
X131906769Y-96893928D01*
X131909607Y-96892919D01*
X131909611Y-96892915D01*
X131915304Y-96890891D01*
X131943217Y-96885306D01*
X131970373Y-96883861D01*
X131976613Y-96882698D01*
X131982772Y-96881283D01*
X131982775Y-96881283D01*
X132012014Y-96870383D01*
X132015928Y-96869016D01*
X132021836Y-96867091D01*
X132045604Y-96859347D01*
X132045609Y-96859343D01*
X132051460Y-96856547D01*
X132051480Y-96856588D01*
X132052496Y-96856308D01*
X132059455Y-96852718D01*
X132061532Y-96851899D01*
X132061617Y-96851893D01*
X132063019Y-96851372D01*
X132063177Y-96851797D01*
X132070487Y-96851348D01*
X132093104Y-96845112D01*
X132100708Y-96844747D01*
X132104797Y-96844551D01*
X132110701Y-96843483D01*
X132116596Y-96842173D01*
X132116600Y-96842173D01*
X132146335Y-96831334D01*
X132149995Y-96830082D01*
X132180153Y-96820430D01*
X132185250Y-96817151D01*
X132190939Y-96815078D01*
X132218438Y-96795804D01*
X132246698Y-96777628D01*
X132246701Y-96777625D01*
X132247893Y-96776616D01*
X132252839Y-96771693D01*
X132255732Y-96769667D01*
X132260037Y-96764530D01*
X132263202Y-96761382D01*
X132269916Y-96757981D01*
X132289561Y-96742612D01*
X132292052Y-96741394D01*
X132298881Y-96738370D01*
X132321559Y-96729342D01*
X132323407Y-96727963D01*
X132339101Y-96718389D01*
X132341187Y-96717370D01*
X132362422Y-96698873D01*
X132384990Y-96682046D01*
X132392144Y-96672983D01*
X132400850Y-96665401D01*
X132414488Y-96645137D01*
X132418874Y-96639124D01*
X132445465Y-96605444D01*
X132472044Y-96582015D01*
X132635753Y-96483319D01*
X132650411Y-96476062D01*
X132656376Y-96473702D01*
X132672701Y-96461578D01*
X132680594Y-96456286D01*
X132698011Y-96445787D01*
X132702454Y-96441171D01*
X132714752Y-96430351D01*
X132719900Y-96426530D01*
X132735493Y-96406857D01*
X132752890Y-96388789D01*
X132759959Y-96375990D01*
X132769810Y-96363562D01*
X132789714Y-96344602D01*
X133066721Y-96146103D01*
X133075632Y-96140413D01*
X133076045Y-96140178D01*
X133091469Y-96131453D01*
X133103056Y-96120066D01*
X133116254Y-96110609D01*
X133131147Y-96092460D01*
X133147904Y-96075995D01*
X133156149Y-96061997D01*
X133166450Y-96049446D01*
X133176140Y-96028058D01*
X133194185Y-95997421D01*
X133217998Y-95970080D01*
X133237545Y-95954593D01*
X133252064Y-95945042D01*
X133255857Y-95943000D01*
X133272172Y-95927622D01*
X133278570Y-95922089D01*
X133296166Y-95908150D01*
X133303946Y-95897677D01*
X133313437Y-95888733D01*
X133327447Y-95866044D01*
X133343352Y-95844637D01*
X133344938Y-95840632D01*
X133352743Y-95825080D01*
X133910422Y-94921992D01*
X133913116Y-94919324D01*
X133931179Y-94888379D01*
X133950002Y-94857898D01*
X133950003Y-94857894D01*
X133951292Y-94855027D01*
X133951383Y-94854849D01*
X133951776Y-94853914D01*
X133951777Y-94853912D01*
X133951784Y-94853894D01*
X133952998Y-94851000D01*
X133953004Y-94850990D01*
X133962140Y-94817527D01*
X133962798Y-94815235D01*
X133971439Y-94786427D01*
X133972734Y-94782110D01*
X133972734Y-94782101D01*
X133973236Y-94779007D01*
X133975457Y-94768755D01*
X133989425Y-94717599D01*
X134402300Y-94717599D01*
X134402300Y-94717600D01*
X134417699Y-94952545D01*
X134463635Y-95183480D01*
X134539319Y-95406437D01*
X134643454Y-95617599D01*
X134774264Y-95813371D01*
X134920030Y-95979586D01*
X134929508Y-95990393D01*
X134929516Y-95990400D01*
X134929517Y-95990401D01*
X135106520Y-96145629D01*
X135106530Y-96145637D01*
X135302300Y-96276446D01*
X135513463Y-96380581D01*
X135513465Y-96380581D01*
X135513470Y-96380584D01*
X135736426Y-96456267D01*
X135967353Y-96502201D01*
X136123984Y-96512467D01*
X136202299Y-96517600D01*
X136202300Y-96517600D01*
X136202301Y-96517600D01*
X136261037Y-96513750D01*
X136437248Y-96502201D01*
X136668175Y-96456267D01*
X136891131Y-96380584D01*
X137102300Y-96276446D01*
X137298071Y-96145637D01*
X137475093Y-95990393D01*
X137630337Y-95813371D01*
X137761146Y-95617600D01*
X137865284Y-95406431D01*
X137940967Y-95183475D01*
X137986901Y-94952548D01*
X138002300Y-94717600D01*
X138001824Y-94710345D01*
X137994711Y-94601806D01*
X137986901Y-94482653D01*
X137940967Y-94251726D01*
X137865284Y-94028770D01*
X137862672Y-94023474D01*
X137761146Y-93817600D01*
X137630337Y-93621830D01*
X137630329Y-93621820D01*
X137475101Y-93444817D01*
X137475100Y-93444816D01*
X137475093Y-93444808D01*
X137461814Y-93433163D01*
X137298071Y-93289564D01*
X137102299Y-93158754D01*
X136891137Y-93054619D01*
X136668180Y-92978935D01*
X136437245Y-92932999D01*
X136202300Y-92917600D01*
X135967355Y-92932999D01*
X135736420Y-92978935D01*
X135513463Y-93054619D01*
X135302300Y-93158754D01*
X135106530Y-93289563D01*
X135106520Y-93289571D01*
X134929517Y-93444799D01*
X134929499Y-93444817D01*
X134774271Y-93621820D01*
X134774263Y-93621830D01*
X134643454Y-93817600D01*
X134539319Y-94028763D01*
X134463635Y-94251720D01*
X134417699Y-94482655D01*
X134402300Y-94717599D01*
X133989425Y-94717599D01*
X134017136Y-94616115D01*
X134022250Y-94601814D01*
X134025844Y-94593771D01*
X134028673Y-94576055D01*
X134030925Y-94565616D01*
X134035655Y-94548296D01*
X134035696Y-94539484D01*
X134036250Y-94529479D01*
X134036523Y-94526905D01*
X134038324Y-94515639D01*
X134038026Y-94512773D01*
X134038944Y-94504148D01*
X134042979Y-94495114D01*
X134050617Y-94466956D01*
X134099795Y-94377429D01*
X134100577Y-94376034D01*
X134118526Y-94344677D01*
X134118529Y-94344662D01*
X134118545Y-94344627D01*
X134118551Y-94344612D01*
X134119861Y-94341414D01*
X134119862Y-94341412D01*
X134119875Y-94341381D01*
X134120287Y-94340374D01*
X134120473Y-94339804D01*
X134120492Y-94339752D01*
X134120497Y-94339745D01*
X134120768Y-94338643D01*
X134127297Y-94312016D01*
X134129102Y-94304655D01*
X134129490Y-94303130D01*
X134167685Y-94158412D01*
X134175597Y-94138534D01*
X134177737Y-94120325D01*
X134182416Y-94102597D01*
X134182357Y-94087185D01*
X134183034Y-94075253D01*
X134184833Y-94059953D01*
X134182187Y-94041807D01*
X134182118Y-94023474D01*
X134176503Y-94002832D01*
X134173416Y-93981658D01*
X134173415Y-93981655D01*
X134172901Y-93978130D01*
X134173594Y-93945424D01*
X134177863Y-93922891D01*
X134178071Y-93921823D01*
X134178239Y-93920988D01*
X134185423Y-93885219D01*
X134185422Y-93885210D01*
X134185571Y-93883015D01*
X134185572Y-93882991D01*
X134185638Y-93882011D01*
X134182847Y-93844687D01*
X134182773Y-93843618D01*
X134182592Y-93840786D01*
X134188450Y-93800370D01*
X134248144Y-93637710D01*
X134252891Y-93628186D01*
X134252540Y-93628020D01*
X134255314Y-93622152D01*
X134255418Y-93621830D01*
X134265522Y-93590359D01*
X134277029Y-93559006D01*
X134277590Y-93552773D01*
X134279503Y-93546819D01*
X134281135Y-93513466D01*
X134284135Y-93480202D01*
X134283065Y-93474038D01*
X134283371Y-93467791D01*
X134276744Y-93437141D01*
X134275970Y-93433163D01*
X134270604Y-93402250D01*
X134268669Y-93396055D01*
X134269038Y-93395939D01*
X134265658Y-93385859D01*
X134259676Y-93358190D01*
X134259192Y-93318748D01*
X134270080Y-93261614D01*
X134272808Y-93250715D01*
X134272822Y-93250666D01*
X134272829Y-93250652D01*
X134279116Y-93214209D01*
X134286023Y-93177970D01*
X134285827Y-93175311D01*
X134286281Y-93172682D01*
X134282926Y-93135895D01*
X134280215Y-93099061D01*
X134279337Y-93096541D01*
X134279095Y-93093886D01*
X134279093Y-93093881D01*
X134277665Y-93087545D01*
X134278674Y-93087317D01*
X134279191Y-93085038D01*
X134275653Y-93045893D01*
X134305533Y-92874520D01*
X134311005Y-92858003D01*
X134312300Y-92835712D01*
X134316136Y-92813715D01*
X134315235Y-92803648D01*
X134315009Y-92789103D01*
X134315596Y-92779013D01*
X134311077Y-92757143D01*
X134309089Y-92734906D01*
X134303107Y-92718568D01*
X134296920Y-92688626D01*
X134295184Y-92680224D01*
X134278029Y-92597194D01*
X134276790Y-92589779D01*
X134273700Y-92565652D01*
X134273699Y-92565650D01*
X134273699Y-92565648D01*
X134272787Y-92563425D01*
X134267429Y-92545886D01*
X134266942Y-92543529D01*
X134266940Y-92543525D01*
X134256028Y-92521804D01*
X134252895Y-92514926D01*
X134194162Y-92371721D01*
X134188962Y-92313383D01*
X134189041Y-92313010D01*
X134195370Y-92284587D01*
X134195331Y-92283695D01*
X134195529Y-92282777D01*
X134195530Y-92282769D01*
X134195528Y-92282735D01*
X134195529Y-92282733D01*
X134193641Y-92244145D01*
X134191991Y-92205536D01*
X134191712Y-92204651D01*
X134191667Y-92203720D01*
X134191663Y-92203708D01*
X134191663Y-92203704D01*
X134189726Y-92197673D01*
X134186380Y-92150858D01*
X134188549Y-92138069D01*
X134208762Y-92018874D01*
X134215629Y-91990147D01*
X134215353Y-91980003D01*
X134217051Y-91969994D01*
X134214590Y-91943854D01*
X134214193Y-91937298D01*
X134213481Y-91911053D01*
X134213351Y-91910616D01*
X134210358Y-91897206D01*
X134209942Y-91894460D01*
X134209638Y-91891219D01*
X134209324Y-91890376D01*
X134208539Y-91885180D01*
X134209616Y-91878668D01*
X134209044Y-91852553D01*
X134212764Y-91832231D01*
X134219955Y-91794192D01*
X134219954Y-91794183D01*
X134220017Y-91793073D01*
X134220017Y-91793068D01*
X134220050Y-91792466D01*
X134220047Y-91792436D01*
X134220048Y-91792434D01*
X134216949Y-91754168D01*
X134216908Y-91753631D01*
X134214030Y-91715300D01*
X134214029Y-91715297D01*
X134214029Y-91715291D01*
X134214026Y-91715284D01*
X134213811Y-91714252D01*
X134213809Y-91714243D01*
X134213674Y-91713596D01*
X134206020Y-91692136D01*
X134200663Y-91677115D01*
X134199396Y-91673498D01*
X134193831Y-91640978D01*
X134193776Y-91613504D01*
X134194885Y-91603679D01*
X134194286Y-91603622D01*
X134194903Y-91597167D01*
X134194901Y-91597102D01*
X134193731Y-91564325D01*
X134193669Y-91561070D01*
X134193603Y-91528172D01*
X134193601Y-91528163D01*
X134192263Y-91523213D01*
X134192082Y-91518093D01*
X134181970Y-91485108D01*
X134172969Y-91451787D01*
X134172968Y-91451786D01*
X134172968Y-91451784D01*
X134171295Y-91447769D01*
X134166753Y-91391556D01*
X134166105Y-91391488D01*
X134166470Y-91388048D01*
X134166368Y-91386782D01*
X134166444Y-91386464D01*
X134166790Y-91385031D01*
X134166677Y-91380541D01*
X134167760Y-91363248D01*
X134167832Y-91362768D01*
X134168432Y-91358804D01*
X134165473Y-91332445D01*
X134164809Y-91305933D01*
X134161076Y-91293278D01*
X134159605Y-91280174D01*
X134157687Y-91275280D01*
X134157392Y-91270333D01*
X134154630Y-91266218D01*
X134155598Y-91240194D01*
X134154051Y-91214203D01*
X134156900Y-91205089D01*
X134162721Y-91189208D01*
X134163794Y-91186415D01*
X134171561Y-91167072D01*
X134176266Y-91155354D01*
X134176266Y-91155352D01*
X134177412Y-91150880D01*
X134178422Y-91146377D01*
X134178422Y-91146373D01*
X134178423Y-91146372D01*
X134181420Y-91112981D01*
X134181726Y-91110066D01*
X134185255Y-91080807D01*
X134194959Y-91048461D01*
X134215948Y-91006406D01*
X134220351Y-90998515D01*
X134231536Y-90980461D01*
X134235560Y-90967110D01*
X134241787Y-90954635D01*
X134246935Y-90929381D01*
X134254374Y-90904707D01*
X134254544Y-90899201D01*
X134256493Y-90882496D01*
X134257592Y-90877107D01*
X134256028Y-90851380D01*
X134256828Y-90825622D01*
X134253638Y-90812048D01*
X134253126Y-90803624D01*
X134253127Y-90803622D01*
X134253126Y-90803615D01*
X134252793Y-90798131D01*
X134251827Y-90793150D01*
X134251545Y-90756961D01*
X134302271Y-90471746D01*
X134309223Y-90445373D01*
X134309172Y-90432946D01*
X134311349Y-90420707D01*
X134309355Y-90397534D01*
X134309016Y-90391186D01*
X134308998Y-90390346D01*
X134308900Y-90366251D01*
X134308447Y-90364590D01*
X134308285Y-90356977D01*
X134311440Y-90346510D01*
X134314073Y-90321444D01*
X134324509Y-90292342D01*
X134328135Y-90283830D01*
X134328470Y-90282850D01*
X134328473Y-90282847D01*
X134340393Y-90248069D01*
X134340816Y-90246864D01*
X134353258Y-90212171D01*
X134353258Y-90212165D01*
X134353832Y-90209520D01*
X134353833Y-90209517D01*
X134354115Y-90208218D01*
X134354164Y-90207509D01*
X134356646Y-90171283D01*
X134356733Y-90170123D01*
X134359778Y-90133317D01*
X134359776Y-90133307D01*
X134359640Y-90130478D01*
X134359640Y-90130476D01*
X134359542Y-90128446D01*
X134359461Y-90127780D01*
X134359136Y-90122574D01*
X134359990Y-90122520D01*
X134360000Y-90122390D01*
X134360977Y-90122459D01*
X134361323Y-90122437D01*
X134364503Y-90081011D01*
X134501713Y-89701563D01*
X134511939Y-89680686D01*
X134515108Y-89664520D01*
X134520712Y-89649025D01*
X134522234Y-89631186D01*
X134523720Y-89620598D01*
X134557257Y-89449557D01*
X134581837Y-89401268D01*
X134588220Y-89394388D01*
X134591030Y-89392512D01*
X134609412Y-89371551D01*
X134610332Y-89370560D01*
X134610482Y-89370476D01*
X134612909Y-89367886D01*
X134622042Y-89358755D01*
X134631635Y-89349165D01*
X134636624Y-89340524D01*
X134643202Y-89333025D01*
X134656345Y-89306374D01*
X134671204Y-89280646D01*
X134671260Y-89280434D01*
X134678100Y-89262265D01*
X134678200Y-89262064D01*
X134683368Y-89236079D01*
X134684373Y-89231585D01*
X134684593Y-89230697D01*
X134691691Y-89204223D01*
X134691691Y-89202071D01*
X134693631Y-89194249D01*
X134698422Y-89186559D01*
X134706661Y-89164205D01*
X134806118Y-89010880D01*
X134818947Y-88994982D01*
X135088383Y-88723958D01*
X135097897Y-88715545D01*
X136055316Y-87972899D01*
X136062302Y-87969535D01*
X136086479Y-87948726D01*
X136111705Y-87929160D01*
X136111711Y-87929151D01*
X136116272Y-87924544D01*
X136116358Y-87924630D01*
X136124334Y-87916146D01*
X136229001Y-87826066D01*
X136254622Y-87806026D01*
X136258915Y-87800321D01*
X136264327Y-87795664D01*
X136281347Y-87770694D01*
X136284010Y-87766977D01*
X136287057Y-87762929D01*
X136309434Y-87741328D01*
X136527897Y-87588643D01*
X136547089Y-87578175D01*
X136598339Y-87557188D01*
X136605253Y-87554654D01*
X136611176Y-87552728D01*
X136628735Y-87547023D01*
X136634556Y-87543240D01*
X136638239Y-87540849D01*
X136648721Y-87536558D01*
X136671294Y-87519381D01*
X137593608Y-86920339D01*
X137597796Y-86917767D01*
X138678334Y-86290989D01*
X138683529Y-86288181D01*
X139631245Y-85812101D01*
X139636719Y-85809558D01*
X141130651Y-85170821D01*
X141135086Y-85169051D01*
X141678948Y-84967170D01*
X141683347Y-84965654D01*
X142486172Y-84710212D01*
X142490721Y-84708885D01*
X143193459Y-84522057D01*
X143199356Y-84520681D01*
X144462553Y-84266805D01*
X144466959Y-84266024D01*
X145096846Y-84169118D01*
X145109874Y-84169424D01*
X145135802Y-84163124D01*
X145162171Y-84159068D01*
X145166092Y-84157342D01*
X145182587Y-84151757D01*
X145567195Y-84058318D01*
X145587187Y-84056130D01*
X145605474Y-84049018D01*
X145611860Y-84047467D01*
X145611861Y-84047467D01*
X145611865Y-84047466D01*
X145624537Y-84044388D01*
X145624538Y-84044387D01*
X145624540Y-84044387D01*
X145636559Y-84037817D01*
X145648140Y-84032427D01*
X146423522Y-83730924D01*
X146427419Y-83730396D01*
X146460331Y-83716611D01*
X146493598Y-83703676D01*
X146493607Y-83703669D01*
X146496687Y-83701980D01*
X146496816Y-83701917D01*
X146497333Y-83701616D01*
X146497338Y-83701614D01*
X146500395Y-83699831D01*
X146500400Y-83699830D01*
X146527670Y-83678732D01*
X146529610Y-83677271D01*
X146557408Y-83656891D01*
X146557414Y-83656883D01*
X146559958Y-83654447D01*
X146567843Y-83647654D01*
X146627292Y-83601665D01*
X146649327Y-83587563D01*
X146658461Y-83577552D01*
X146665239Y-83572308D01*
X146665241Y-83572308D01*
X146665248Y-83572302D01*
X146669182Y-83569259D01*
X146682364Y-83551936D01*
X146687987Y-83545194D01*
X146702660Y-83529116D01*
X146702661Y-83529113D01*
X146704452Y-83527151D01*
X146757643Y-83496912D01*
X146769455Y-83495218D01*
X146899074Y-83484562D01*
X146910680Y-83484292D01*
X147088091Y-83490594D01*
G37*
%TD.AperFunction*%
%TD*%
M02*
